{"glyphs":{"0":{"ha":833,"x_min":47,"x_max":786,"o":"m 417 -12 q 142 118 238 -12 q 47 496 47 249 q 142 869 47 740 q 417 999 238 999 q 691 869 596 999 q 786 496 786 740 q 691 118 786 249 q 417 -12 596 -12 m 417 154 q 536 235 499 154 q 574 496 574 315 q 536 752 574 672 q 417 832 499 832 q 297 752 335 832 q 260 496 260 672 q 297 235 260 315 q 417 154 335 154 z "},"1":{"ha":833,"x_min":143,"x_max":788,"o":"m 788 174 l 788 0 l 143 0 l 143 174 l 357 174 l 357 747 l 157 629 l 157 819 l 447 989 l 574 989 l 574 174 l 788 174 z "},"2":{"ha":835,"x_min":57,"x_max":769,"o":"m 769 174 l 769 0 l 90 0 l 90 160 l 419 510 q 522 713 522 621 q 488 801 522 771 q 389 831 454 831 q 126 735 263 831 l 57 890 q 210 972 117 942 q 399 1001 303 1001 q 644 927 553 1001 q 735 728 735 853 q 699 569 735 642 q 581 407 664 496 l 357 174 l 769 174 z "},"3":{"ha":833,"x_min":43,"x_max":760,"o":"m 581 508 q 713 422 667 483 q 760 269 760 360 q 661 64 760 139 q 393 -11 563 -11 q 196 19 290 -11 q 43 100 101 49 l 113 256 q 383 160 244 160 q 515 191 474 160 q 556 290 556 222 q 515 385 556 356 q 383 415 474 415 l 242 415 l 242 585 l 360 585 q 488 615 446 585 q 529 706 529 644 q 492 799 529 767 q 388 831 456 831 q 257 806 324 831 q 126 735 190 782 l 57 890 q 210 972 117 942 q 401 1001 303 1001 q 577 968 501 1001 q 694 875 653 935 q 735 735 735 815 q 694 595 735 654 q 581 508 654 536 z "},"4":{"ha":833,"x_min":46,"x_max":808,"o":"m 808 181 l 674 181 l 674 0 l 461 0 l 461 181 l 46 181 l 46 342 l 500 989 l 674 989 l 674 349 l 808 349 l 808 181 m 461 349 l 461 660 l 244 349 l 461 349 z "},"5":{"ha":833,"x_min":72,"x_max":790,"o":"m 476 640 q 640 601 568 640 q 751 489 711 561 q 790 322 790 417 q 744 147 790 222 q 610 30 697 71 q 408 -11 524 -11 q 222 19 314 -11 q 72 100 129 50 l 142 256 q 411 160 274 160 q 585 314 585 160 q 540 430 585 388 q 417 472 494 472 q 319 454 368 472 q 231 404 269 436 l 107 404 l 107 989 l 742 989 l 742 822 l 318 822 l 318 601 q 476 640 383 640 z "},"6":{"ha":833,"x_min":49,"x_max":789,"o":"m 489 643 q 644 602 575 643 q 751 488 713 561 q 789 322 789 415 q 745 150 789 226 q 624 31 701 74 q 450 -12 547 -12 q 153 115 257 -12 q 49 479 49 243 q 99 759 49 642 q 242 939 149 876 q 464 1001 335 1001 q 642 972 556 1001 q 789 890 728 943 l 718 735 q 474 831 593 831 q 322 752 376 831 q 263 522 268 674 q 355 610 294 578 q 489 643 415 643 m 438 157 q 544 200 504 157 q 583 314 583 243 q 544 430 583 388 q 438 472 506 472 q 330 428 371 472 q 289 314 289 385 q 331 201 289 244 q 438 157 372 157 z "},"7":{"ha":833,"x_min":63,"x_max":772,"o":"m 772 989 l 772 828 l 332 0 l 100 0 l 539 815 l 63 815 l 63 989 l 772 989 z "},"8":{"ha":833,"x_min":38,"x_max":796,"o":"m 594 510 q 743 422 690 485 q 796 269 796 360 q 748 120 796 183 q 614 23 700 57 q 417 -11 528 -11 q 219 23 306 -11 q 85 120 133 57 q 38 269 38 183 q 91 423 38 360 q 239 510 144 486 q 108 596 156 538 q 61 733 61 654 q 107 875 61 814 q 234 969 153 936 q 417 1001 315 1001 q 599 969 518 1001 q 726 875 681 936 q 772 733 772 814 q 724 593 772 653 q 594 510 676 533 m 417 835 q 306 803 347 835 q 265 710 265 771 q 306 616 265 651 q 417 567 347 581 q 527 616 486 581 q 568 710 568 651 q 527 803 568 771 q 417 835 486 835 m 417 156 q 547 189 499 156 q 594 286 594 222 q 547 383 594 346 q 417 433 499 421 q 287 383 335 421 q 239 286 239 346 q 287 189 239 222 q 417 156 335 156 z "},"9":{"ha":833,"x_min":44,"x_max":785,"o":"m 383 1001 q 681 874 576 1001 q 785 510 785 746 q 735 230 785 347 q 592 50 685 113 q 369 -12 499 -12 q 192 17 278 -12 q 44 99 106 46 l 115 254 q 360 158 242 158 q 510 237 457 158 q 569 467 564 315 q 478 378 538 411 q 344 346 418 346 q 190 387 258 346 q 83 501 121 428 q 44 667 44 574 q 88 839 44 763 q 209 958 132 915 q 383 1001 286 1001 m 396 517 q 503 560 463 517 q 544 675 544 604 q 503 788 544 744 q 396 832 461 832 q 290 789 329 832 q 250 675 250 746 q 289 559 250 601 q 396 517 328 517 z "},"\u0000":{"ha":0,"x_min":0,"x_max":0,"o":""},"\r":{"ha":390,"x_min":0,"x_max":0,"o":""}," ":{"ha":390,"x_min":0,"x_max":0,"o":""},"A":{"ha":1054,"x_min":-15,"x_max":1068,"o":"m 760 219 l 297 219 l 203 0 l -15 0 l 439 989 l 614 989 l 1068 0 l 854 0 l 760 219 m 689 385 l 529 756 l 369 385 l 689 385 z "},"Á":{"ha":1054,"x_min":-15,"x_max":1068,"o":"m 760 219 l 297 219 l 203 0 l -15 0 l 439 989 l 614 989 l 1068 0 l 854 0 l 760 219 m 689 385 l 529 756 l 369 385 l 689 385 m 461 1074 l 604 1292 l 799 1292 l 590 1074 l 461 1074 z "},"Ă":{"ha":1054,"x_min":-15,"x_max":1068,"o":"m 760 219 l 297 219 l 203 0 l -15 0 l 439 989 l 614 989 l 1068 0 l 854 0 l 760 219 m 689 385 l 529 756 l 369 385 l 689 385 m 526 1086 q 369 1125 435 1086 q 276 1239 304 1164 l 374 1279 q 526 1211 418 1211 q 678 1279 633 1211 l 775 1239 q 682 1125 747 1164 q 526 1086 617 1086 z "},"Ắ":{"ha":1054,"x_min":-15,"x_max":1068,"o":"m 760 219 l 297 219 l 203 0 l -15 0 l 439 989 l 614 989 l 1068 0 l 854 0 l 760 219 m 689 385 l 529 756 l 369 385 l 689 385 m 464 1224 l 604 1421 l 786 1421 l 588 1224 l 464 1224 m 526 1067 q 369 1106 435 1067 q 276 1219 304 1144 l 353 1251 q 424 1193 376 1214 q 526 1172 472 1172 q 628 1193 579 1172 q 699 1251 676 1214 l 775 1219 q 682 1106 747 1144 q 526 1067 617 1067 z "},"Ặ":{"ha":1054,"x_min":-15,"x_max":1068,"o":"m 760 219 l 297 219 l 203 0 l -15 0 l 439 989 l 614 989 l 1068 0 l 854 0 l 760 219 m 689 385 l 529 756 l 369 385 l 689 385 m 624 -94 l 624 -279 l 431 -279 l 431 -94 l 624 -94 m 526 1086 q 369 1125 435 1086 q 276 1239 304 1164 l 374 1279 q 526 1211 418 1211 q 678 1279 633 1211 l 775 1239 q 682 1125 747 1164 q 526 1086 617 1086 z "},"Ằ":{"ha":1054,"x_min":-15,"x_max":1068,"o":"m 760 219 l 297 219 l 203 0 l -15 0 l 439 989 l 614 989 l 1068 0 l 854 0 l 760 219 m 689 385 l 529 756 l 369 385 l 689 385 m 265 1421 l 447 1421 l 588 1224 l 464 1224 l 265 1421 m 526 1067 q 369 1106 435 1067 q 276 1219 304 1144 l 353 1251 q 424 1193 376 1214 q 526 1172 472 1172 q 628 1193 579 1172 q 699 1251 676 1214 l 775 1219 q 682 1106 747 1144 q 526 1067 617 1067 z "},"Ẳ":{"ha":1054,"x_min":-15,"x_max":1068,"o":"m 760 219 l 297 219 l 203 0 l -15 0 l 439 989 l 614 989 l 1068 0 l 854 0 l 760 219 m 689 385 l 529 756 l 369 385 l 689 385 m 578 1225 l 474 1225 l 474 1251 q 492 1291 474 1278 q 540 1315 510 1304 q 565 1329 565 1322 q 518 1349 565 1349 q 439 1333 483 1349 l 413 1404 q 544 1429 475 1429 q 653 1406 613 1429 q 694 1344 694 1382 q 677 1304 694 1318 q 626 1278 660 1290 q 590 1258 601 1267 q 578 1236 578 1250 l 578 1225 m 526 1067 q 369 1106 435 1067 q 276 1219 304 1144 l 353 1251 q 424 1193 376 1214 q 526 1172 472 1172 q 628 1193 579 1172 q 699 1251 676 1214 l 775 1219 q 682 1106 747 1144 q 526 1067 617 1067 z "},"Ẵ":{"ha":1054,"x_min":-15,"x_max":1068,"o":"m 760 219 l 297 219 l 203 0 l -15 0 l 439 989 l 614 989 l 1068 0 l 854 0 l 760 219 m 689 385 l 529 756 l 369 385 l 689 385 m 282 1281 q 326 1385 282 1343 q 433 1428 371 1428 q 484 1421 460 1428 q 540 1401 508 1414 q 582 1387 561 1393 q 619 1381 603 1381 q 681 1424 675 1381 l 769 1424 q 725 1319 769 1361 q 618 1276 681 1276 q 567 1283 592 1276 q 511 1303 543 1290 q 469 1317 490 1311 q 432 1324 449 1324 q 371 1281 376 1324 l 282 1281 m 526 1067 q 369 1106 435 1067 q 276 1219 304 1144 l 353 1251 q 424 1193 376 1214 q 526 1172 472 1172 q 628 1193 579 1172 q 699 1251 676 1214 l 775 1219 q 682 1106 747 1144 q 526 1067 617 1067 z "},"Â":{"ha":1054,"x_min":-15,"x_max":1068,"o":"m 760 219 l 297 219 l 203 0 l -15 0 l 439 989 l 614 989 l 1068 0 l 854 0 l 760 219 m 689 385 l 529 756 l 369 385 l 689 385 m 281 1074 l 465 1292 l 586 1292 l 771 1074 l 613 1074 l 526 1193 l 439 1074 l 281 1074 z "},"Ấ":{"ha":1054,"x_min":-15,"x_max":1068,"o":"m 760 219 l 297 219 l 203 0 l -15 0 l 439 989 l 614 989 l 1068 0 l 854 0 l 760 219 m 689 385 l 529 756 l 369 385 l 689 385 m 657 1224 l 758 1421 l 932 1421 l 760 1224 l 657 1224 m 281 1074 l 465 1268 l 586 1268 l 771 1074 l 615 1074 l 526 1172 l 436 1074 l 281 1074 z "},"Ậ":{"ha":1054,"x_min":-15,"x_max":1068,"o":"m 760 219 l 297 219 l 203 0 l -15 0 l 439 989 l 614 989 l 1068 0 l 854 0 l 760 219 m 689 385 l 529 756 l 369 385 l 689 385 m 624 -94 l 624 -279 l 431 -279 l 431 -94 l 624 -94 m 281 1074 l 465 1292 l 586 1292 l 771 1074 l 613 1074 l 526 1193 l 439 1074 l 281 1074 z "},"Ầ":{"ha":1054,"x_min":-15,"x_max":1068,"o":"m 760 219 l 297 219 l 203 0 l -15 0 l 439 989 l 614 989 l 1068 0 l 854 0 l 760 219 m 689 385 l 529 756 l 369 385 l 689 385 m 546 1421 l 721 1421 l 819 1224 l 717 1224 l 546 1421 m 281 1074 l 465 1268 l 586 1268 l 771 1074 l 615 1074 l 526 1172 l 436 1074 l 281 1074 z "},"Ẩ":{"ha":1054,"x_min":-15,"x_max":1068,"o":"m 760 219 l 297 219 l 203 0 l -15 0 l 439 989 l 614 989 l 1068 0 l 854 0 l 760 219 m 689 385 l 529 756 l 369 385 l 689 385 m 760 1225 l 656 1225 l 656 1251 q 674 1291 656 1278 q 722 1315 692 1304 q 747 1329 747 1322 q 703 1349 747 1349 q 621 1333 665 1349 l 594 1404 q 728 1429 657 1429 q 836 1406 796 1429 q 876 1344 876 1382 q 859 1304 876 1318 q 808 1278 842 1290 q 772 1258 783 1267 q 760 1236 760 1250 l 760 1225 m 281 1074 l 465 1268 l 586 1268 l 771 1074 l 615 1074 l 526 1172 l 436 1074 l 281 1074 z "},"Ẫ":{"ha":1054,"x_min":-15,"x_max":1068,"o":"m 760 219 l 297 219 l 203 0 l -15 0 l 439 989 l 614 989 l 1068 0 l 854 0 l 760 219 m 689 385 l 529 756 l 369 385 l 689 385 m 282 1292 q 326 1397 282 1354 q 433 1439 371 1439 q 481 1433 458 1439 q 540 1414 503 1426 q 582 1399 561 1406 q 619 1393 603 1393 q 681 1435 675 1393 l 769 1435 q 725 1331 769 1374 q 618 1289 681 1289 q 567 1296 592 1289 q 511 1315 543 1303 q 469 1330 490 1324 q 432 1336 449 1336 q 371 1292 376 1336 l 282 1292 m 281 1074 l 465 1268 l 586 1268 l 771 1074 l 615 1074 l 526 1172 l 436 1074 l 281 1074 z "},"Ȁ":{"ha":1054,"x_min":-15,"x_max":1068,"o":"m 760 219 l 297 219 l 203 0 l -15 0 l 439 989 l 614 989 l 1068 0 l 854 0 l 760 219 m 689 385 l 529 756 l 369 385 l 689 385 m 236 1292 l 378 1292 l 481 1074 l 376 1074 l 236 1292 m 432 1292 l 572 1292 l 675 1074 l 571 1074 l 432 1292 z "},"Ä":{"ha":1054,"x_min":-15,"x_max":1068,"o":"m 760 219 l 297 219 l 203 0 l -15 0 l 439 989 l 614 989 l 1068 0 l 854 0 l 760 219 m 689 385 l 529 756 l 369 385 l 689 385 m 489 1275 l 489 1092 l 296 1092 l 296 1275 l 489 1275 m 756 1275 l 756 1092 l 563 1092 l 563 1275 l 756 1275 z "},"Ạ":{"ha":1054,"x_min":-15,"x_max":1068,"o":"m 760 219 l 297 219 l 203 0 l -15 0 l 439 989 l 614 989 l 1068 0 l 854 0 l 760 219 m 689 385 l 529 756 l 369 385 l 689 385 m 624 -94 l 624 -279 l 431 -279 l 431 -94 l 624 -94 z "},"À":{"ha":1054,"x_min":-15,"x_max":1068,"o":"m 760 219 l 297 219 l 203 0 l -15 0 l 439 989 l 614 989 l 1068 0 l 854 0 l 760 219 m 689 385 l 529 756 l 369 385 l 689 385 m 253 1292 l 447 1292 l 590 1074 l 461 1074 l 253 1292 z "},"Ả":{"ha":1054,"x_min":-15,"x_max":1068,"o":"m 760 219 l 297 219 l 203 0 l -15 0 l 439 989 l 614 989 l 1068 0 l 854 0 l 760 219 m 689 385 l 529 756 l 369 385 l 689 385 m 578 1074 l 474 1074 l 474 1104 q 490 1142 474 1129 q 535 1167 506 1154 q 547 1173 538 1168 q 561 1182 557 1178 q 565 1190 565 1186 q 518 1215 565 1215 q 439 1200 483 1215 l 413 1272 q 544 1297 475 1297 q 653 1272 611 1297 q 694 1208 694 1246 q 676 1166 694 1182 q 626 1136 658 1150 q 590 1115 601 1124 q 578 1092 578 1106 l 578 1074 z "},"Ȃ":{"ha":1054,"x_min":-15,"x_max":1068,"o":"m 760 219 l 297 219 l 203 0 l -15 0 l 439 989 l 614 989 l 1068 0 l 854 0 l 760 219 m 689 385 l 529 756 l 369 385 l 689 385 m 526 1279 q 682 1241 617 1279 q 775 1128 747 1203 l 678 1086 q 526 1156 633 1156 q 374 1086 418 1156 l 276 1128 q 369 1241 304 1203 q 526 1279 435 1279 z "},"Ā":{"ha":1054,"x_min":-15,"x_max":1068,"o":"m 760 219 l 297 219 l 203 0 l -15 0 l 439 989 l 614 989 l 1068 0 l 854 0 l 760 219 m 689 385 l 529 756 l 369 385 l 689 385 m 307 1247 l 744 1247 l 744 1117 l 307 1117 l 307 1247 z "},"Ą":{"ha":1054,"x_min":-15,"x_max":1076,"o":"m 1076 -247 q 936 -276 1010 -276 q 808 -234 858 -276 q 757 -122 757 -192 q 779 -37 757 -76 q 843 26 801 1 l 760 219 l 297 219 l 203 0 l -15 0 l 439 989 l 614 989 l 1068 0 l 997 0 q 921 -26 950 0 q 892 -92 892 -51 q 913 -148 892 -129 q 976 -167 935 -167 q 1053 -149 1013 -167 l 1076 -247 m 689 385 l 529 756 l 369 385 l 689 385 z "},"Å":{"ha":1054,"x_min":-15,"x_max":1068,"o":"m 760 219 l 297 219 l 203 0 l -15 0 l 432 972 q 390 1024 406 993 q 375 1092 375 1056 q 419 1198 375 1154 q 528 1242 464 1242 q 636 1198 592 1242 q 681 1092 681 1154 q 665 1023 681 1054 q 622 971 650 992 l 1068 0 l 854 0 l 760 219 m 528 1154 q 484 1136 501 1154 q 467 1092 467 1118 q 484 1045 467 1064 q 528 1026 501 1026 q 571 1045 554 1026 q 588 1092 588 1064 q 571 1136 588 1118 q 528 1154 554 1154 m 689 385 l 529 756 l 369 385 l 689 385 z "},"Ǻ":{"ha":1054,"x_min":-15,"x_max":1068,"o":"m 760 219 l 297 219 l 203 0 l -15 0 l 432 972 q 390 1024 406 993 q 375 1092 375 1056 q 419 1198 375 1154 q 528 1242 464 1242 q 592 1228 564 1242 l 683 1326 l 878 1326 l 668 1151 q 681 1092 681 1125 q 665 1023 681 1054 q 622 971 650 992 l 1068 0 l 854 0 l 760 219 m 528 1154 q 484 1136 501 1154 q 467 1092 467 1118 q 484 1045 467 1064 q 528 1026 501 1026 q 571 1045 554 1026 q 588 1092 588 1064 q 571 1136 588 1118 q 528 1154 554 1154 m 689 385 l 529 756 l 369 385 l 689 385 z "},"Ã":{"ha":1054,"x_min":-15,"x_max":1068,"o":"m 760 219 l 297 219 l 203 0 l -15 0 l 439 989 l 614 989 l 1068 0 l 854 0 l 760 219 m 689 385 l 529 756 l 369 385 l 689 385 m 282 1083 q 324 1236 282 1185 q 433 1288 367 1288 q 485 1276 460 1288 q 540 1246 511 1265 q 587 1222 571 1229 q 619 1214 603 1214 q 662 1233 646 1214 q 681 1283 678 1251 l 769 1283 q 727 1131 769 1182 q 618 1079 685 1079 q 566 1090 592 1079 q 511 1121 540 1101 q 465 1145 481 1138 q 432 1153 449 1153 q 390 1134 406 1153 q 371 1083 374 1115 l 282 1083 z "},"Æ":{"ha":1403,"x_min":-43,"x_max":1351,"o":"m 901 819 l 918 588 l 1322 588 l 1322 418 l 929 418 l 947 169 l 1351 169 l 1351 0 l 763 0 l 747 219 l 324 219 l 193 0 l -43 0 l 579 989 l 1351 989 l 1351 819 l 901 819 m 707 819 l 679 819 l 421 385 l 736 385 l 707 819 z "},"Ǽ":{"ha":1403,"x_min":-43,"x_max":1351,"o":"m 901 819 l 918 588 l 1322 588 l 1322 418 l 929 418 l 947 169 l 1351 169 l 1351 0 l 763 0 l 747 219 l 324 219 l 193 0 l -43 0 l 579 989 l 1351 989 l 1351 819 l 901 819 m 707 819 l 679 819 l 421 385 l 736 385 l 707 819 m 642 1074 l 785 1292 l 979 1292 l 771 1074 l 642 1074 z "},"B":{"ha":967,"x_min":99,"x_max":914,"o":"m 733 511 q 867 424 819 486 q 914 271 914 361 q 821 73 914 146 q 568 0 728 0 l 99 0 l 99 989 l 554 989 q 798 920 708 989 q 888 732 888 851 q 847 596 888 654 q 733 511 806 538 m 310 586 l 518 586 q 642 615 601 586 q 683 703 683 643 q 642 793 683 764 q 518 822 601 822 l 310 822 l 310 586 m 543 167 q 670 197 631 167 q 710 292 710 226 q 670 389 710 358 q 543 419 631 419 l 310 419 l 310 167 l 543 167 z "},"C":{"ha":951,"x_min":69,"x_max":897,"o":"m 563 -12 q 301 51 413 -12 q 129 228 189 114 q 69 496 69 343 q 129 762 69 647 q 301 939 189 876 q 563 1001 413 1001 q 751 972 661 1001 q 897 888 840 942 l 829 732 q 699 805 763 782 q 567 828 636 828 q 363 743 433 828 q 292 496 292 658 q 363 247 292 332 q 567 161 433 161 q 699 184 636 161 q 829 257 763 207 l 897 101 q 751 17 840 47 q 563 -12 661 -12 z "},"Ć":{"ha":951,"x_min":69,"x_max":897,"o":"m 563 -12 q 301 51 413 -12 q 129 228 189 114 q 69 496 69 343 q 129 762 69 647 q 301 939 189 876 q 563 1001 413 1001 q 751 972 661 1001 q 897 888 840 942 l 829 732 q 699 805 763 782 q 567 828 636 828 q 363 743 433 828 q 292 496 292 658 q 363 247 292 332 q 567 161 433 161 q 699 184 636 161 q 829 257 763 207 l 897 101 q 751 17 840 47 q 563 -12 661 -12 m 488 1074 l 631 1292 l 825 1292 l 617 1074 l 488 1074 z "},"Č":{"ha":951,"x_min":69,"x_max":897,"o":"m 563 -12 q 301 51 413 -12 q 129 228 189 114 q 69 496 69 343 q 129 762 69 647 q 301 939 189 876 q 563 1001 413 1001 q 751 972 661 1001 q 897 888 840 942 l 829 732 q 699 805 763 782 q 567 828 636 828 q 363 743 433 828 q 292 496 292 658 q 363 247 292 332 q 567 161 433 161 q 699 184 636 161 q 829 257 763 207 l 897 101 q 751 17 840 47 q 563 -12 661 -12 m 797 1292 l 613 1074 l 492 1074 l 307 1292 l 465 1292 l 553 1171 l 639 1292 l 797 1292 z "},"Ç":{"ha":951,"x_min":69,"x_max":897,"o":"m 897 101 q 764 22 844 51 q 593 -11 683 -7 l 586 -57 q 604 -56 593 -56 q 690 -82 657 -56 q 722 -153 722 -108 q 672 -242 722 -208 q 532 -276 622 -276 q 466 -270 501 -276 q 401 -251 431 -264 l 418 -169 q 528 -189 482 -189 q 592 -153 592 -189 q 580 -133 592 -140 q 546 -125 568 -125 q 496 -135 528 -125 l 468 -106 l 481 -7 q 261 76 354 10 q 119 251 168 143 q 69 496 69 358 q 129 762 69 647 q 301 939 189 876 q 563 1001 413 1001 q 751 972 661 1001 q 897 888 840 942 l 829 732 q 699 805 763 782 q 567 828 636 828 q 363 743 433 828 q 292 496 292 658 q 363 247 292 332 q 567 161 433 161 q 699 184 636 161 q 829 257 763 207 l 897 101 z "},"Ḉ":{"ha":951,"x_min":69,"x_max":897,"o":"m 617 1074 l 488 1074 l 631 1292 l 825 1292 l 617 1074 m 897 101 q 764 22 844 51 q 593 -11 683 -7 l 586 -57 q 604 -56 593 -56 q 690 -82 657 -56 q 722 -153 722 -108 q 672 -242 722 -208 q 532 -276 622 -276 q 466 -270 501 -276 q 401 -251 431 -264 l 418 -169 q 528 -189 482 -189 q 592 -153 592 -189 q 580 -133 592 -140 q 546 -125 568 -125 q 496 -135 528 -125 l 468 -106 l 481 -7 q 261 76 354 10 q 119 251 168 143 q 69 496 69 358 q 129 762 69 647 q 301 939 189 876 q 563 1001 413 1001 q 751 972 661 1001 q 897 888 840 942 l 829 732 q 699 805 763 782 q 567 828 636 828 q 363 743 433 828 q 292 496 292 658 q 363 247 292 332 q 567 161 433 161 q 699 184 636 161 q 829 257 763 207 l 897 101 z "},"Ĉ":{"ha":951,"x_min":69,"x_max":897,"o":"m 563 -12 q 301 51 413 -12 q 129 228 189 114 q 69 496 69 343 q 129 762 69 647 q 301 939 189 876 q 563 1001 413 1001 q 751 972 661 1001 q 897 888 840 942 l 829 732 q 699 805 763 782 q 567 828 636 828 q 363 743 433 828 q 292 496 292 658 q 363 247 292 332 q 567 161 433 161 q 699 184 636 161 q 829 257 763 207 l 897 101 q 751 17 840 47 q 563 -12 661 -12 m 307 1074 l 492 1292 l 613 1292 l 797 1074 l 639 1074 l 553 1193 l 465 1074 l 307 1074 z "},"Ċ":{"ha":951,"x_min":69,"x_max":897,"o":"m 563 -12 q 301 51 413 -12 q 129 228 189 114 q 69 496 69 343 q 129 762 69 647 q 301 939 189 876 q 563 1001 413 1001 q 751 972 661 1001 q 897 888 840 942 l 829 732 q 699 805 763 782 q 567 828 636 828 q 363 743 433 828 q 292 496 292 658 q 363 247 292 332 q 567 161 433 161 q 699 184 636 161 q 829 257 763 207 l 897 101 q 751 17 840 47 q 563 -12 661 -12 m 664 1282 l 664 1085 l 440 1085 l 440 1282 l 664 1282 z "},"D":{"ha":1071,"x_min":99,"x_max":1000,"o":"m 99 989 l 481 989 q 760 931 643 989 q 938 761 876 872 q 1000 496 1000 650 q 939 229 1000 340 q 761 59 878 118 q 481 0 644 0 l 99 0 l 99 989 m 467 175 q 783 496 783 175 q 467 814 783 814 l 315 814 l 315 175 l 467 175 z "},"Ǆ":{"ha":1904,"x_min":99,"x_max":1856,"o":"m 99 989 l 481 989 q 760 931 643 989 q 938 761 876 872 q 1000 496 1000 650 q 939 229 1000 340 q 761 59 878 118 q 481 0 644 0 l 99 0 l 99 989 m 467 175 q 783 496 783 175 q 467 814 783 814 l 315 814 l 315 175 l 467 175 m 1856 171 l 1856 0 l 1121 0 l 1121 158 l 1597 818 l 1121 818 l 1121 989 l 1840 989 l 1840 832 l 1360 171 l 1856 171 m 1724 1292 l 1539 1074 l 1418 1074 l 1233 1292 l 1392 1292 l 1479 1171 l 1565 1292 l 1724 1292 z "},"Ð":{"ha":1113,"x_min":19,"x_max":1042,"o":"m 524 989 q 801 931 685 989 q 980 761 918 872 q 1042 496 1042 650 q 981 229 1042 340 q 803 59 919 118 q 524 0 686 0 l 140 0 l 140 417 l 19 417 l 19 582 l 140 582 l 140 989 l 524 989 m 508 175 q 825 496 825 175 q 508 814 825 814 l 358 814 l 358 582 l 617 582 l 617 417 l 358 417 l 358 175 l 508 175 z "},"Ď":{"ha":1071,"x_min":99,"x_max":1000,"o":"m 99 989 l 481 989 q 760 931 643 989 q 938 761 876 872 q 1000 496 1000 650 q 939 229 1000 340 q 761 59 878 118 q 481 0 644 0 l 99 0 l 99 989 m 467 175 q 783 496 783 175 q 467 814 783 814 l 315 814 l 315 175 l 467 175 m 779 1292 l 594 1074 l 474 1074 l 289 1292 l 447 1292 l 535 1171 l 621 1292 l 779 1292 z "},"Đ":{"ha":1113,"x_min":19,"x_max":1042,"o":"m 524 989 q 801 931 685 989 q 980 761 918 872 q 1042 496 1042 650 q 981 229 1042 340 q 803 59 919 118 q 524 0 686 0 l 140 0 l 140 417 l 19 417 l 19 582 l 140 582 l 140 989 l 524 989 m 508 175 q 825 496 825 175 q 508 814 825 814 l 358 814 l 358 582 l 617 582 l 617 417 l 358 417 l 358 175 l 508 175 z "},"Ḍ":{"ha":1071,"x_min":99,"x_max":1000,"o":"m 99 989 l 481 989 q 760 931 643 989 q 938 761 876 872 q 1000 496 1000 650 q 939 229 1000 340 q 761 59 878 118 q 481 0 644 0 l 99 0 l 99 989 m 467 175 q 783 496 783 175 q 467 814 783 814 l 315 814 l 315 175 l 467 175 m 631 -94 l 631 -279 l 438 -279 l 438 -94 l 631 -94 z "},"Ḏ":{"ha":1071,"x_min":99,"x_max":1000,"o":"m 99 989 l 481 989 q 760 931 643 989 q 938 761 876 872 q 1000 496 1000 650 q 939 229 1000 340 q 761 59 878 118 q 481 0 644 0 l 99 0 l 99 989 m 467 175 q 783 496 783 175 q 467 814 783 814 l 315 814 l 315 175 l 467 175 m 315 -126 l 753 -126 l 753 -249 l 315 -249 l 315 -126 z "},"ǅ":{"ha":1807,"x_min":99,"x_max":1758,"o":"m 99 989 l 481 989 q 760 931 643 989 q 938 761 876 872 q 1000 496 1000 650 q 939 229 1000 340 q 761 59 878 118 q 481 0 644 0 l 99 0 l 99 989 m 467 175 q 783 496 783 175 q 467 814 783 814 l 315 814 l 315 175 l 467 175 m 1758 157 l 1758 0 l 1138 0 l 1138 147 l 1493 547 l 1143 547 l 1143 704 l 1744 704 l 1744 563 l 1383 157 l 1758 157 m 1694 1081 l 1513 794 l 1386 794 l 1204 1081 l 1368 1081 l 1450 917 l 1531 1081 l 1694 1081 z "},"E":{"ha":832,"x_min":99,"x_max":781,"o":"m 99 989 l 781 989 l 781 821 l 310 821 l 310 588 l 751 588 l 751 418 l 310 418 l 310 168 l 781 168 l 781 0 l 99 0 l 99 989 z "},"É":{"ha":832,"x_min":99,"x_max":781,"o":"m 99 989 l 781 989 l 781 821 l 310 821 l 310 588 l 751 588 l 751 418 l 310 418 l 310 168 l 781 168 l 781 0 l 99 0 l 99 989 m 397 1074 l 540 1292 l 735 1292 l 526 1074 l 397 1074 z "},"Ĕ":{"ha":832,"x_min":99,"x_max":781,"o":"m 99 989 l 781 989 l 781 821 l 310 821 l 310 588 l 751 588 l 751 418 l 310 418 l 310 168 l 781 168 l 781 0 l 99 0 l 99 989 m 463 1086 q 306 1125 371 1086 q 213 1239 240 1164 l 310 1279 q 463 1211 354 1211 q 614 1279 569 1211 l 711 1239 q 618 1125 683 1164 q 463 1086 553 1086 z "},"Ě":{"ha":832,"x_min":99,"x_max":781,"o":"m 99 989 l 781 989 l 781 821 l 310 821 l 310 588 l 751 588 l 751 418 l 310 418 l 310 168 l 781 168 l 781 0 l 99 0 l 99 989 m 707 1292 l 522 1074 l 401 1074 l 217 1292 l 375 1292 l 463 1171 l 549 1292 l 707 1292 z "},"Ȩ":{"ha":832,"x_min":99,"x_max":781,"o":"m 310 821 l 310 588 l 751 588 l 751 418 l 310 418 l 310 168 l 781 168 l 781 0 l 504 0 l 496 -57 q 514 -56 503 -56 q 599 -82 567 -56 q 632 -153 632 -108 q 582 -242 632 -208 q 442 -276 532 -276 q 376 -270 413 -276 q 311 -251 340 -264 l 328 -169 q 438 -189 392 -189 q 501 -153 501 -189 q 490 -133 501 -140 q 456 -125 478 -125 q 406 -135 438 -125 l 378 -106 l 392 0 l 99 0 l 99 989 l 781 989 l 781 821 l 310 821 z "},"Ḝ":{"ha":832,"x_min":99,"x_max":781,"o":"m 463 1086 q 306 1125 371 1086 q 213 1239 240 1164 l 310 1279 q 463 1211 354 1211 q 614 1279 569 1211 l 711 1239 q 618 1125 683 1164 q 463 1086 553 1086 m 310 821 l 310 588 l 751 588 l 751 418 l 310 418 l 310 168 l 781 168 l 781 0 l 504 0 l 496 -57 q 514 -56 503 -56 q 599 -82 567 -56 q 632 -153 632 -108 q 582 -242 632 -208 q 442 -276 532 -276 q 376 -270 413 -276 q 311 -251 340 -264 l 328 -169 q 438 -189 392 -189 q 501 -153 501 -189 q 490 -133 501 -140 q 456 -125 478 -125 q 406 -135 438 -125 l 378 -106 l 392 0 l 99 0 l 99 989 l 781 989 l 781 821 l 310 821 z "},"Ê":{"ha":832,"x_min":99,"x_max":781,"o":"m 99 989 l 781 989 l 781 821 l 310 821 l 310 588 l 751 588 l 751 418 l 310 418 l 310 168 l 781 168 l 781 0 l 99 0 l 99 989 m 217 1074 l 401 1292 l 522 1292 l 707 1074 l 549 1074 l 463 1193 l 375 1074 l 217 1074 z "},"Ế":{"ha":832,"x_min":99,"x_max":868,"o":"m 99 989 l 781 989 l 781 821 l 310 821 l 310 588 l 751 588 l 751 418 l 310 418 l 310 168 l 781 168 l 781 0 l 99 0 l 99 989 m 593 1224 l 694 1421 l 868 1421 l 696 1224 l 593 1224 m 217 1074 l 401 1268 l 522 1268 l 707 1074 l 551 1074 l 463 1172 l 372 1074 l 217 1074 z "},"Ệ":{"ha":832,"x_min":99,"x_max":781,"o":"m 99 989 l 781 989 l 781 821 l 310 821 l 310 588 l 751 588 l 751 418 l 310 418 l 310 168 l 781 168 l 781 0 l 99 0 l 99 989 m 558 -94 l 558 -279 l 365 -279 l 365 -94 l 558 -94 m 217 1074 l 401 1292 l 522 1292 l 707 1074 l 549 1074 l 463 1193 l 375 1074 l 217 1074 z "},"Ề":{"ha":832,"x_min":99,"x_max":781,"o":"m 99 989 l 781 989 l 781 821 l 310 821 l 310 588 l 751 588 l 751 418 l 310 418 l 310 168 l 781 168 l 781 0 l 99 0 l 99 989 m 482 1421 l 657 1421 l 756 1224 l 653 1224 l 482 1421 m 217 1074 l 401 1268 l 522 1268 l 707 1074 l 551 1074 l 463 1172 l 372 1074 l 217 1074 z "},"Ể":{"ha":832,"x_min":99,"x_max":813,"o":"m 99 989 l 781 989 l 781 821 l 310 821 l 310 588 l 751 588 l 751 418 l 310 418 l 310 168 l 781 168 l 781 0 l 99 0 l 99 989 m 696 1225 l 592 1225 l 592 1251 q 610 1291 592 1278 q 658 1315 628 1304 q 683 1329 683 1322 q 639 1349 683 1349 q 557 1333 601 1349 l 531 1404 q 664 1429 593 1429 q 772 1406 732 1429 q 813 1344 813 1382 q 795 1304 813 1318 q 744 1278 778 1290 q 708 1258 719 1267 q 696 1236 696 1250 l 696 1225 m 217 1074 l 401 1268 l 522 1268 l 707 1074 l 551 1074 l 463 1172 l 372 1074 l 217 1074 z "},"Ễ":{"ha":832,"x_min":99,"x_max":781,"o":"m 99 989 l 781 989 l 781 821 l 310 821 l 310 588 l 751 588 l 751 418 l 310 418 l 310 168 l 781 168 l 781 0 l 99 0 l 99 989 m 218 1292 q 263 1397 218 1354 q 369 1439 307 1439 q 417 1433 394 1439 q 476 1414 439 1426 q 518 1399 497 1406 q 556 1393 539 1393 q 617 1435 611 1393 l 706 1435 q 661 1331 706 1374 q 554 1289 617 1289 q 503 1296 528 1289 q 447 1315 479 1303 q 406 1330 426 1324 q 368 1336 385 1336 q 307 1292 313 1336 l 218 1292 m 217 1074 l 401 1268 l 522 1268 l 707 1074 l 551 1074 l 463 1172 l 372 1074 l 217 1074 z "},"Ȅ":{"ha":832,"x_min":99,"x_max":781,"o":"m 99 989 l 781 989 l 781 821 l 310 821 l 310 588 l 751 588 l 751 418 l 310 418 l 310 168 l 781 168 l 781 0 l 99 0 l 99 989 m 172 1292 l 314 1292 l 417 1074 l 313 1074 l 172 1292 m 368 1292 l 508 1292 l 611 1074 l 507 1074 l 368 1292 z "},"Ë":{"ha":832,"x_min":99,"x_max":781,"o":"m 99 989 l 781 989 l 781 821 l 310 821 l 310 588 l 751 588 l 751 418 l 310 418 l 310 168 l 781 168 l 781 0 l 99 0 l 99 989 m 425 1275 l 425 1092 l 232 1092 l 232 1275 l 425 1275 m 692 1275 l 692 1092 l 499 1092 l 499 1275 l 692 1275 z "},"Ė":{"ha":832,"x_min":99,"x_max":781,"o":"m 99 989 l 781 989 l 781 821 l 310 821 l 310 588 l 751 588 l 751 418 l 310 418 l 310 168 l 781 168 l 781 0 l 99 0 l 99 989 m 574 1282 l 574 1085 l 350 1085 l 350 1282 l 574 1282 z "},"Ẹ":{"ha":832,"x_min":99,"x_max":781,"o":"m 99 989 l 781 989 l 781 821 l 310 821 l 310 588 l 751 588 l 751 418 l 310 418 l 310 168 l 781 168 l 781 0 l 99 0 l 99 989 m 558 -94 l 558 -279 l 365 -279 l 365 -94 l 558 -94 z "},"È":{"ha":832,"x_min":99,"x_max":781,"o":"m 99 989 l 781 989 l 781 821 l 310 821 l 310 588 l 751 588 l 751 418 l 310 418 l 310 168 l 781 168 l 781 0 l 99 0 l 99 989 m 189 1292 l 383 1292 l 526 1074 l 397 1074 l 189 1292 z "},"Ẻ":{"ha":832,"x_min":99,"x_max":781,"o":"m 99 989 l 781 989 l 781 821 l 310 821 l 310 588 l 751 588 l 751 418 l 310 418 l 310 168 l 781 168 l 781 0 l 99 0 l 99 989 m 514 1074 l 410 1074 l 410 1104 q 426 1142 410 1129 q 471 1167 442 1154 q 483 1173 474 1168 q 497 1182 493 1178 q 501 1190 501 1186 q 454 1215 501 1215 q 375 1200 419 1215 l 349 1272 q 481 1297 411 1297 q 589 1272 547 1297 q 631 1208 631 1246 q 613 1166 631 1182 q 563 1136 594 1150 q 526 1115 538 1124 q 514 1092 514 1106 l 514 1074 z "},"Ȇ":{"ha":832,"x_min":99,"x_max":781,"o":"m 99 989 l 781 989 l 781 821 l 310 821 l 310 588 l 751 588 l 751 418 l 310 418 l 310 168 l 781 168 l 781 0 l 99 0 l 99 989 m 463 1279 q 618 1241 553 1279 q 711 1128 683 1203 l 614 1086 q 463 1156 569 1156 q 310 1086 354 1156 l 213 1128 q 306 1241 240 1203 q 463 1279 371 1279 z "},"Ē":{"ha":832,"x_min":99,"x_max":781,"o":"m 99 989 l 781 989 l 781 821 l 310 821 l 310 588 l 751 588 l 751 418 l 310 418 l 310 168 l 781 168 l 781 0 l 99 0 l 99 989 m 243 1247 l 681 1247 l 681 1117 l 243 1117 l 243 1247 z "},"Ḗ":{"ha":832,"x_min":99,"x_max":781,"o":"m 99 989 l 781 989 l 781 821 l 310 821 l 310 588 l 751 588 l 751 418 l 310 418 l 310 168 l 781 168 l 781 0 l 99 0 l 99 989 m 243 1247 l 681 1247 l 681 1117 l 243 1117 l 243 1247 m 397 1299 l 540 1517 l 735 1517 l 526 1299 l 397 1299 z "},"Ḕ":{"ha":832,"x_min":99,"x_max":781,"o":"m 99 989 l 781 989 l 781 821 l 310 821 l 310 588 l 751 588 l 751 418 l 310 418 l 310 168 l 781 168 l 781 0 l 99 0 l 99 989 m 243 1247 l 681 1247 l 681 1117 l 243 1117 l 243 1247 m 189 1517 l 383 1517 l 526 1299 l 397 1299 l 189 1517 z "},"Ę":{"ha":832,"x_min":99,"x_max":835,"o":"m 835 -247 q 694 -276 768 -276 q 566 -233 615 -276 q 517 -122 517 -190 q 569 0 517 -49 l 99 0 l 99 989 l 781 989 l 781 821 l 310 821 l 310 588 l 751 588 l 751 418 l 310 418 l 310 168 l 781 168 l 781 0 l 750 0 q 678 -25 704 0 q 651 -92 651 -50 q 733 -167 651 -167 q 811 -149 771 -167 l 835 -247 z "},"Ẽ":{"ha":832,"x_min":99,"x_max":781,"o":"m 99 989 l 781 989 l 781 821 l 310 821 l 310 588 l 751 588 l 751 418 l 310 418 l 310 168 l 781 168 l 781 0 l 99 0 l 99 989 m 218 1083 q 260 1236 218 1185 q 369 1288 303 1288 q 422 1276 396 1288 q 476 1246 447 1265 q 523 1222 507 1229 q 556 1214 539 1214 q 598 1233 582 1214 q 617 1283 614 1251 l 706 1283 q 663 1131 706 1182 q 554 1079 621 1079 q 502 1090 528 1079 q 447 1121 476 1101 q 401 1145 417 1138 q 368 1153 385 1153 q 326 1134 342 1153 q 307 1083 310 1115 l 218 1083 z "},"F":{"ha":803,"x_min":99,"x_max":765,"o":"m 99 989 l 765 989 l 765 818 l 313 818 l 313 589 l 738 589 l 738 417 l 313 417 l 313 0 l 99 0 l 99 989 z "},"G":{"ha":1035,"x_min":69,"x_max":947,"o":"m 947 546 l 947 61 q 778 7 875 26 q 581 -12 682 -12 q 308 49 424 -12 q 131 224 193 110 q 69 496 69 338 q 131 764 69 650 q 306 940 193 878 q 571 1001 419 1001 q 770 972 678 1001 q 922 890 863 943 l 853 735 q 718 807 783 785 q 576 829 653 829 q 290 496 290 829 q 589 156 290 156 q 753 176 671 156 l 753 394 l 558 394 l 558 546 l 947 546 z "},"Ğ":{"ha":1035,"x_min":69,"x_max":947,"o":"m 947 546 l 947 61 q 778 7 875 26 q 581 -12 682 -12 q 308 49 424 -12 q 131 224 193 110 q 69 496 69 338 q 131 764 69 650 q 306 940 193 878 q 571 1001 419 1001 q 770 972 678 1001 q 922 890 863 943 l 853 735 q 718 807 783 785 q 576 829 653 829 q 290 496 290 829 q 589 156 290 156 q 753 176 671 156 l 753 394 l 558 394 l 558 546 l 947 546 m 571 1086 q 414 1125 479 1086 q 321 1239 349 1164 l 418 1279 q 571 1211 463 1211 q 722 1279 678 1211 l 819 1239 q 726 1125 792 1164 q 571 1086 661 1086 z "},"Ǧ":{"ha":1035,"x_min":69,"x_max":947,"o":"m 947 546 l 947 61 q 778 7 875 26 q 581 -12 682 -12 q 308 49 424 -12 q 131 224 193 110 q 69 496 69 338 q 131 764 69 650 q 306 940 193 878 q 571 1001 419 1001 q 770 972 678 1001 q 922 890 863 943 l 853 735 q 718 807 783 785 q 576 829 653 829 q 290 496 290 829 q 589 156 290 156 q 753 176 671 156 l 753 394 l 558 394 l 558 546 l 947 546 m 815 1292 l 631 1074 l 510 1074 l 325 1292 l 483 1292 l 571 1171 l 657 1292 l 815 1292 z "},"Ĝ":{"ha":1035,"x_min":69,"x_max":947,"o":"m 947 546 l 947 61 q 778 7 875 26 q 581 -12 682 -12 q 308 49 424 -12 q 131 224 193 110 q 69 496 69 338 q 131 764 69 650 q 306 940 193 878 q 571 1001 419 1001 q 770 972 678 1001 q 922 890 863 943 l 853 735 q 718 807 783 785 q 576 829 653 829 q 290 496 290 829 q 589 156 290 156 q 753 176 671 156 l 753 394 l 558 394 l 558 546 l 947 546 m 325 1074 l 510 1292 l 631 1292 l 815 1074 l 657 1074 l 571 1193 l 483 1074 l 325 1074 z "},"Ģ":{"ha":1035,"x_min":69,"x_max":947,"o":"m 947 546 l 947 61 q 778 7 875 26 q 581 -12 682 -12 q 308 49 424 -12 q 131 224 193 110 q 69 496 69 338 q 131 764 69 650 q 306 940 193 878 q 571 1001 419 1001 q 770 972 678 1001 q 922 890 863 943 l 853 735 q 718 807 783 785 q 576 829 653 829 q 290 496 290 829 q 589 156 290 156 q 753 176 671 156 l 753 394 l 558 394 l 558 546 l 947 546 m 683 -93 l 683 -182 q 665 -296 683 -247 q 600 -386 646 -344 l 524 -333 q 572 -251 564 -296 l 475 -251 l 475 -93 l 683 -93 z "},"Ġ":{"ha":1035,"x_min":69,"x_max":947,"o":"m 947 546 l 947 61 q 778 7 875 26 q 581 -12 682 -12 q 308 49 424 -12 q 131 224 193 110 q 69 496 69 338 q 131 764 69 650 q 306 940 193 878 q 571 1001 419 1001 q 770 972 678 1001 q 922 890 863 943 l 853 735 q 718 807 783 785 q 576 829 653 829 q 290 496 290 829 q 589 156 290 156 q 753 176 671 156 l 753 394 l 558 394 l 558 546 l 947 546 m 682 1282 l 682 1085 l 458 1085 l 458 1282 l 682 1282 z "},"Ḡ":{"ha":1035,"x_min":69,"x_max":947,"o":"m 947 546 l 947 61 q 778 7 875 26 q 581 -12 682 -12 q 308 49 424 -12 q 131 224 193 110 q 69 496 69 338 q 131 764 69 650 q 306 940 193 878 q 571 1001 419 1001 q 770 972 678 1001 q 922 890 863 943 l 853 735 q 718 807 783 785 q 576 829 653 829 q 290 496 290 829 q 589 156 290 156 q 753 176 671 156 l 753 394 l 558 394 l 558 546 l 947 546 m 351 1247 l 789 1247 l 789 1117 l 351 1117 l 351 1247 z "},"H":{"ha":1082,"x_min":99,"x_max":982,"o":"m 982 989 l 982 0 l 769 0 l 769 415 l 311 415 l 311 0 l 99 0 l 99 989 l 311 989 l 311 589 l 769 589 l 769 989 l 982 989 z "},"Ħ":{"ha":1164,"x_min":19,"x_max":1144,"o":"m 1144 713 l 1024 713 l 1024 0 l 811 0 l 811 415 l 354 415 l 354 0 l 140 0 l 140 713 l 19 713 l 19 872 l 140 872 l 140 989 l 354 989 l 354 872 l 811 872 l 811 989 l 1024 989 l 1024 872 l 1144 872 l 1144 713 m 811 713 l 354 713 l 354 589 l 811 589 l 811 713 z "},"Ḫ":{"ha":1082,"x_min":99,"x_max":982,"o":"m 982 989 l 982 0 l 769 0 l 769 415 l 311 415 l 311 0 l 99 0 l 99 989 l 311 989 l 311 589 l 769 589 l 769 989 l 982 989 m 540 -318 q 376 -267 449 -318 q 281 -115 304 -215 l 376 -75 q 540 -186 438 -186 q 703 -75 642 -186 l 799 -115 q 703 -266 775 -214 q 540 -318 632 -318 z "},"Ĥ":{"ha":1082,"x_min":99,"x_max":982,"o":"m 982 989 l 982 0 l 769 0 l 769 415 l 311 415 l 311 0 l 99 0 l 99 989 l 311 989 l 311 589 l 769 589 l 769 989 l 982 989 m 294 1074 l 479 1292 l 600 1292 l 785 1074 l 626 1074 l 540 1193 l 453 1074 l 294 1074 z "},"Ḥ":{"ha":1082,"x_min":99,"x_max":982,"o":"m 982 989 l 982 0 l 769 0 l 769 415 l 311 415 l 311 0 l 99 0 l 99 989 l 311 989 l 311 589 l 769 589 l 769 989 l 982 989 m 636 -94 l 636 -279 l 443 -279 l 443 -94 l 636 -94 z "},"I":{"ha":415,"x_min":99,"x_max":315,"o":"m 99 989 l 315 989 l 315 0 l 99 0 l 99 989 z "},"Í":{"ha":415,"x_min":99,"x_max":478,"o":"m 99 989 l 315 989 l 315 0 l 99 0 l 99 989 m 140 1074 l 283 1292 l 478 1292 l 269 1074 l 140 1074 z "},"Ĭ":{"ha":415,"x_min":-44,"x_max":454,"o":"m 99 989 l 315 989 l 315 0 l 99 0 l 99 989 m 206 1086 q 49 1125 114 1086 q -44 1239 -17 1164 l 53 1279 q 206 1211 97 1211 q 357 1279 313 1211 l 454 1239 q 361 1125 426 1164 q 206 1086 296 1086 z "},"Î":{"ha":415,"x_min":-40,"x_max":450,"o":"m 99 989 l 315 989 l 315 0 l 99 0 l 99 989 m -40 1074 l 144 1292 l 265 1292 l 450 1074 l 292 1074 l 206 1193 l 118 1074 l -40 1074 z "},"Ȉ":{"ha":415,"x_min":-85,"x_max":354,"o":"m 99 989 l 315 989 l 315 0 l 99 0 l 99 989 m -85 1292 l 57 1292 l 160 1074 l 56 1074 l -85 1292 m 111 1292 l 251 1292 l 354 1074 l 250 1074 l 111 1292 z "},"Ï":{"ha":415,"x_min":-25,"x_max":435,"o":"m 99 989 l 315 989 l 315 0 l 99 0 l 99 989 m 168 1275 l 168 1092 l -25 1092 l -25 1275 l 168 1275 m 435 1275 l 435 1092 l 242 1092 l 242 1275 l 435 1275 z "},"Ḯ":{"ha":415,"x_min":-25,"x_max":478,"o":"m 99 989 l 315 989 l 315 0 l 99 0 l 99 989 m 168 1275 l 168 1092 l -25 1092 l -25 1275 l 168 1275 m 435 1275 l 435 1092 l 242 1092 l 242 1275 l 435 1275 m 140 1299 l 283 1517 l 478 1517 l 269 1299 l 140 1299 z "},"İ":{"ha":415,"x_min":93,"x_max":317,"o":"m 99 989 l 315 989 l 315 0 l 99 0 l 99 989 m 317 1282 l 317 1085 l 93 1085 l 93 1282 l 317 1282 z "},"Ị":{"ha":415,"x_min":99,"x_max":315,"o":"m 99 989 l 315 989 l 315 0 l 99 0 l 99 989 m 301 -94 l 301 -279 l 108 -279 l 108 -94 l 301 -94 z "},"Ì":{"ha":415,"x_min":-68,"x_max":315,"o":"m 99 989 l 315 989 l 315 0 l 99 0 l 99 989 m -68 1292 l 126 1292 l 269 1074 l 140 1074 l -68 1292 z "},"Ỉ":{"ha":415,"x_min":92,"x_max":374,"o":"m 99 989 l 315 989 l 315 0 l 99 0 l 99 989 m 257 1074 l 153 1074 l 153 1104 q 169 1142 153 1129 q 214 1167 185 1154 q 226 1173 217 1168 q 240 1182 236 1178 q 244 1190 244 1186 q 197 1215 244 1215 q 118 1200 163 1215 l 92 1272 q 224 1297 154 1297 q 332 1272 290 1297 q 374 1208 374 1246 q 356 1166 374 1182 q 306 1136 338 1150 q 269 1115 281 1124 q 257 1092 257 1106 l 257 1074 z "},"Ȋ":{"ha":415,"x_min":-44,"x_max":454,"o":"m 99 989 l 315 989 l 315 0 l 99 0 l 99 989 m 206 1279 q 361 1241 296 1279 q 454 1128 426 1203 l 357 1086 q 206 1156 313 1156 q 53 1086 97 1156 l -44 1128 q 49 1241 -17 1203 q 206 1279 114 1279 z "},"Ī":{"ha":415,"x_min":-14,"x_max":424,"o":"m 99 989 l 315 989 l 315 0 l 99 0 l 99 989 m -14 1247 l 424 1247 l 424 1117 l -14 1117 l -14 1247 z "},"Į":{"ha":415,"x_min":43,"x_max":363,"o":"m 363 -247 q 222 -276 296 -276 q 94 -233 144 -276 q 43 -119 43 -190 q 99 4 43 -47 l 99 989 l 315 989 l 315 0 l 296 0 q 210 -26 243 0 q 178 -92 178 -51 q 200 -148 178 -129 q 263 -167 222 -167 q 338 -149 300 -167 l 363 -247 z "},"Ĩ":{"ha":415,"x_min":-39,"x_max":449,"o":"m 99 989 l 315 989 l 315 0 l 99 0 l 99 989 m -39 1083 q 3 1236 -39 1185 q 113 1288 46 1288 q 165 1276 139 1288 q 219 1246 190 1265 q 266 1222 250 1229 q 299 1214 282 1214 q 341 1233 325 1214 q 360 1283 357 1251 l 449 1283 q 406 1131 449 1182 q 297 1079 364 1079 q 245 1090 271 1079 q 190 1121 219 1101 q 144 1145 160 1138 q 111 1153 128 1153 q 69 1134 85 1153 q 50 1083 53 1115 l -39 1083 z "},"J":{"ha":529,"x_min":0,"x_max":429,"o":"m 0 -74 q 99 -82 58 -82 q 189 -52 165 -82 q 213 56 213 -22 l 213 989 l 429 989 l 429 58 q 364 -184 429 -107 q 142 -261 299 -261 q 0 -249 79 -261 l 0 -74 z "},"Ĵ":{"ha":529,"x_min":0,"x_max":564,"o":"m 0 -74 q 99 -82 58 -82 q 189 -52 165 -82 q 213 56 213 -22 l 213 989 l 429 989 l 429 58 q 364 -184 429 -107 q 142 -261 299 -261 q 0 -249 79 -261 l 0 -74 m 74 1074 l 258 1292 l 379 1292 l 564 1074 l 406 1074 l 319 1193 l 232 1074 l 74 1074 z "},"K":{"ha":951,"x_min":99,"x_max":1007,"o":"m 746 0 l 315 457 l 315 0 l 99 0 l 99 989 l 315 989 l 315 554 l 731 989 l 989 989 l 529 517 l 1007 0 l 746 0 z "},"Ķ":{"ha":951,"x_min":99,"x_max":1007,"o":"m 746 0 l 315 457 l 315 0 l 99 0 l 99 989 l 315 989 l 315 554 l 731 989 l 989 989 l 529 517 l 1007 0 l 746 0 m 581 -93 l 581 -182 q 562 -296 581 -247 q 497 -386 543 -344 l 421 -333 q 469 -251 461 -296 l 372 -251 l 372 -93 l 581 -93 z "},"L":{"ha":790,"x_min":99,"x_max":757,"o":"m 99 989 l 315 989 l 315 176 l 757 176 l 757 0 l 99 0 l 99 989 z "},"Ǉ":{"ha":1250,"x_min":99,"x_max":1151,"o":"m 99 989 l 315 989 l 315 176 l 715 176 l 715 0 l 99 0 l 99 989 m 721 -74 q 821 -82 782 -82 q 910 -53 888 -82 q 933 56 933 -24 l 933 989 l 1151 989 l 1151 58 q 1086 -184 1151 -107 q 864 -261 1021 -261 q 721 -249 800 -261 l 721 -74 z "},"Ĺ":{"ha":790,"x_min":99,"x_max":757,"o":"m 99 989 l 315 989 l 315 176 l 757 176 l 757 0 l 99 0 l 99 989 m 140 1074 l 283 1292 l 478 1292 l 269 1074 l 140 1074 z "},"Ľ":{"ha":790,"x_min":99,"x_max":757,"o":"m 99 989 l 315 989 l 315 176 l 757 176 l 757 0 l 99 0 l 99 989 m 439 717 l 439 989 l 574 989 l 538 717 l 439 717 z "},"Ļ":{"ha":790,"x_min":99,"x_max":757,"o":"m 99 989 l 315 989 l 315 176 l 757 176 l 757 0 l 99 0 l 99 989 m 542 -93 l 542 -182 q 523 -296 542 -247 q 458 -386 504 -344 l 382 -333 q 431 -251 422 -296 l 333 -251 l 333 -93 l 542 -93 z "},"Ŀ":{"ha":790,"x_min":99,"x_max":757,"o":"m 99 989 l 315 989 l 315 176 l 757 176 l 757 0 l 99 0 l 99 989 m 658 593 l 658 397 l 435 397 l 435 593 l 658 593 z "},"Ḷ":{"ha":790,"x_min":99,"x_max":757,"o":"m 99 989 l 315 989 l 315 176 l 757 176 l 757 0 l 99 0 l 99 989 m 535 -94 l 535 -279 l 342 -279 l 342 -94 l 535 -94 z "},"ǈ":{"ha":1171,"x_min":99,"x_max":1090,"o":"m 99 989 l 315 989 l 315 176 l 757 176 l 757 0 l 99 0 l 99 989 m 700 -129 q 768 -139 740 -139 q 845 -111 815 -139 q 875 -25 875 -83 l 875 704 l 1085 704 l 1085 -31 q 1017 -237 1085 -164 q 819 -311 949 -311 q 700 -293 747 -311 l 700 -129 m 1090 1035 l 1090 838 l 867 838 l 867 1035 l 1090 1035 z "},"Ḻ":{"ha":790,"x_min":99,"x_max":757,"o":"m 99 989 l 315 989 l 315 176 l 757 176 l 757 0 l 99 0 l 99 989 m 219 -126 l 657 -126 l 657 -249 l 219 -249 l 219 -126 z "},"Ł":{"ha":833,"x_min":14,"x_max":800,"o":"m 800 176 l 800 0 l 140 0 l 140 343 l 14 271 l 14 456 l 140 529 l 140 989 l 358 989 l 358 656 l 614 803 l 614 617 l 358 469 l 358 176 l 800 176 z "},"M":{"ha":1182,"x_min":101,"x_max":1081,"o":"m 1081 989 l 1081 0 l 889 0 l 889 540 l 661 0 l 521 0 l 292 533 l 292 0 l 101 0 l 101 989 l 274 989 l 593 260 l 910 989 l 1081 989 z "},"Ṃ":{"ha":1182,"x_min":101,"x_max":1081,"o":"m 1081 989 l 1081 0 l 889 0 l 889 540 l 661 0 l 521 0 l 292 533 l 292 0 l 101 0 l 101 989 l 274 989 l 593 260 l 910 989 l 1081 989 m 686 -94 l 686 -279 l 493 -279 l 493 -94 l 686 -94 z "},"N":{"ha":1056,"x_min":99,"x_max":956,"o":"m 956 989 l 956 0 l 794 0 l 301 631 l 301 0 l 99 0 l 99 989 l 258 989 l 751 360 l 751 989 l 956 989 z "},"Ǌ":{"ha":1585,"x_min":99,"x_max":1485,"o":"m 956 989 l 956 0 l 794 0 l 301 631 l 301 0 l 99 0 l 99 989 l 258 989 l 751 360 l 751 989 l 956 989 m 1056 -74 q 1154 -82 1114 -82 q 1244 -52 1221 -82 q 1268 56 1268 -22 l 1268 989 l 1485 989 l 1485 58 q 1419 -184 1485 -107 q 1197 -261 1354 -261 q 1056 -249 1135 -261 l 1056 -74 z "},"Ń":{"ha":1056,"x_min":99,"x_max":956,"o":"m 956 989 l 956 0 l 794 0 l 301 631 l 301 0 l 99 0 l 99 989 l 258 989 l 751 360 l 751 989 l 956 989 m 461 1074 l 604 1292 l 799 1292 l 590 1074 l 461 1074 z "},"Ň":{"ha":1056,"x_min":99,"x_max":956,"o":"m 956 989 l 956 0 l 794 0 l 301 631 l 301 0 l 99 0 l 99 989 l 258 989 l 751 360 l 751 989 l 956 989 m 771 1292 l 586 1074 l 465 1074 l 281 1292 l 439 1292 l 526 1171 l 613 1292 l 771 1292 z "},"Ņ":{"ha":1056,"x_min":99,"x_max":956,"o":"m 956 989 l 956 0 l 794 0 l 301 631 l 301 0 l 99 0 l 99 989 l 258 989 l 751 360 l 751 989 l 956 989 m 631 -93 l 631 -182 q 612 -296 631 -247 q 547 -386 593 -344 l 471 -333 q 519 -251 511 -296 l 422 -251 l 422 -93 l 631 -93 z "},"Ṅ":{"ha":1056,"x_min":99,"x_max":956,"o":"m 956 989 l 956 0 l 794 0 l 301 631 l 301 0 l 99 0 l 99 989 l 258 989 l 751 360 l 751 989 l 956 989 m 638 1282 l 638 1085 l 414 1085 l 414 1282 l 638 1282 z "},"Ṇ":{"ha":1056,"x_min":99,"x_max":956,"o":"m 956 989 l 956 0 l 794 0 l 301 631 l 301 0 l 99 0 l 99 989 l 258 989 l 751 360 l 751 989 l 956 989 m 624 -94 l 624 -279 l 431 -279 l 431 -94 l 624 -94 z "},"Ŋ":{"ha":1056,"x_min":99,"x_max":956,"o":"m 956 989 l 956 39 q 663 -257 956 -240 l 535 -264 l 521 -100 l 626 -93 q 718 -58 686 -90 q 750 31 750 -25 l 750 58 l 301 631 l 301 0 l 99 0 l 99 989 l 258 989 l 751 360 l 751 989 l 956 989 z "},"ǋ":{"ha":1436,"x_min":99,"x_max":1356,"o":"m 956 989 l 956 0 l 794 0 l 301 631 l 301 0 l 99 0 l 99 989 l 258 989 l 751 360 l 751 989 l 956 989 m 965 -129 q 1033 -139 1006 -139 q 1110 -111 1081 -139 q 1140 -25 1140 -83 l 1140 704 l 1350 704 l 1350 -31 q 1282 -237 1350 -164 q 1085 -311 1214 -311 q 965 -293 1013 -311 l 965 -129 m 1356 1035 l 1356 838 l 1132 838 l 1132 1035 l 1356 1035 z "},"Ṉ":{"ha":1056,"x_min":99,"x_max":956,"o":"m 956 989 l 956 0 l 794 0 l 301 631 l 301 0 l 99 0 l 99 989 l 258 989 l 751 360 l 751 989 l 956 989 m 308 -126 l 746 -126 l 746 -249 l 308 -249 l 308 -126 z "},"Ñ":{"ha":1056,"x_min":99,"x_max":956,"o":"m 956 989 l 956 0 l 794 0 l 301 631 l 301 0 l 99 0 l 99 989 l 258 989 l 751 360 l 751 989 l 956 989 m 282 1083 q 324 1236 282 1185 q 433 1288 367 1288 q 485 1276 460 1288 q 540 1246 511 1265 q 587 1222 571 1229 q 619 1214 603 1214 q 662 1233 646 1214 q 681 1283 678 1251 l 769 1283 q 727 1131 769 1182 q 618 1079 685 1079 q 566 1090 592 1079 q 511 1121 540 1101 q 465 1145 481 1138 q 432 1153 449 1153 q 390 1134 406 1153 q 371 1083 374 1115 l 282 1083 z "},"O":{"ha":1104,"x_min":69,"x_max":1033,"o":"m 553 -12 q 297 49 406 -12 q 128 226 188 111 q 69 496 69 342 q 128 764 69 650 q 297 940 188 878 q 553 1001 406 1001 q 808 940 700 1001 q 975 764 917 878 q 1033 496 1033 650 q 975 226 1033 342 q 808 49 917 111 q 553 -12 700 -12 m 553 157 q 748 244 678 157 q 818 496 818 332 q 748 746 818 660 q 553 832 678 832 q 358 746 428 832 q 288 496 288 660 q 358 244 288 331 q 553 157 428 157 z "},"Ó":{"ha":1104,"x_min":69,"x_max":1033,"o":"m 553 -12 q 297 49 406 -12 q 128 226 188 111 q 69 496 69 342 q 128 764 69 650 q 297 940 188 878 q 553 1001 406 1001 q 808 940 700 1001 q 975 764 917 878 q 1033 496 1033 650 q 975 226 1033 342 q 808 49 917 111 q 553 -12 700 -12 m 553 157 q 748 244 678 157 q 818 496 818 332 q 748 746 818 660 q 553 832 678 832 q 358 746 428 832 q 288 496 288 660 q 358 244 288 331 q 553 157 428 157 m 486 1074 l 629 1292 l 824 1292 l 615 1074 l 486 1074 z "},"Ŏ":{"ha":1104,"x_min":69,"x_max":1033,"o":"m 553 -12 q 297 49 406 -12 q 128 226 188 111 q 69 496 69 342 q 128 764 69 650 q 297 940 188 878 q 553 1001 406 1001 q 808 940 700 1001 q 975 764 917 878 q 1033 496 1033 650 q 975 226 1033 342 q 808 49 917 111 q 553 -12 700 -12 m 553 157 q 748 244 678 157 q 818 496 818 332 q 748 746 818 660 q 553 832 678 832 q 358 746 428 832 q 288 496 288 660 q 358 244 288 331 q 553 157 428 157 m 551 1086 q 394 1125 460 1086 q 301 1239 329 1164 l 399 1279 q 551 1211 443 1211 q 703 1279 658 1211 l 800 1239 q 707 1125 772 1164 q 551 1086 642 1086 z "},"Ô":{"ha":1104,"x_min":69,"x_max":1033,"o":"m 553 -12 q 297 49 406 -12 q 128 226 188 111 q 69 496 69 342 q 128 764 69 650 q 297 940 188 878 q 553 1001 406 1001 q 808 940 700 1001 q 975 764 917 878 q 1033 496 1033 650 q 975 226 1033 342 q 808 49 917 111 q 553 -12 700 -12 m 553 157 q 748 244 678 157 q 818 496 818 332 q 748 746 818 660 q 553 832 678 832 q 358 746 428 832 q 288 496 288 660 q 358 244 288 331 q 553 157 428 157 m 306 1074 l 490 1292 l 611 1292 l 796 1074 l 638 1074 l 551 1193 l 464 1074 l 306 1074 z "},"Ố":{"ha":1104,"x_min":69,"x_max":1033,"o":"m 553 -12 q 297 49 406 -12 q 128 226 188 111 q 69 496 69 342 q 128 764 69 650 q 297 940 188 878 q 553 1001 406 1001 q 808 940 700 1001 q 975 764 917 878 q 1033 496 1033 650 q 975 226 1033 342 q 808 49 917 111 q 553 -12 700 -12 m 553 157 q 748 244 678 157 q 818 496 818 332 q 748 746 818 660 q 553 832 678 832 q 358 746 428 832 q 288 496 288 660 q 358 244 288 331 q 553 157 428 157 m 682 1224 l 783 1421 l 957 1421 l 785 1224 l 682 1224 m 306 1074 l 490 1268 l 611 1268 l 796 1074 l 640 1074 l 551 1172 l 461 1074 l 306 1074 z "},"Ộ":{"ha":1104,"x_min":69,"x_max":1033,"o":"m 553 -12 q 297 49 406 -12 q 128 226 188 111 q 69 496 69 342 q 128 764 69 650 q 297 940 188 878 q 553 1001 406 1001 q 808 940 700 1001 q 975 764 917 878 q 1033 496 1033 650 q 975 226 1033 342 q 808 49 917 111 q 553 -12 700 -12 m 553 157 q 748 244 678 157 q 818 496 818 332 q 748 746 818 660 q 553 832 678 832 q 358 746 428 832 q 288 496 288 660 q 358 244 288 331 q 553 157 428 157 m 649 -94 l 649 -279 l 456 -279 l 456 -94 l 649 -94 m 306 1074 l 490 1292 l 611 1292 l 796 1074 l 638 1074 l 551 1193 l 464 1074 l 306 1074 z "},"Ồ":{"ha":1104,"x_min":69,"x_max":1033,"o":"m 553 -12 q 297 49 406 -12 q 128 226 188 111 q 69 496 69 342 q 128 764 69 650 q 297 940 188 878 q 553 1001 406 1001 q 808 940 700 1001 q 975 764 917 878 q 1033 496 1033 650 q 975 226 1033 342 q 808 49 917 111 q 553 -12 700 -12 m 553 157 q 748 244 678 157 q 818 496 818 332 q 748 746 818 660 q 553 832 678 832 q 358 746 428 832 q 288 496 288 660 q 358 244 288 331 q 553 157 428 157 m 571 1421 l 746 1421 l 844 1224 l 742 1224 l 571 1421 m 306 1074 l 490 1268 l 611 1268 l 796 1074 l 640 1074 l 551 1172 l 461 1074 l 306 1074 z "},"Ổ":{"ha":1104,"x_min":69,"x_max":1033,"o":"m 553 -12 q 297 49 406 -12 q 128 226 188 111 q 69 496 69 342 q 128 764 69 650 q 297 940 188 878 q 553 1001 406 1001 q 808 940 700 1001 q 975 764 917 878 q 1033 496 1033 650 q 975 226 1033 342 q 808 49 917 111 q 553 -12 700 -12 m 553 157 q 748 244 678 157 q 818 496 818 332 q 748 746 818 660 q 553 832 678 832 q 358 746 428 832 q 288 496 288 660 q 358 244 288 331 q 553 157 428 157 m 785 1225 l 681 1225 l 681 1251 q 699 1291 681 1278 q 747 1315 717 1304 q 772 1329 772 1322 q 728 1349 772 1349 q 646 1333 690 1349 l 619 1404 q 753 1429 682 1429 q 861 1406 821 1429 q 901 1344 901 1382 q 884 1304 901 1318 q 833 1278 867 1290 q 797 1258 808 1267 q 785 1236 785 1250 l 785 1225 m 306 1074 l 490 1268 l 611 1268 l 796 1074 l 640 1074 l 551 1172 l 461 1074 l 306 1074 z "},"Ỗ":{"ha":1104,"x_min":69,"x_max":1033,"o":"m 553 -12 q 297 49 406 -12 q 128 226 188 111 q 69 496 69 342 q 128 764 69 650 q 297 940 188 878 q 553 1001 406 1001 q 808 940 700 1001 q 975 764 917 878 q 1033 496 1033 650 q 975 226 1033 342 q 808 49 917 111 q 553 -12 700 -12 m 553 157 q 748 244 678 157 q 818 496 818 332 q 748 746 818 660 q 553 832 678 832 q 358 746 428 832 q 288 496 288 660 q 358 244 288 331 q 553 157 428 157 m 307 1292 q 351 1397 307 1354 q 458 1439 396 1439 q 506 1433 483 1439 q 565 1414 528 1426 q 607 1399 586 1406 q 644 1393 628 1393 q 706 1435 700 1393 l 794 1435 q 750 1331 794 1374 q 643 1289 706 1289 q 592 1296 617 1289 q 536 1315 568 1303 q 494 1330 515 1324 q 457 1336 474 1336 q 396 1292 401 1336 l 307 1292 m 306 1074 l 490 1268 l 611 1268 l 796 1074 l 640 1074 l 551 1172 l 461 1074 l 306 1074 z "},"Ȍ":{"ha":1104,"x_min":69,"x_max":1033,"o":"m 553 -12 q 297 49 406 -12 q 128 226 188 111 q 69 496 69 342 q 128 764 69 650 q 297 940 188 878 q 553 1001 406 1001 q 808 940 700 1001 q 975 764 917 878 q 1033 496 1033 650 q 975 226 1033 342 q 808 49 917 111 q 553 -12 700 -12 m 553 157 q 748 244 678 157 q 818 496 818 332 q 748 746 818 660 q 553 832 678 832 q 358 746 428 832 q 288 496 288 660 q 358 244 288 331 q 553 157 428 157 m 261 1292 l 403 1292 l 506 1074 l 401 1074 l 261 1292 m 457 1292 l 597 1292 l 700 1074 l 596 1074 l 457 1292 z "},"Ö":{"ha":1104,"x_min":69,"x_max":1033,"o":"m 553 -12 q 297 49 406 -12 q 128 226 188 111 q 69 496 69 342 q 128 764 69 650 q 297 940 188 878 q 553 1001 406 1001 q 808 940 700 1001 q 975 764 917 878 q 1033 496 1033 650 q 975 226 1033 342 q 808 49 917 111 q 553 -12 700 -12 m 553 157 q 748 244 678 157 q 818 496 818 332 q 748 746 818 660 q 553 832 678 832 q 358 746 428 832 q 288 496 288 660 q 358 244 288 331 q 553 157 428 157 m 514 1275 l 514 1092 l 321 1092 l 321 1275 l 514 1275 m 781 1275 l 781 1092 l 588 1092 l 588 1275 l 781 1275 z "},"Ȫ":{"ha":1104,"x_min":69,"x_max":1033,"o":"m 553 -12 q 297 49 406 -12 q 128 226 188 111 q 69 496 69 342 q 128 764 69 650 q 297 940 188 878 q 553 1001 406 1001 q 808 940 700 1001 q 975 764 917 878 q 1033 496 1033 650 q 975 226 1033 342 q 808 49 917 111 q 553 -12 700 -12 m 553 157 q 748 244 678 157 q 818 496 818 332 q 748 746 818 660 q 553 832 678 832 q 358 746 428 832 q 288 496 288 660 q 358 244 288 331 q 553 157 428 157 m 514 1275 l 514 1092 l 321 1092 l 321 1275 l 514 1275 m 781 1275 l 781 1092 l 588 1092 l 588 1275 l 781 1275 m 332 1472 l 769 1472 l 769 1342 l 332 1342 l 332 1472 z "},"Ȱ":{"ha":1104,"x_min":69,"x_max":1033,"o":"m 553 -12 q 297 49 406 -12 q 128 226 188 111 q 69 496 69 342 q 128 764 69 650 q 297 940 188 878 q 553 1001 406 1001 q 808 940 700 1001 q 975 764 917 878 q 1033 496 1033 650 q 975 226 1033 342 q 808 49 917 111 q 553 -12 700 -12 m 553 157 q 748 244 678 157 q 818 496 818 332 q 748 746 818 660 q 553 832 678 832 q 358 746 428 832 q 288 496 288 660 q 358 244 288 331 q 553 157 428 157 m 663 1282 l 663 1085 l 439 1085 l 439 1282 l 663 1282 m 332 1472 l 769 1472 l 769 1342 l 332 1342 l 332 1472 z "},"Ọ":{"ha":1104,"x_min":69,"x_max":1033,"o":"m 553 -12 q 297 49 406 -12 q 128 226 188 111 q 69 496 69 342 q 128 764 69 650 q 297 940 188 878 q 553 1001 406 1001 q 808 940 700 1001 q 975 764 917 878 q 1033 496 1033 650 q 975 226 1033 342 q 808 49 917 111 q 553 -12 700 -12 m 553 157 q 748 244 678 157 q 818 496 818 332 q 748 746 818 660 q 553 832 678 832 q 358 746 428 832 q 288 496 288 660 q 358 244 288 331 q 553 157 428 157 m 649 -94 l 649 -279 l 456 -279 l 456 -94 l 649 -94 z "},"Ò":{"ha":1104,"x_min":69,"x_max":1033,"o":"m 553 -12 q 297 49 406 -12 q 128 226 188 111 q 69 496 69 342 q 128 764 69 650 q 297 940 188 878 q 553 1001 406 1001 q 808 940 700 1001 q 975 764 917 878 q 1033 496 1033 650 q 975 226 1033 342 q 808 49 917 111 q 553 -12 700 -12 m 553 157 q 748 244 678 157 q 818 496 818 332 q 748 746 818 660 q 553 832 678 832 q 358 746 428 832 q 288 496 288 660 q 358 244 288 331 q 553 157 428 157 m 278 1292 l 472 1292 l 615 1074 l 486 1074 l 278 1292 z "},"Ỏ":{"ha":1104,"x_min":69,"x_max":1033,"o":"m 553 -12 q 297 49 406 -12 q 128 226 188 111 q 69 496 69 342 q 128 764 69 650 q 297 940 188 878 q 553 1001 406 1001 q 808 940 700 1001 q 975 764 917 878 q 1033 496 1033 650 q 975 226 1033 342 q 808 49 917 111 q 553 -12 700 -12 m 553 157 q 748 244 678 157 q 818 496 818 332 q 748 746 818 660 q 553 832 678 832 q 358 746 428 832 q 288 496 288 660 q 358 244 288 331 q 553 157 428 157 m 603 1074 l 499 1074 l 499 1104 q 515 1142 499 1129 q 560 1167 531 1154 q 572 1173 563 1168 q 586 1182 582 1178 q 590 1190 590 1186 q 543 1215 590 1215 q 464 1200 508 1215 l 438 1272 q 569 1297 500 1297 q 678 1272 636 1297 q 719 1208 719 1246 q 701 1166 719 1182 q 651 1136 683 1150 q 615 1115 626 1124 q 603 1092 603 1106 l 603 1074 z "},"Ơ":{"ha":1104,"x_min":69,"x_max":1033,"o":"m 1033 1106 q 990 966 1033 1024 q 874 892 946 908 q 993 726 953 826 q 1033 496 1033 625 q 975 226 1033 342 q 808 49 917 111 q 553 -12 700 -12 q 297 49 406 -12 q 128 226 188 111 q 69 496 69 342 q 128 764 69 650 q 297 940 188 878 q 556 1001 407 1001 q 646 994 600 1001 q 729 989 701 989 q 825 1021 797 989 q 853 1132 853 1053 l 853 1158 l 1033 1158 l 1033 1106 m 553 157 q 748 244 678 157 q 818 496 818 332 q 748 746 818 660 q 553 832 678 832 q 358 746 428 832 q 288 496 288 660 q 358 244 288 331 q 553 157 428 157 z "},"Ớ":{"ha":1104,"x_min":69,"x_max":1033,"o":"m 1033 1106 q 990 966 1033 1024 q 874 892 946 908 q 993 726 953 826 q 1033 496 1033 625 q 975 226 1033 342 q 808 49 917 111 q 553 -12 700 -12 q 297 49 406 -12 q 128 226 188 111 q 69 496 69 342 q 128 764 69 650 q 297 940 188 878 q 556 1001 407 1001 q 646 994 600 1001 q 729 989 701 989 q 825 1021 797 989 q 853 1132 853 1053 l 853 1158 l 1033 1158 l 1033 1106 m 553 157 q 748 244 678 157 q 818 496 818 332 q 748 746 818 660 q 553 832 678 832 q 358 746 428 832 q 288 496 288 660 q 358 244 288 331 q 553 157 428 157 m 486 1074 l 629 1292 l 824 1292 l 615 1074 l 486 1074 z "},"Ợ":{"ha":1104,"x_min":69,"x_max":1033,"o":"m 1033 1106 q 990 966 1033 1024 q 874 892 946 908 q 993 726 953 826 q 1033 496 1033 625 q 975 226 1033 342 q 808 49 917 111 q 553 -12 700 -12 q 297 49 406 -12 q 128 226 188 111 q 69 496 69 342 q 128 764 69 650 q 297 940 188 878 q 556 1001 407 1001 q 646 994 600 1001 q 729 989 701 989 q 825 1021 797 989 q 853 1132 853 1053 l 853 1158 l 1033 1158 l 1033 1106 m 553 157 q 748 244 678 157 q 818 496 818 332 q 748 746 818 660 q 553 832 678 832 q 358 746 428 832 q 288 496 288 660 q 358 244 288 331 q 553 157 428 157 m 649 -94 l 649 -279 l 456 -279 l 456 -94 l 649 -94 z "},"Ờ":{"ha":1104,"x_min":69,"x_max":1033,"o":"m 1033 1106 q 990 966 1033 1024 q 874 892 946 908 q 993 726 953 826 q 1033 496 1033 625 q 975 226 1033 342 q 808 49 917 111 q 553 -12 700 -12 q 297 49 406 -12 q 128 226 188 111 q 69 496 69 342 q 128 764 69 650 q 297 940 188 878 q 556 1001 407 1001 q 646 994 600 1001 q 729 989 701 989 q 825 1021 797 989 q 853 1132 853 1053 l 853 1158 l 1033 1158 l 1033 1106 m 553 157 q 748 244 678 157 q 818 496 818 332 q 748 746 818 660 q 553 832 678 832 q 358 746 428 832 q 288 496 288 660 q 358 244 288 331 q 553 157 428 157 m 278 1292 l 472 1292 l 615 1074 l 486 1074 l 278 1292 z "},"Ở":{"ha":1104,"x_min":69,"x_max":1033,"o":"m 1033 1106 q 990 966 1033 1024 q 874 892 946 908 q 993 726 953 826 q 1033 496 1033 625 q 975 226 1033 342 q 808 49 917 111 q 553 -12 700 -12 q 297 49 406 -12 q 128 226 188 111 q 69 496 69 342 q 128 764 69 650 q 297 940 188 878 q 556 1001 407 1001 q 646 994 600 1001 q 729 989 701 989 q 825 1021 797 989 q 853 1132 853 1053 l 853 1158 l 1033 1158 l 1033 1106 m 553 157 q 748 244 678 157 q 818 496 818 332 q 748 746 818 660 q 553 832 678 832 q 358 746 428 832 q 288 496 288 660 q 358 244 288 331 q 553 157 428 157 m 603 1074 l 499 1074 l 499 1104 q 515 1142 499 1129 q 560 1167 531 1154 q 572 1173 563 1168 q 586 1182 582 1178 q 590 1190 590 1186 q 543 1215 590 1215 q 464 1200 508 1215 l 438 1272 q 569 1297 500 1297 q 678 1272 636 1297 q 719 1208 719 1246 q 701 1166 719 1182 q 651 1136 683 1150 q 615 1115 626 1124 q 603 1092 603 1106 l 603 1074 z "},"Ỡ":{"ha":1104,"x_min":69,"x_max":1033,"o":"m 1033 1106 q 990 966 1033 1024 q 874 892 946 908 q 993 726 953 826 q 1033 496 1033 625 q 975 226 1033 342 q 808 49 917 111 q 553 -12 700 -12 q 297 49 406 -12 q 128 226 188 111 q 69 496 69 342 q 128 764 69 650 q 297 940 188 878 q 556 1001 407 1001 q 646 994 600 1001 q 729 989 701 989 q 825 1021 797 989 q 853 1132 853 1053 l 853 1158 l 1033 1158 l 1033 1106 m 553 157 q 748 244 678 157 q 818 496 818 332 q 748 746 818 660 q 553 832 678 832 q 358 746 428 832 q 288 496 288 660 q 358 244 288 331 q 553 157 428 157 m 307 1083 q 349 1236 307 1185 q 458 1288 392 1288 q 510 1276 485 1288 q 565 1246 536 1265 q 612 1222 596 1229 q 644 1214 628 1214 q 687 1233 671 1214 q 706 1283 703 1251 l 794 1283 q 752 1131 794 1182 q 643 1079 710 1079 q 591 1090 617 1079 q 536 1121 565 1101 q 490 1145 506 1138 q 457 1153 474 1153 q 415 1134 431 1153 q 396 1083 399 1115 l 307 1083 z "},"Ő":{"ha":1104,"x_min":69,"x_max":1033,"o":"m 553 -12 q 297 49 406 -12 q 128 226 188 111 q 69 496 69 342 q 128 764 69 650 q 297 940 188 878 q 553 1001 406 1001 q 808 940 700 1001 q 975 764 917 878 q 1033 496 1033 650 q 975 226 1033 342 q 808 49 917 111 q 553 -12 700 -12 m 553 157 q 748 244 678 157 q 818 496 818 332 q 748 746 818 660 q 553 832 678 832 q 358 746 428 832 q 288 496 288 660 q 358 244 288 331 q 553 157 428 157 m 504 1292 l 644 1292 l 506 1074 l 401 1074 l 504 1292 m 699 1292 l 840 1292 l 700 1074 l 596 1074 l 699 1292 z "},"Ȏ":{"ha":1104,"x_min":69,"x_max":1033,"o":"m 553 -12 q 297 49 406 -12 q 128 226 188 111 q 69 496 69 342 q 128 764 69 650 q 297 940 188 878 q 553 1001 406 1001 q 808 940 700 1001 q 975 764 917 878 q 1033 496 1033 650 q 975 226 1033 342 q 808 49 917 111 q 553 -12 700 -12 m 553 157 q 748 244 678 157 q 818 496 818 332 q 748 746 818 660 q 553 832 678 832 q 358 746 428 832 q 288 496 288 660 q 358 244 288 331 q 553 157 428 157 m 551 1279 q 707 1241 642 1279 q 800 1128 772 1203 l 703 1086 q 551 1156 658 1156 q 399 1086 443 1156 l 301 1128 q 394 1241 329 1203 q 551 1279 460 1279 z "},"Ō":{"ha":1104,"x_min":69,"x_max":1033,"o":"m 553 -12 q 297 49 406 -12 q 128 226 188 111 q 69 496 69 342 q 128 764 69 650 q 297 940 188 878 q 553 1001 406 1001 q 808 940 700 1001 q 975 764 917 878 q 1033 496 1033 650 q 975 226 1033 342 q 808 49 917 111 q 553 -12 700 -12 m 553 157 q 748 244 678 157 q 818 496 818 332 q 748 746 818 660 q 553 832 678 832 q 358 746 428 832 q 288 496 288 660 q 358 244 288 331 q 553 157 428 157 m 332 1247 l 769 1247 l 769 1117 l 332 1117 l 332 1247 z "},"Ṓ":{"ha":1104,"x_min":69,"x_max":1033,"o":"m 553 -12 q 297 49 406 -12 q 128 226 188 111 q 69 496 69 342 q 128 764 69 650 q 297 940 188 878 q 553 1001 406 1001 q 808 940 700 1001 q 975 764 917 878 q 1033 496 1033 650 q 975 226 1033 342 q 808 49 917 111 q 553 -12 700 -12 m 553 157 q 748 244 678 157 q 818 496 818 332 q 748 746 818 660 q 553 832 678 832 q 358 746 428 832 q 288 496 288 660 q 358 244 288 331 q 553 157 428 157 m 332 1247 l 769 1247 l 769 1117 l 332 1117 l 332 1247 m 486 1299 l 629 1517 l 824 1517 l 615 1299 l 486 1299 z "},"Ṑ":{"ha":1104,"x_min":69,"x_max":1033,"o":"m 553 -12 q 297 49 406 -12 q 128 226 188 111 q 69 496 69 342 q 128 764 69 650 q 297 940 188 878 q 553 1001 406 1001 q 808 940 700 1001 q 975 764 917 878 q 1033 496 1033 650 q 975 226 1033 342 q 808 49 917 111 q 553 -12 700 -12 m 553 157 q 748 244 678 157 q 818 496 818 332 q 748 746 818 660 q 553 832 678 832 q 358 746 428 832 q 288 496 288 660 q 358 244 288 331 q 553 157 428 157 m 332 1247 l 769 1247 l 769 1117 l 332 1117 l 332 1247 m 278 1517 l 472 1517 l 615 1299 l 486 1299 l 278 1517 z "},"Ǫ":{"ha":1104,"x_min":69,"x_max":1033,"o":"m 708 7 q 618 -92 618 -21 q 640 -147 618 -128 q 701 -167 661 -167 q 779 -149 739 -167 l 803 -247 q 663 -276 739 -276 q 533 -233 583 -276 q 483 -122 483 -190 q 525 -12 483 -61 q 283 57 386 -7 q 125 233 181 121 q 69 496 69 346 q 128 764 69 650 q 297 940 188 878 q 553 1001 406 1001 q 808 940 700 1001 q 975 764 917 878 q 1033 496 1033 650 q 949 181 1033 308 q 708 7 864 53 m 553 157 q 748 244 678 157 q 818 496 818 332 q 748 746 818 660 q 553 832 678 832 q 358 746 428 832 q 288 496 288 660 q 358 244 288 331 q 553 157 428 157 z "},"Ø":{"ha":1104,"x_min":69,"x_max":1033,"o":"m 876 892 q 993 725 953 826 q 1033 496 1033 624 q 975 226 1033 342 q 808 49 917 111 q 553 -12 700 -12 q 368 17 451 -12 l 303 -94 l 164 -11 l 228 99 q 110 267 151 165 q 69 496 69 368 q 128 764 69 650 q 297 940 188 878 q 553 1001 406 1001 q 736 972 656 1001 l 801 1083 l 940 1000 l 876 892 m 288 496 q 333 281 288 365 l 646 817 q 553 832 603 832 q 358 746 428 832 q 288 496 288 660 m 553 157 q 748 244 678 157 q 818 496 818 332 q 772 711 818 626 l 458 172 q 553 157 501 157 z "},"Ǿ":{"ha":1104,"x_min":69,"x_max":1033,"o":"m 876 892 q 993 725 953 826 q 1033 496 1033 624 q 975 226 1033 342 q 808 49 917 111 q 553 -12 700 -12 q 368 17 451 -12 l 303 -94 l 164 -11 l 228 99 q 110 267 151 165 q 69 496 69 368 q 128 764 69 650 q 297 940 188 878 q 553 1001 406 1001 q 736 972 656 1001 l 801 1083 l 940 1000 l 876 892 m 288 496 q 333 281 288 365 l 646 817 q 553 832 603 832 q 358 746 428 832 q 288 496 288 660 m 553 157 q 748 244 678 157 q 818 496 818 332 q 772 711 818 626 l 458 172 q 553 157 501 157 m 486 1074 l 629 1292 l 824 1292 l 615 1074 l 486 1074 z "},"Õ":{"ha":1104,"x_min":69,"x_max":1033,"o":"m 553 -12 q 297 49 406 -12 q 128 226 188 111 q 69 496 69 342 q 128 764 69 650 q 297 940 188 878 q 553 1001 406 1001 q 808 940 700 1001 q 975 764 917 878 q 1033 496 1033 650 q 975 226 1033 342 q 808 49 917 111 q 553 -12 700 -12 m 553 157 q 748 244 678 157 q 818 496 818 332 q 748 746 818 660 q 553 832 678 832 q 358 746 428 832 q 288 496 288 660 q 358 244 288 331 q 553 157 428 157 m 307 1083 q 349 1236 307 1185 q 458 1288 392 1288 q 510 1276 485 1288 q 565 1246 536 1265 q 612 1222 596 1229 q 644 1214 628 1214 q 687 1233 671 1214 q 706 1283 703 1251 l 794 1283 q 752 1131 794 1182 q 643 1079 710 1079 q 591 1090 617 1079 q 536 1121 565 1101 q 490 1145 506 1138 q 457 1153 474 1153 q 415 1134 431 1153 q 396 1083 399 1115 l 307 1083 z "},"Ṍ":{"ha":1104,"x_min":69,"x_max":1033,"o":"m 553 -12 q 297 49 406 -12 q 128 226 188 111 q 69 496 69 342 q 128 764 69 650 q 297 940 188 878 q 553 1001 406 1001 q 808 940 700 1001 q 975 764 917 878 q 1033 496 1033 650 q 975 226 1033 342 q 808 49 917 111 q 553 -12 700 -12 m 553 157 q 748 244 678 157 q 818 496 818 332 q 748 746 818 660 q 553 832 678 832 q 358 746 428 832 q 288 496 288 660 q 358 244 288 331 q 553 157 428 157 m 307 1083 q 349 1236 307 1185 q 458 1288 392 1288 q 510 1276 485 1288 q 565 1246 536 1265 q 612 1222 596 1229 q 644 1214 628 1214 q 687 1233 671 1214 q 706 1283 703 1251 l 794 1283 q 752 1131 794 1182 q 643 1079 710 1079 q 591 1090 617 1079 q 536 1121 565 1101 q 490 1145 506 1138 q 457 1153 474 1153 q 415 1134 431 1153 q 396 1083 399 1115 l 307 1083 m 486 1299 l 629 1517 l 824 1517 l 615 1299 l 486 1299 z "},"Ṏ":{"ha":1104,"x_min":69,"x_max":1033,"o":"m 553 -12 q 297 49 406 -12 q 128 226 188 111 q 69 496 69 342 q 128 764 69 650 q 297 940 188 878 q 553 1001 406 1001 q 808 940 700 1001 q 975 764 917 878 q 1033 496 1033 650 q 975 226 1033 342 q 808 49 917 111 q 553 -12 700 -12 m 553 157 q 748 244 678 157 q 818 496 818 332 q 748 746 818 660 q 553 832 678 832 q 358 746 428 832 q 288 496 288 660 q 358 244 288 331 q 553 157 428 157 m 307 1083 q 349 1236 307 1185 q 458 1288 392 1288 q 510 1276 485 1288 q 565 1246 536 1265 q 612 1222 596 1229 q 644 1214 628 1214 q 687 1233 671 1214 q 706 1283 703 1251 l 794 1283 q 752 1131 794 1182 q 643 1079 710 1079 q 591 1090 617 1079 q 536 1121 565 1101 q 490 1145 506 1138 q 457 1153 474 1153 q 415 1134 431 1153 q 396 1083 399 1115 l 307 1083 m 514 1500 l 514 1317 l 321 1317 l 321 1500 l 514 1500 m 781 1500 l 781 1317 l 588 1317 l 588 1500 l 781 1500 z "},"Ȭ":{"ha":1104,"x_min":69,"x_max":1033,"o":"m 553 -12 q 297 49 406 -12 q 128 226 188 111 q 69 496 69 342 q 128 764 69 650 q 297 940 188 878 q 553 1001 406 1001 q 808 940 700 1001 q 975 764 917 878 q 1033 496 1033 650 q 975 226 1033 342 q 808 49 917 111 q 553 -12 700 -12 m 553 157 q 748 244 678 157 q 818 496 818 332 q 748 746 818 660 q 553 832 678 832 q 358 746 428 832 q 288 496 288 660 q 358 244 288 331 q 553 157 428 157 m 307 1083 q 349 1236 307 1185 q 458 1288 392 1288 q 510 1276 485 1288 q 565 1246 536 1265 q 612 1222 596 1229 q 644 1214 628 1214 q 687 1233 671 1214 q 706 1283 703 1251 l 794 1283 q 752 1131 794 1182 q 643 1079 710 1079 q 591 1090 617 1079 q 536 1121 565 1101 q 490 1145 506 1138 q 457 1153 474 1153 q 415 1134 431 1153 q 396 1083 399 1115 l 307 1083 m 332 1472 l 769 1472 l 769 1342 l 332 1342 l 332 1472 z "},"Œ":{"ha":1464,"x_min":69,"x_max":1413,"o":"m 943 821 l 943 588 l 1385 588 l 1385 418 l 943 418 l 943 168 l 1413 168 l 1413 0 l 744 0 l 744 51 q 526 -12 665 -12 q 289 51 393 -12 q 127 231 185 115 q 69 496 69 347 q 127 758 69 643 q 289 938 185 874 q 526 1001 393 1001 q 744 940 664 1001 l 744 989 l 1413 989 l 1413 821 l 943 821 m 288 496 q 356 244 288 332 q 553 157 425 157 q 732 206 664 157 l 732 783 q 553 832 664 832 q 356 744 425 832 q 288 496 288 657 z "},"P":{"ha":938,"x_min":99,"x_max":893,"o":"m 99 989 l 547 989 q 802 910 711 989 q 893 694 893 831 q 801 480 893 560 q 547 400 710 400 l 315 400 l 315 0 l 99 0 l 99 989 m 519 565 q 689 693 689 565 q 519 822 689 822 l 315 822 l 315 565 l 519 565 z "},"Þ":{"ha":939,"x_min":99,"x_max":893,"o":"m 554 790 q 803 714 714 790 q 893 503 893 638 q 802 292 893 368 q 554 215 711 215 l 311 215 l 311 0 l 99 0 l 99 989 l 311 989 l 311 790 l 554 790 m 519 382 q 648 410 607 382 q 689 503 689 439 q 648 594 689 565 q 519 622 607 622 l 311 622 l 311 382 l 519 382 z "},"Q":{"ha":1104,"x_min":69,"x_max":1033,"o":"m 789 39 q 865 -60 819 -14 q 968 -154 910 -106 l 822 -265 q 588 -11 676 -167 q 553 -12 575 -12 q 297 49 406 -12 q 128 226 188 111 q 69 496 69 342 q 128 764 69 650 q 297 940 188 878 q 553 1001 406 1001 q 808 940 700 1001 q 975 764 917 878 q 1033 496 1033 650 q 969 215 1033 333 q 789 39 906 97 m 288 496 q 358 244 288 331 q 553 157 428 157 q 748 244 678 157 q 818 496 818 332 q 748 746 818 660 q 553 832 678 832 q 358 746 428 832 q 288 496 288 660 z "},"R":{"ha":983,"x_min":99,"x_max":933,"o":"m 933 0 l 704 0 l 578 329 q 531 383 563 368 q 453 399 500 399 l 313 399 l 313 0 l 99 0 l 99 989 l 539 989 q 800 914 711 989 q 889 699 889 839 q 837 529 889 600 q 688 428 785 458 q 814 307 775 410 l 933 0 m 507 564 q 643 595 600 564 q 686 693 686 626 q 643 791 686 760 q 507 822 600 822 l 310 822 l 310 564 l 507 564 z "},"Ŕ":{"ha":983,"x_min":99,"x_max":933,"o":"m 933 0 l 704 0 l 578 329 q 531 383 563 368 q 453 399 500 399 l 313 399 l 313 0 l 99 0 l 99 989 l 539 989 q 800 914 711 989 q 889 699 889 839 q 837 529 889 600 q 688 428 785 458 q 814 307 775 410 l 933 0 m 507 564 q 643 595 600 564 q 686 693 686 626 q 643 791 686 760 q 507 822 600 822 l 310 822 l 310 564 l 507 564 m 429 1074 l 572 1292 l 767 1292 l 558 1074 l 429 1074 z "},"Ř":{"ha":983,"x_min":99,"x_max":933,"o":"m 933 0 l 704 0 l 578 329 q 531 383 563 368 q 453 399 500 399 l 313 399 l 313 0 l 99 0 l 99 989 l 539 989 q 800 914 711 989 q 889 699 889 839 q 837 529 889 600 q 688 428 785 458 q 814 307 775 410 l 933 0 m 507 564 q 643 595 600 564 q 686 693 686 626 q 643 791 686 760 q 507 822 600 822 l 310 822 l 310 564 l 507 564 m 739 1292 l 554 1074 l 433 1074 l 249 1292 l 407 1292 l 494 1171 l 581 1292 l 739 1292 z "},"Ŗ":{"ha":983,"x_min":99,"x_max":933,"o":"m 933 0 l 704 0 l 578 329 q 531 383 563 368 q 453 399 500 399 l 313 399 l 313 0 l 99 0 l 99 989 l 539 989 q 800 914 711 989 q 889 699 889 839 q 837 529 889 600 q 688 428 785 458 q 814 307 775 410 l 933 0 m 507 564 q 643 595 600 564 q 686 693 686 626 q 643 791 686 760 q 507 822 600 822 l 310 822 l 310 564 l 507 564 m 599 -93 l 599 -182 q 580 -296 599 -247 q 515 -386 561 -344 l 439 -333 q 488 -251 479 -296 l 390 -251 l 390 -93 l 599 -93 z "},"Ȑ":{"ha":983,"x_min":99,"x_max":933,"o":"m 933 0 l 704 0 l 578 329 q 531 383 563 368 q 453 399 500 399 l 313 399 l 313 0 l 99 0 l 99 989 l 539 989 q 800 914 711 989 q 889 699 889 839 q 837 529 889 600 q 688 428 785 458 q 814 307 775 410 l 933 0 m 507 564 q 643 595 600 564 q 686 693 686 626 q 643 791 686 760 q 507 822 600 822 l 310 822 l 310 564 l 507 564 m 204 1292 l 346 1292 l 449 1074 l 344 1074 l 204 1292 m 400 1292 l 540 1292 l 643 1074 l 539 1074 l 400 1292 z "},"Ṛ":{"ha":983,"x_min":99,"x_max":933,"o":"m 933 0 l 704 0 l 578 329 q 531 383 563 368 q 453 399 500 399 l 313 399 l 313 0 l 99 0 l 99 989 l 539 989 q 800 914 711 989 q 889 699 889 839 q 837 529 889 600 q 688 428 785 458 q 814 307 775 410 l 933 0 m 507 564 q 643 595 600 564 q 686 693 686 626 q 643 791 686 760 q 507 822 600 822 l 310 822 l 310 564 l 507 564 m 592 -94 l 592 -279 l 399 -279 l 399 -94 l 592 -94 z "},"Ȓ":{"ha":983,"x_min":99,"x_max":933,"o":"m 933 0 l 704 0 l 578 329 q 531 383 563 368 q 453 399 500 399 l 313 399 l 313 0 l 99 0 l 99 989 l 539 989 q 800 914 711 989 q 889 699 889 839 q 837 529 889 600 q 688 428 785 458 q 814 307 775 410 l 933 0 m 507 564 q 643 595 600 564 q 686 693 686 626 q 643 791 686 760 q 507 822 600 822 l 310 822 l 310 564 l 507 564 m 494 1279 q 650 1241 585 1279 q 743 1128 715 1203 l 646 1086 q 494 1156 601 1156 q 342 1086 386 1156 l 244 1128 q 338 1241 272 1203 q 494 1279 403 1279 z "},"Ṟ":{"ha":983,"x_min":99,"x_max":933,"o":"m 933 0 l 704 0 l 578 329 q 531 383 563 368 q 453 399 500 399 l 313 399 l 313 0 l 99 0 l 99 989 l 539 989 q 800 914 711 989 q 889 699 889 839 q 837 529 889 600 q 688 428 785 458 q 814 307 775 410 l 933 0 m 507 564 q 643 595 600 564 q 686 693 686 626 q 643 791 686 760 q 507 822 600 822 l 310 822 l 310 564 l 507 564 m 276 -126 l 714 -126 l 714 -249 l 276 -249 l 276 -126 z "},"S":{"ha":913,"x_min":57,"x_max":854,"o":"m 444 -12 q 228 17 332 -12 q 57 101 125 47 l 126 257 q 446 157 269 157 q 591 187 540 157 q 642 271 642 217 q 595 345 642 318 q 432 397 549 372 q 224 462 301 424 q 112 555 147 500 q 76 692 76 610 q 126 851 76 781 q 264 962 175 922 q 469 1001 353 1001 q 672 971 575 1001 q 828 888 769 940 l 758 732 q 471 832 628 832 q 338 799 388 832 q 288 708 288 765 q 306 653 288 675 q 369 613 325 631 q 496 579 414 596 q 770 471 686 538 q 854 289 854 404 q 746 69 854 150 q 444 -12 638 -12 z "},"Ś":{"ha":913,"x_min":57,"x_max":854,"o":"m 444 -12 q 228 17 332 -12 q 57 101 125 47 l 126 257 q 446 157 269 157 q 591 187 540 157 q 642 271 642 217 q 595 345 642 318 q 432 397 549 372 q 224 462 301 424 q 112 555 147 500 q 76 692 76 610 q 126 851 76 781 q 264 962 175 922 q 469 1001 353 1001 q 672 971 575 1001 q 828 888 769 940 l 758 732 q 471 832 628 832 q 338 799 388 832 q 288 708 288 765 q 306 653 288 675 q 369 613 325 631 q 496 579 414 596 q 770 471 686 538 q 854 289 854 404 q 746 69 854 150 q 444 -12 638 -12 m 394 1074 l 538 1292 l 732 1292 l 524 1074 l 394 1074 z "},"Ṥ":{"ha":913,"x_min":57,"x_max":854,"o":"m 444 -12 q 228 17 332 -12 q 57 101 125 47 l 126 257 q 446 157 269 157 q 591 187 540 157 q 642 271 642 217 q 595 345 642 318 q 432 397 549 372 q 224 462 301 424 q 112 555 147 500 q 76 692 76 610 q 126 851 76 781 q 264 962 175 922 q 469 1001 353 1001 q 672 971 575 1001 q 828 888 769 940 l 758 732 q 471 832 628 832 q 338 799 388 832 q 288 708 288 765 q 306 653 288 675 q 369 613 325 631 q 496 579 414 596 q 770 471 686 538 q 854 289 854 404 q 746 69 854 150 q 444 -12 638 -12 m 432 1074 l 575 1292 l 769 1292 l 561 1074 l 432 1074 m 401 1290 l 401 1093 l 178 1093 l 178 1290 l 401 1290 z "},"Š":{"ha":913,"x_min":57,"x_max":854,"o":"m 444 -12 q 228 17 332 -12 q 57 101 125 47 l 126 257 q 446 157 269 157 q 591 187 540 157 q 642 271 642 217 q 595 345 642 318 q 432 397 549 372 q 224 462 301 424 q 112 555 147 500 q 76 692 76 610 q 126 851 76 781 q 264 962 175 922 q 469 1001 353 1001 q 672 971 575 1001 q 828 888 769 940 l 758 732 q 471 832 628 832 q 338 799 388 832 q 288 708 288 765 q 306 653 288 675 q 369 613 325 631 q 496 579 414 596 q 770 471 686 538 q 854 289 854 404 q 746 69 854 150 q 444 -12 638 -12 m 704 1292 l 519 1074 l 399 1074 l 214 1292 l 372 1292 l 460 1171 l 546 1292 l 704 1292 z "},"Ṧ":{"ha":913,"x_min":57,"x_max":854,"o":"m 444 -12 q 228 17 332 -12 q 57 101 125 47 l 126 257 q 446 157 269 157 q 591 187 540 157 q 642 271 642 217 q 595 345 642 318 q 432 397 549 372 q 224 462 301 424 q 112 555 147 500 q 76 692 76 610 q 126 851 76 781 q 264 962 175 922 q 469 1001 353 1001 q 672 971 575 1001 q 828 888 769 940 l 758 732 q 471 832 628 832 q 338 799 388 832 q 288 708 288 765 q 306 653 288 675 q 369 613 325 631 q 496 579 414 596 q 770 471 686 538 q 854 289 854 404 q 746 69 854 150 q 444 -12 638 -12 m 704 1292 l 519 1074 l 399 1074 l 214 1292 l 372 1292 l 460 1171 l 546 1292 l 704 1292 m 571 1507 l 571 1310 l 347 1310 l 347 1507 l 571 1507 z "},"Ş":{"ha":913,"x_min":57,"x_max":854,"o":"m 854 289 q 759 78 854 158 q 494 -11 664 -1 l 488 -57 q 506 -56 494 -56 q 591 -82 558 -56 q 624 -153 624 -108 q 574 -242 624 -208 q 433 -276 524 -276 q 367 -270 403 -276 q 303 -251 332 -264 l 319 -169 q 429 -189 383 -189 q 493 -153 493 -189 q 481 -133 493 -140 q 447 -125 469 -125 q 397 -135 429 -125 l 369 -106 l 382 -10 q 201 26 286 -3 q 57 101 115 56 l 126 257 q 446 157 269 157 q 591 187 540 157 q 642 271 642 217 q 595 345 642 318 q 432 397 549 372 q 224 462 301 424 q 112 555 147 500 q 76 692 76 610 q 126 851 76 781 q 264 962 175 922 q 469 1001 353 1001 q 672 971 575 1001 q 828 888 769 940 l 758 732 q 471 832 628 832 q 338 799 388 832 q 288 708 288 765 q 306 653 288 675 q 369 613 325 631 q 496 579 414 596 q 770 471 686 538 q 854 289 854 404 z "},"Ŝ":{"ha":913,"x_min":57,"x_max":854,"o":"m 444 -12 q 228 17 332 -12 q 57 101 125 47 l 126 257 q 446 157 269 157 q 591 187 540 157 q 642 271 642 217 q 595 345 642 318 q 432 397 549 372 q 224 462 301 424 q 112 555 147 500 q 76 692 76 610 q 126 851 76 781 q 264 962 175 922 q 469 1001 353 1001 q 672 971 575 1001 q 828 888 769 940 l 758 732 q 471 832 628 832 q 338 799 388 832 q 288 708 288 765 q 306 653 288 675 q 369 613 325 631 q 496 579 414 596 q 770 471 686 538 q 854 289 854 404 q 746 69 854 150 q 444 -12 638 -12 m 214 1074 l 399 1292 l 519 1292 l 704 1074 l 546 1074 l 460 1193 l 372 1074 l 214 1074 z "},"Ș":{"ha":913,"x_min":57,"x_max":854,"o":"m 444 -12 q 228 17 332 -12 q 57 101 125 47 l 126 257 q 446 157 269 157 q 591 187 540 157 q 642 271 642 217 q 595 345 642 318 q 432 397 549 372 q 224 462 301 424 q 112 555 147 500 q 76 692 76 610 q 126 851 76 781 q 264 962 175 922 q 469 1001 353 1001 q 672 971 575 1001 q 828 888 769 940 l 758 732 q 471 832 628 832 q 338 799 388 832 q 288 708 288 765 q 306 653 288 675 q 369 613 325 631 q 496 579 414 596 q 770 471 686 538 q 854 289 854 404 q 746 69 854 150 q 444 -12 638 -12 m 557 -93 l 557 -182 q 538 -296 557 -247 q 474 -386 519 -344 l 397 -333 q 446 -251 438 -296 l 349 -251 l 349 -93 l 557 -93 z "},"Ṡ":{"ha":913,"x_min":57,"x_max":854,"o":"m 444 -12 q 228 17 332 -12 q 57 101 125 47 l 126 257 q 446 157 269 157 q 591 187 540 157 q 642 271 642 217 q 595 345 642 318 q 432 397 549 372 q 224 462 301 424 q 112 555 147 500 q 76 692 76 610 q 126 851 76 781 q 264 962 175 922 q 469 1001 353 1001 q 672 971 575 1001 q 828 888 769 940 l 758 732 q 471 832 628 832 q 338 799 388 832 q 288 708 288 765 q 306 653 288 675 q 369 613 325 631 q 496 579 414 596 q 770 471 686 538 q 854 289 854 404 q 746 69 854 150 q 444 -12 638 -12 m 571 1282 l 571 1085 l 347 1085 l 347 1282 l 571 1282 z "},"Ṣ":{"ha":913,"x_min":57,"x_max":854,"o":"m 444 -12 q 228 17 332 -12 q 57 101 125 47 l 126 257 q 446 157 269 157 q 591 187 540 157 q 642 271 642 217 q 595 345 642 318 q 432 397 549 372 q 224 462 301 424 q 112 555 147 500 q 76 692 76 610 q 126 851 76 781 q 264 962 175 922 q 469 1001 353 1001 q 672 971 575 1001 q 828 888 769 940 l 758 732 q 471 832 628 832 q 338 799 388 832 q 288 708 288 765 q 306 653 288 675 q 369 613 325 631 q 496 579 414 596 q 770 471 686 538 q 854 289 854 404 q 746 69 854 150 q 444 -12 638 -12 m 550 -94 l 550 -279 l 357 -279 l 357 -94 l 550 -94 z "},"Ṩ":{"ha":913,"x_min":57,"x_max":854,"o":"m 444 -12 q 228 17 332 -12 q 57 101 125 47 l 126 257 q 446 157 269 157 q 591 187 540 157 q 642 271 642 217 q 595 345 642 318 q 432 397 549 372 q 224 462 301 424 q 112 555 147 500 q 76 692 76 610 q 126 851 76 781 q 264 962 175 922 q 469 1001 353 1001 q 672 971 575 1001 q 828 888 769 940 l 758 732 q 471 832 628 832 q 338 799 388 832 q 288 708 288 765 q 306 653 288 675 q 369 613 325 631 q 496 579 414 596 q 770 471 686 538 q 854 289 854 404 q 746 69 854 150 q 444 -12 638 -12 m 550 -94 l 550 -279 l 357 -279 l 357 -94 l 550 -94 m 571 1282 l 571 1085 l 347 1085 l 347 1282 l 571 1282 z "},"ẞ":{"ha":996,"x_min":99,"x_max":943,"o":"m 739 517 q 889 433 835 497 q 943 276 943 369 q 903 131 943 196 q 791 28 863 65 q 631 -8 719 -8 q 485 11 549 -8 q 367 72 421 31 l 424 225 q 617 153 532 153 q 706 188 674 153 q 738 283 738 222 q 694 384 738 353 q 550 415 650 415 l 410 415 l 410 585 l 524 585 q 631 615 594 585 q 667 704 667 646 q 624 796 667 763 q 511 829 582 829 q 363 776 414 829 q 311 624 311 724 l 311 0 l 99 0 l 99 619 q 208 899 99 800 q 517 999 318 999 q 703 965 624 999 q 826 868 783 931 q 869 722 869 806 q 835 599 869 653 q 739 517 800 544 z "},"Ə":{"ha":1076,"x_min":69,"x_max":1006,"o":"m 506 1001 q 770 940 657 1001 q 944 764 883 878 q 1006 496 1006 650 q 949 232 1006 347 q 789 52 892 117 q 551 -12 686 -12 q 293 47 401 -12 q 127 222 185 107 q 69 500 69 338 l 69 583 l 785 583 q 693 767 767 704 q 497 829 619 829 q 208 732 335 829 l 139 888 q 303 971 204 940 q 506 1001 403 1001 m 546 157 q 712 222 651 157 q 786 417 772 288 l 290 417 q 367 223 301 289 q 546 157 433 157 z "},"T":{"ha":872,"x_min":17,"x_max":856,"o":"m 326 813 l 17 813 l 17 989 l 856 989 l 856 813 l 546 813 l 546 0 l 326 0 l 326 813 z "},"Ŧ":{"ha":872,"x_min":17,"x_max":856,"o":"m 546 813 l 546 582 l 735 582 l 735 417 l 546 417 l 546 0 l 326 0 l 326 417 l 138 417 l 138 582 l 326 582 l 326 813 l 17 813 l 17 989 l 856 989 l 856 813 l 546 813 z "},"Ť":{"ha":872,"x_min":17,"x_max":856,"o":"m 326 813 l 17 813 l 17 989 l 856 989 l 856 813 l 546 813 l 546 0 l 326 0 l 326 813 m 681 1292 l 496 1074 l 375 1074 l 190 1292 l 349 1292 l 436 1171 l 522 1292 l 681 1292 z "},"Ţ":{"ha":872,"x_min":17,"x_max":856,"o":"m 478 0 l 469 -57 q 488 -56 476 -56 q 573 -82 540 -56 q 606 -153 606 -108 q 556 -242 606 -208 q 415 -276 506 -276 q 349 -270 385 -276 q 285 -251 314 -264 l 301 -169 q 411 -189 365 -189 q 475 -153 475 -189 q 463 -133 475 -140 q 429 -125 451 -125 q 379 -135 411 -125 l 351 -106 l 365 0 l 326 0 l 326 813 l 17 813 l 17 989 l 856 989 l 856 813 l 546 813 l 546 0 l 478 0 z "},"Ț":{"ha":872,"x_min":17,"x_max":856,"o":"m 326 813 l 17 813 l 17 989 l 856 989 l 856 813 l 546 813 l 546 0 l 326 0 l 326 813 m 539 -93 l 539 -182 q 520 -296 539 -247 q 456 -386 501 -344 l 379 -333 q 428 -251 419 -296 l 331 -251 l 331 -93 l 539 -93 z "},"Ṭ":{"ha":872,"x_min":17,"x_max":856,"o":"m 326 813 l 17 813 l 17 989 l 856 989 l 856 813 l 546 813 l 546 0 l 326 0 l 326 813 m 532 -94 l 532 -279 l 339 -279 l 339 -94 l 532 -94 z "},"Ṯ":{"ha":872,"x_min":17,"x_max":856,"o":"m 326 813 l 17 813 l 17 989 l 856 989 l 856 813 l 546 813 l 546 0 l 326 0 l 326 813 m 217 -126 l 654 -126 l 654 -249 l 217 -249 l 217 -126 z "},"U":{"ha":1036,"x_min":93,"x_max":943,"o":"m 518 -12 q 201 94 310 -12 q 93 408 93 201 l 93 989 l 306 989 l 306 399 q 360 219 306 281 q 518 157 415 157 q 675 219 621 157 q 729 399 729 281 l 729 989 l 943 989 l 943 408 q 834 95 943 203 q 518 -12 725 -12 z "},"Ú":{"ha":1036,"x_min":93,"x_max":943,"o":"m 518 -12 q 201 94 310 -12 q 93 408 93 201 l 93 989 l 306 989 l 306 399 q 360 219 306 281 q 518 157 415 157 q 675 219 621 157 q 729 399 729 281 l 729 989 l 943 989 l 943 408 q 834 95 943 203 q 518 -12 725 -12 m 453 1074 l 596 1292 l 790 1292 l 582 1074 l 453 1074 z "},"Ŭ":{"ha":1036,"x_min":93,"x_max":943,"o":"m 518 -12 q 201 94 310 -12 q 93 408 93 201 l 93 989 l 306 989 l 306 399 q 360 219 306 281 q 518 157 415 157 q 675 219 621 157 q 729 399 729 281 l 729 989 l 943 989 l 943 408 q 834 95 943 203 q 518 -12 725 -12 m 518 1086 q 361 1125 426 1086 q 268 1239 296 1164 l 365 1279 q 518 1211 410 1211 q 669 1279 625 1211 l 767 1239 q 674 1125 739 1164 q 518 1086 608 1086 z "},"Û":{"ha":1036,"x_min":93,"x_max":943,"o":"m 518 -12 q 201 94 310 -12 q 93 408 93 201 l 93 989 l 306 989 l 306 399 q 360 219 306 281 q 518 157 415 157 q 675 219 621 157 q 729 399 729 281 l 729 989 l 943 989 l 943 408 q 834 95 943 203 q 518 -12 725 -12 m 272 1074 l 457 1292 l 578 1292 l 763 1074 l 604 1074 l 518 1193 l 431 1074 l 272 1074 z "},"Ȕ":{"ha":1036,"x_min":93,"x_max":943,"o":"m 518 -12 q 201 94 310 -12 q 93 408 93 201 l 93 989 l 306 989 l 306 399 q 360 219 306 281 q 518 157 415 157 q 675 219 621 157 q 729 399 729 281 l 729 989 l 943 989 l 943 408 q 834 95 943 203 q 518 -12 725 -12 m 228 1292 l 369 1292 l 472 1074 l 368 1074 l 228 1292 m 424 1292 l 564 1292 l 667 1074 l 563 1074 l 424 1292 z "},"Ü":{"ha":1036,"x_min":93,"x_max":943,"o":"m 518 -12 q 201 94 310 -12 q 93 408 93 201 l 93 989 l 306 989 l 306 399 q 360 219 306 281 q 518 157 415 157 q 675 219 621 157 q 729 399 729 281 l 729 989 l 943 989 l 943 408 q 834 95 943 203 q 518 -12 725 -12 m 481 1275 l 481 1092 l 288 1092 l 288 1275 l 481 1275 m 747 1275 l 747 1092 l 554 1092 l 554 1275 l 747 1275 z "},"Ụ":{"ha":1036,"x_min":93,"x_max":943,"o":"m 518 -12 q 201 94 310 -12 q 93 408 93 201 l 93 989 l 306 989 l 306 399 q 360 219 306 281 q 518 157 415 157 q 675 219 621 157 q 729 399 729 281 l 729 989 l 943 989 l 943 408 q 834 95 943 203 q 518 -12 725 -12 m 614 -94 l 614 -279 l 421 -279 l 421 -94 l 614 -94 z "},"Ù":{"ha":1036,"x_min":93,"x_max":943,"o":"m 518 -12 q 201 94 310 -12 q 93 408 93 201 l 93 989 l 306 989 l 306 399 q 360 219 306 281 q 518 157 415 157 q 675 219 621 157 q 729 399 729 281 l 729 989 l 943 989 l 943 408 q 834 95 943 203 q 518 -12 725 -12 m 244 1292 l 439 1292 l 582 1074 l 453 1074 l 244 1292 z "},"Ủ":{"ha":1036,"x_min":93,"x_max":943,"o":"m 518 -12 q 201 94 310 -12 q 93 408 93 201 l 93 989 l 306 989 l 306 399 q 360 219 306 281 q 518 157 415 157 q 675 219 621 157 q 729 399 729 281 l 729 989 l 943 989 l 943 408 q 834 95 943 203 q 518 -12 725 -12 m 569 1074 l 465 1074 l 465 1104 q 481 1142 465 1129 q 526 1167 497 1154 q 539 1173 529 1168 q 553 1182 549 1178 q 557 1190 557 1186 q 510 1215 557 1215 q 431 1200 475 1215 l 404 1272 q 536 1297 467 1297 q 644 1272 603 1297 q 686 1208 686 1246 q 668 1166 686 1182 q 618 1136 650 1150 q 581 1115 593 1124 q 569 1092 569 1106 l 569 1074 z "},"Ư":{"ha":1036,"x_min":93,"x_max":1101,"o":"m 1101 1158 l 1101 1106 q 1058 969 1101 1026 q 943 894 1015 913 l 943 408 q 834 95 943 203 q 518 -12 725 -12 q 201 94 310 -12 q 93 408 93 201 l 93 989 l 306 989 l 306 399 q 360 219 306 281 q 518 157 415 157 q 675 219 621 157 q 729 399 729 281 l 729 989 l 793 989 q 892 1021 864 989 q 921 1132 921 1053 l 921 1158 l 1101 1158 z "},"Ứ":{"ha":1036,"x_min":93,"x_max":1101,"o":"m 1101 1158 l 1101 1106 q 1058 969 1101 1026 q 943 894 1015 913 l 943 408 q 834 95 943 203 q 518 -12 725 -12 q 201 94 310 -12 q 93 408 93 201 l 93 989 l 306 989 l 306 399 q 360 219 306 281 q 518 157 415 157 q 675 219 621 157 q 729 399 729 281 l 729 989 l 793 989 q 892 1021 864 989 q 921 1132 921 1053 l 921 1158 l 1101 1158 m 453 1074 l 596 1292 l 790 1292 l 582 1074 l 453 1074 z "},"Ự":{"ha":1036,"x_min":93,"x_max":1101,"o":"m 1101 1158 l 1101 1106 q 1058 969 1101 1026 q 943 894 1015 913 l 943 408 q 834 95 943 203 q 518 -12 725 -12 q 201 94 310 -12 q 93 408 93 201 l 93 989 l 306 989 l 306 399 q 360 219 306 281 q 518 157 415 157 q 675 219 621 157 q 729 399 729 281 l 729 989 l 793 989 q 892 1021 864 989 q 921 1132 921 1053 l 921 1158 l 1101 1158 m 614 -94 l 614 -279 l 421 -279 l 421 -94 l 614 -94 z "},"Ừ":{"ha":1036,"x_min":93,"x_max":1101,"o":"m 1101 1158 l 1101 1106 q 1058 969 1101 1026 q 943 894 1015 913 l 943 408 q 834 95 943 203 q 518 -12 725 -12 q 201 94 310 -12 q 93 408 93 201 l 93 989 l 306 989 l 306 399 q 360 219 306 281 q 518 157 415 157 q 675 219 621 157 q 729 399 729 281 l 729 989 l 793 989 q 892 1021 864 989 q 921 1132 921 1053 l 921 1158 l 1101 1158 m 244 1292 l 439 1292 l 582 1074 l 453 1074 l 244 1292 z "},"Ử":{"ha":1036,"x_min":93,"x_max":1101,"o":"m 1101 1158 l 1101 1106 q 1058 969 1101 1026 q 943 894 1015 913 l 943 408 q 834 95 943 203 q 518 -12 725 -12 q 201 94 310 -12 q 93 408 93 201 l 93 989 l 306 989 l 306 399 q 360 219 306 281 q 518 157 415 157 q 675 219 621 157 q 729 399 729 281 l 729 989 l 793 989 q 892 1021 864 989 q 921 1132 921 1053 l 921 1158 l 1101 1158 m 569 1074 l 465 1074 l 465 1104 q 481 1142 465 1129 q 526 1167 497 1154 q 539 1173 529 1168 q 553 1182 549 1178 q 557 1190 557 1186 q 510 1215 557 1215 q 431 1200 475 1215 l 404 1272 q 536 1297 467 1297 q 644 1272 603 1297 q 686 1208 686 1246 q 668 1166 686 1182 q 618 1136 650 1150 q 581 1115 593 1124 q 569 1092 569 1106 l 569 1074 z "},"Ữ":{"ha":1036,"x_min":93,"x_max":1101,"o":"m 1101 1158 l 1101 1106 q 1058 969 1101 1026 q 943 894 1015 913 l 943 408 q 834 95 943 203 q 518 -12 725 -12 q 201 94 310 -12 q 93 408 93 201 l 93 989 l 306 989 l 306 399 q 360 219 306 281 q 518 157 415 157 q 675 219 621 157 q 729 399 729 281 l 729 989 l 793 989 q 892 1021 864 989 q 921 1132 921 1053 l 921 1158 l 1101 1158 m 274 1083 q 316 1236 274 1185 q 425 1288 358 1288 q 477 1276 451 1288 q 532 1246 503 1265 q 578 1222 563 1229 q 611 1214 594 1214 q 653 1233 638 1214 q 672 1283 669 1251 l 761 1283 q 719 1131 761 1182 q 610 1079 676 1079 q 558 1090 583 1079 q 503 1121 532 1101 q 456 1145 472 1138 q 424 1153 440 1153 q 381 1134 397 1153 q 363 1083 365 1115 l 274 1083 z "},"Ű":{"ha":1036,"x_min":93,"x_max":943,"o":"m 518 -12 q 201 94 310 -12 q 93 408 93 201 l 93 989 l 306 989 l 306 399 q 360 219 306 281 q 518 157 415 157 q 675 219 621 157 q 729 399 729 281 l 729 989 l 943 989 l 943 408 q 834 95 943 203 q 518 -12 725 -12 m 471 1292 l 611 1292 l 472 1074 l 368 1074 l 471 1292 m 665 1292 l 807 1292 l 667 1074 l 563 1074 l 665 1292 z "},"Ȗ":{"ha":1036,"x_min":93,"x_max":943,"o":"m 518 -12 q 201 94 310 -12 q 93 408 93 201 l 93 989 l 306 989 l 306 399 q 360 219 306 281 q 518 157 415 157 q 675 219 621 157 q 729 399 729 281 l 729 989 l 943 989 l 943 408 q 834 95 943 203 q 518 -12 725 -12 m 518 1279 q 674 1241 608 1279 q 767 1128 739 1203 l 669 1086 q 518 1156 625 1156 q 365 1086 410 1156 l 268 1128 q 361 1241 296 1203 q 518 1279 426 1279 z "},"Ū":{"ha":1036,"x_min":93,"x_max":943,"o":"m 518 -12 q 201 94 310 -12 q 93 408 93 201 l 93 989 l 306 989 l 306 399 q 360 219 306 281 q 518 157 415 157 q 675 219 621 157 q 729 399 729 281 l 729 989 l 943 989 l 943 408 q 834 95 943 203 q 518 -12 725 -12 m 299 1247 l 736 1247 l 736 1117 l 299 1117 l 299 1247 z "},"Ṻ":{"ha":1036,"x_min":93,"x_max":943,"o":"m 518 -12 q 201 94 310 -12 q 93 408 93 201 l 93 989 l 306 989 l 306 399 q 360 219 306 281 q 518 157 415 157 q 675 219 621 157 q 729 399 729 281 l 729 989 l 943 989 l 943 408 q 834 95 943 203 q 518 -12 725 -12 m 299 1247 l 736 1247 l 736 1117 l 299 1117 l 299 1247 m 481 1500 l 481 1317 l 288 1317 l 288 1500 l 481 1500 m 747 1500 l 747 1317 l 554 1317 l 554 1500 l 747 1500 z "},"Ų":{"ha":1036,"x_min":93,"x_max":943,"o":"m 943 989 l 943 408 q 876 144 943 246 q 676 7 808 43 q 612 -30 635 -4 q 589 -92 589 -56 q 611 -147 589 -128 q 674 -167 633 -167 q 749 -149 711 -167 l 774 -247 q 633 -276 711 -276 q 505 -233 556 -276 q 454 -122 454 -190 q 501 -12 454 -57 q 197 100 300 -7 q 93 408 93 207 l 93 989 l 306 989 l 306 399 q 360 219 306 281 q 518 157 415 157 q 675 219 621 157 q 729 399 729 281 l 729 989 l 943 989 z "},"Ů":{"ha":1036,"x_min":93,"x_max":943,"o":"m 518 -12 q 201 94 310 -12 q 93 408 93 201 l 93 989 l 306 989 l 306 399 q 360 219 306 281 q 518 157 415 157 q 675 219 621 157 q 729 399 729 281 l 729 989 l 943 989 l 943 408 q 834 95 943 203 q 518 -12 725 -12 m 518 1067 q 408 1110 453 1067 q 364 1217 364 1153 q 408 1324 364 1281 q 518 1368 453 1368 q 626 1324 582 1368 q 671 1217 671 1281 q 626 1110 671 1153 q 518 1067 582 1067 m 518 1153 q 561 1171 544 1153 q 578 1217 578 1189 q 561 1263 578 1244 q 518 1281 544 1281 q 474 1263 492 1281 q 457 1217 457 1244 q 474 1171 457 1189 q 518 1153 492 1153 z "},"Ũ":{"ha":1036,"x_min":93,"x_max":943,"o":"m 518 -12 q 201 94 310 -12 q 93 408 93 201 l 93 989 l 306 989 l 306 399 q 360 219 306 281 q 518 157 415 157 q 675 219 621 157 q 729 399 729 281 l 729 989 l 943 989 l 943 408 q 834 95 943 203 q 518 -12 725 -12 m 274 1083 q 316 1236 274 1185 q 425 1288 358 1288 q 477 1276 451 1288 q 532 1246 503 1265 q 578 1222 563 1229 q 611 1214 594 1214 q 653 1233 638 1214 q 672 1283 669 1251 l 761 1283 q 719 1131 761 1182 q 610 1079 676 1079 q 558 1090 583 1079 q 503 1121 532 1101 q 456 1145 472 1138 q 424 1153 440 1153 q 381 1134 397 1153 q 363 1083 365 1115 l 274 1083 z "},"Ṹ":{"ha":1036,"x_min":93,"x_max":943,"o":"m 518 -12 q 201 94 310 -12 q 93 408 93 201 l 93 989 l 306 989 l 306 399 q 360 219 306 281 q 518 157 415 157 q 675 219 621 157 q 729 399 729 281 l 729 989 l 943 989 l 943 408 q 834 95 943 203 q 518 -12 725 -12 m 274 1083 q 316 1236 274 1185 q 425 1288 358 1288 q 477 1276 451 1288 q 532 1246 503 1265 q 578 1222 563 1229 q 611 1214 594 1214 q 653 1233 638 1214 q 672 1283 669 1251 l 761 1283 q 719 1131 761 1182 q 610 1079 676 1079 q 558 1090 583 1079 q 503 1121 532 1101 q 456 1145 472 1138 q 424 1153 440 1153 q 381 1134 397 1153 q 363 1083 365 1115 l 274 1083 m 453 1299 l 596 1517 l 790 1517 l 582 1299 l 453 1299 z "},"V":{"ha":1021,"x_min":-21,"x_max":1042,"o":"m 1042 989 l 597 0 l 424 0 l -21 989 l 204 989 l 513 271 l 824 989 l 1042 989 z "},"W":{"ha":1564,"x_min":25,"x_max":1538,"o":"m 1538 989 l 1186 0 l 1013 0 l 782 654 l 550 0 l 376 0 l 25 989 l 246 989 l 474 306 l 713 989 l 864 989 l 1097 296 l 1331 989 l 1538 989 z "},"Ẃ":{"ha":1564,"x_min":25,"x_max":1538,"o":"m 1538 989 l 1186 0 l 1013 0 l 782 654 l 550 0 l 376 0 l 25 989 l 246 989 l 474 306 l 713 989 l 864 989 l 1097 296 l 1331 989 l 1538 989 m 717 1074 l 860 1292 l 1054 1292 l 846 1074 l 717 1074 z "},"Ŵ":{"ha":1564,"x_min":25,"x_max":1538,"o":"m 1538 989 l 1186 0 l 1013 0 l 782 654 l 550 0 l 376 0 l 25 989 l 246 989 l 474 306 l 713 989 l 864 989 l 1097 296 l 1331 989 l 1538 989 m 536 1074 l 721 1292 l 842 1292 l 1026 1074 l 868 1074 l 782 1193 l 694 1074 l 536 1074 z "},"Ẅ":{"ha":1564,"x_min":25,"x_max":1538,"o":"m 1538 989 l 1186 0 l 1013 0 l 782 654 l 550 0 l 376 0 l 25 989 l 246 989 l 474 306 l 713 989 l 864 989 l 1097 296 l 1331 989 l 1538 989 m 744 1275 l 744 1092 l 551 1092 l 551 1275 l 744 1275 m 1011 1275 l 1011 1092 l 818 1092 l 818 1275 l 1011 1275 z "},"Ẁ":{"ha":1564,"x_min":25,"x_max":1538,"o":"m 1538 989 l 1186 0 l 1013 0 l 782 654 l 550 0 l 376 0 l 25 989 l 246 989 l 474 306 l 713 989 l 864 989 l 1097 296 l 1331 989 l 1538 989 m 508 1292 l 703 1292 l 846 1074 l 717 1074 l 508 1292 z "},"X":{"ha":946,"x_min":-28,"x_max":972,"o":"m 972 0 l 719 0 l 472 342 l 225 0 l -28 0 l 349 501 l -17 989 l 236 989 l 472 660 l 711 989 l 964 989 l 594 501 l 972 0 z "},"Y":{"ha":892,"x_min":-71,"x_max":964,"o":"m 554 383 l 554 0 l 338 0 l 338 385 l -71 989 l 175 989 l 444 567 l 717 989 l 964 989 l 554 383 z "},"Ý":{"ha":892,"x_min":-71,"x_max":964,"o":"m 554 383 l 554 0 l 338 0 l 338 385 l -71 989 l 175 989 l 444 567 l 717 989 l 964 989 l 554 383 m 379 1074 l 522 1292 l 717 1292 l 508 1074 l 379 1074 z "},"Ŷ":{"ha":892,"x_min":-71,"x_max":964,"o":"m 554 383 l 554 0 l 338 0 l 338 385 l -71 989 l 175 989 l 444 567 l 717 989 l 964 989 l 554 383 m 199 1074 l 383 1292 l 504 1292 l 689 1074 l 531 1074 l 444 1193 l 357 1074 l 199 1074 z "},"Ÿ":{"ha":892,"x_min":-71,"x_max":964,"o":"m 554 383 l 554 0 l 338 0 l 338 385 l -71 989 l 175 989 l 444 567 l 717 989 l 964 989 l 554 383 m 407 1275 l 407 1092 l 214 1092 l 214 1275 l 407 1275 m 674 1275 l 674 1092 l 481 1092 l 481 1275 l 674 1275 z "},"Ẏ":{"ha":892,"x_min":-71,"x_max":964,"o":"m 554 383 l 554 0 l 338 0 l 338 385 l -71 989 l 175 989 l 444 567 l 717 989 l 964 989 l 554 383 m 556 1282 l 556 1085 l 332 1085 l 332 1282 l 556 1282 z "},"Ỵ":{"ha":892,"x_min":-71,"x_max":964,"o":"m 554 383 l 554 0 l 338 0 l 338 385 l -71 989 l 175 989 l 444 567 l 717 989 l 964 989 l 554 383 m 542 -94 l 542 -279 l 349 -279 l 349 -94 l 542 -94 z "},"Ỳ":{"ha":892,"x_min":-71,"x_max":964,"o":"m 554 383 l 554 0 l 338 0 l 338 385 l -71 989 l 175 989 l 444 567 l 717 989 l 964 989 l 554 383 m 171 1292 l 365 1292 l 508 1074 l 379 1074 l 171 1292 z "},"Ỷ":{"ha":892,"x_min":-71,"x_max":964,"o":"m 554 383 l 554 0 l 338 0 l 338 385 l -71 989 l 175 989 l 444 567 l 717 989 l 964 989 l 554 383 m 496 1074 l 392 1074 l 392 1104 q 408 1142 392 1129 q 453 1167 424 1154 q 465 1173 456 1168 q 479 1182 475 1178 q 483 1190 483 1186 q 436 1215 483 1215 q 357 1200 401 1215 l 331 1272 q 463 1297 393 1297 q 571 1272 529 1297 q 613 1208 613 1246 q 594 1166 613 1182 q 544 1136 576 1150 q 508 1115 519 1124 q 496 1092 496 1106 l 496 1074 z "},"Ȳ":{"ha":892,"x_min":-71,"x_max":964,"o":"m 554 383 l 554 0 l 338 0 l 338 385 l -71 989 l 175 989 l 444 567 l 717 989 l 964 989 l 554 383 m 225 1247 l 663 1247 l 663 1117 l 225 1117 l 225 1247 z "},"Ỹ":{"ha":892,"x_min":-71,"x_max":964,"o":"m 554 383 l 554 0 l 338 0 l 338 385 l -71 989 l 175 989 l 444 567 l 717 989 l 964 989 l 554 383 m 200 1083 q 242 1236 200 1185 q 351 1288 285 1288 q 403 1276 378 1288 q 458 1246 429 1265 q 505 1222 489 1229 q 538 1214 521 1214 q 580 1233 564 1214 q 599 1283 596 1251 l 688 1283 q 645 1131 688 1182 q 536 1079 603 1079 q 484 1090 510 1079 q 429 1121 458 1101 q 383 1145 399 1138 q 350 1153 367 1153 q 308 1134 324 1153 q 289 1083 292 1115 l 200 1083 z "},"Z":{"ha":854,"x_min":71,"x_max":806,"o":"m 806 171 l 806 0 l 71 0 l 71 158 l 547 818 l 71 818 l 71 989 l 790 989 l 790 832 l 310 171 l 806 171 z "},"Ź":{"ha":854,"x_min":71,"x_max":806,"o":"m 806 171 l 806 0 l 71 0 l 71 158 l 547 818 l 71 818 l 71 989 l 790 989 l 790 832 l 310 171 l 806 171 m 364 1074 l 507 1292 l 701 1292 l 493 1074 l 364 1074 z "},"Ž":{"ha":854,"x_min":71,"x_max":806,"o":"m 806 171 l 806 0 l 71 0 l 71 158 l 547 818 l 71 818 l 71 989 l 790 989 l 790 832 l 310 171 l 806 171 m 674 1292 l 489 1074 l 368 1074 l 183 1292 l 342 1292 l 429 1171 l 515 1292 l 674 1292 z "},"Ż":{"ha":854,"x_min":71,"x_max":806,"o":"m 806 171 l 806 0 l 71 0 l 71 158 l 547 818 l 71 818 l 71 989 l 790 989 l 790 832 l 310 171 l 806 171 m 540 1282 l 540 1085 l 317 1085 l 317 1282 l 540 1282 z "},"Ẓ":{"ha":854,"x_min":71,"x_max":806,"o":"m 806 171 l 806 0 l 71 0 l 71 158 l 547 818 l 71 818 l 71 989 l 790 989 l 790 832 l 310 171 l 806 171 m 521 -94 l 521 -279 l 328 -279 l 328 -94 l 521 -94 z "},"a":{"ha":875,"x_min":50,"x_max":790,"o":"m 790 704 l 790 0 l 583 0 l 583 104 q 493 19 551 50 q 361 -11 435 -11 q 199 33 269 -11 q 90 160 129 78 q 50 351 50 243 q 90 544 50 460 q 200 676 129 629 q 361 722 271 722 q 493 690 435 722 q 583 604 551 658 l 583 704 l 790 704 m 422 149 q 542 201 500 149 q 583 354 583 254 q 542 508 583 454 q 422 561 500 561 q 301 506 344 561 q 258 351 258 450 q 301 201 258 253 q 422 149 343 149 z "},"á":{"ha":875,"x_min":50,"x_max":790,"o":"m 790 704 l 790 0 l 583 0 l 583 104 q 493 19 551 50 q 361 -11 435 -11 q 199 33 269 -11 q 90 160 129 78 q 50 351 50 243 q 90 544 50 460 q 200 676 129 629 q 361 722 271 722 q 493 690 435 722 q 583 604 551 658 l 583 704 l 790 704 m 422 149 q 542 201 500 149 q 583 354 583 254 q 542 508 583 454 q 422 561 500 561 q 301 506 344 561 q 258 351 258 450 q 301 201 258 253 q 422 149 343 149 m 372 794 l 510 1081 l 715 1081 l 501 794 l 372 794 z "},"ă":{"ha":875,"x_min":50,"x_max":790,"o":"m 790 704 l 790 0 l 583 0 l 583 104 q 493 19 551 50 q 361 -11 435 -11 q 199 33 269 -11 q 90 160 129 78 q 50 351 50 243 q 90 544 50 460 q 200 676 129 629 q 361 722 271 722 q 493 690 435 722 q 583 604 551 658 l 583 704 l 790 704 m 422 149 q 542 201 500 149 q 583 354 583 254 q 542 508 583 454 q 422 561 500 561 q 301 506 344 561 q 258 351 258 450 q 301 201 258 253 q 422 149 343 149 m 438 825 q 274 876 346 825 q 178 1028 201 928 l 274 1069 q 438 957 335 957 q 600 1069 539 957 l 696 1028 q 601 877 672 929 q 438 825 529 825 z "},"ắ":{"ha":875,"x_min":50,"x_max":790,"o":"m 790 704 l 790 0 l 583 0 l 583 104 q 493 19 551 50 q 361 -11 435 -11 q 199 33 269 -11 q 90 160 129 78 q 50 351 50 243 q 90 544 50 460 q 200 676 129 629 q 361 722 271 722 q 493 690 435 722 q 583 604 551 658 l 583 704 l 790 704 m 422 149 q 542 201 500 149 q 583 354 583 254 q 542 508 583 454 q 422 561 500 561 q 301 506 344 561 q 258 351 258 450 q 301 201 258 253 q 422 149 343 149 m 375 943 l 515 1140 l 697 1140 l 499 943 l 375 943 m 438 788 q 281 826 346 788 q 188 939 215 864 l 264 971 q 335 913 286 933 q 438 893 383 893 q 539 913 490 893 q 610 971 588 933 l 686 939 q 593 826 658 864 q 438 788 528 788 z "},"ặ":{"ha":875,"x_min":50,"x_max":790,"o":"m 790 704 l 790 0 l 583 0 l 583 104 q 493 19 551 50 q 361 -11 435 -11 q 199 33 269 -11 q 90 160 129 78 q 50 351 50 243 q 90 544 50 460 q 200 676 129 629 q 361 722 271 722 q 493 690 435 722 q 583 604 551 658 l 583 704 l 790 704 m 422 149 q 542 201 500 149 q 583 354 583 254 q 542 508 583 454 q 422 561 500 561 q 301 506 344 561 q 258 351 258 450 q 301 201 258 253 q 422 149 343 149 m 533 -94 l 533 -279 l 340 -279 l 340 -94 l 533 -94 m 438 825 q 274 876 346 825 q 178 1028 201 928 l 274 1069 q 438 957 335 957 q 600 1069 539 957 l 696 1028 q 601 877 672 929 q 438 825 529 825 z "},"ằ":{"ha":875,"x_min":50,"x_max":790,"o":"m 790 704 l 790 0 l 583 0 l 583 104 q 493 19 551 50 q 361 -11 435 -11 q 199 33 269 -11 q 90 160 129 78 q 50 351 50 243 q 90 544 50 460 q 200 676 129 629 q 361 722 271 722 q 493 690 435 722 q 583 604 551 658 l 583 704 l 790 704 m 422 149 q 542 201 500 149 q 583 354 583 254 q 542 508 583 454 q 422 561 500 561 q 301 506 344 561 q 258 351 258 450 q 301 201 258 253 q 422 149 343 149 m 176 1140 l 358 1140 l 499 943 l 375 943 l 176 1140 m 438 788 q 281 826 346 788 q 188 939 215 864 l 264 971 q 335 913 286 933 q 438 893 383 893 q 539 913 490 893 q 610 971 588 933 l 686 939 q 593 826 658 864 q 438 788 528 788 z "},"ẳ":{"ha":875,"x_min":50,"x_max":790,"o":"m 790 704 l 790 0 l 583 0 l 583 104 q 493 19 551 50 q 361 -11 435 -11 q 199 33 269 -11 q 90 160 129 78 q 50 351 50 243 q 90 544 50 460 q 200 676 129 629 q 361 722 271 722 q 493 690 435 722 q 583 604 551 658 l 583 704 l 790 704 m 422 149 q 542 201 500 149 q 583 354 583 254 q 542 508 583 454 q 422 561 500 561 q 301 506 344 561 q 258 351 258 450 q 301 201 258 253 q 422 149 343 149 m 489 944 l 385 944 l 385 972 q 403 1010 385 997 q 451 1035 421 1024 q 469 1042 461 1039 q 476 1050 476 1046 q 465 1063 476 1057 q 429 1069 454 1069 q 350 1053 397 1069 l 324 1124 q 456 1149 386 1149 q 565 1125 524 1149 q 606 1064 606 1101 q 588 1024 606 1038 q 538 997 571 1010 q 501 978 513 986 q 489 956 489 969 l 489 944 m 438 788 q 281 826 346 788 q 188 939 215 864 l 264 971 q 335 913 286 933 q 438 893 383 893 q 539 913 490 893 q 610 971 588 933 l 686 939 q 593 826 658 864 q 438 788 528 788 z "},"ẵ":{"ha":875,"x_min":50,"x_max":790,"o":"m 790 704 l 790 0 l 583 0 l 583 104 q 493 19 551 50 q 361 -11 435 -11 q 199 33 269 -11 q 90 160 129 78 q 50 351 50 243 q 90 544 50 460 q 200 676 129 629 q 361 722 271 722 q 493 690 435 722 q 583 604 551 658 l 583 704 l 790 704 m 422 149 q 542 201 500 149 q 583 354 583 254 q 542 508 583 454 q 422 561 500 561 q 301 506 344 561 q 258 351 258 450 q 301 201 258 253 q 422 149 343 149 m 193 1001 q 238 1106 193 1064 q 344 1149 282 1149 q 395 1142 371 1149 q 451 1122 419 1135 q 493 1108 472 1114 q 531 1101 514 1101 q 592 1144 586 1101 l 681 1144 q 636 1040 681 1082 q 529 997 592 997 q 482 1003 504 997 q 422 1022 460 1010 q 381 1037 401 1031 q 343 1043 360 1043 q 282 1001 288 1043 l 193 1001 m 438 788 q 281 826 346 788 q 188 939 215 864 l 264 971 q 335 913 286 933 q 438 893 383 893 q 539 913 490 893 q 610 971 588 933 l 686 939 q 593 826 658 864 q 438 788 528 788 z "},"ǎ":{"ha":875,"x_min":50,"x_max":790,"o":"m 790 704 l 790 0 l 583 0 l 583 104 q 493 19 551 50 q 361 -11 435 -11 q 199 33 269 -11 q 90 160 129 78 q 50 351 50 243 q 90 544 50 460 q 200 676 129 629 q 361 722 271 722 q 493 690 435 722 q 583 604 551 658 l 583 704 l 790 704 m 422 149 q 542 201 500 149 q 583 354 583 254 q 542 508 583 454 q 422 561 500 561 q 301 506 344 561 q 258 351 258 450 q 301 201 258 253 q 422 149 343 149 m 682 1081 l 500 794 l 374 794 l 192 1081 l 356 1081 l 438 917 l 518 1081 l 682 1081 z "},"â":{"ha":875,"x_min":50,"x_max":790,"o":"m 790 704 l 790 0 l 583 0 l 583 104 q 493 19 551 50 q 361 -11 435 -11 q 199 33 269 -11 q 90 160 129 78 q 50 351 50 243 q 90 544 50 460 q 200 676 129 629 q 361 722 271 722 q 493 690 435 722 q 583 604 551 658 l 583 704 l 790 704 m 422 149 q 542 201 500 149 q 583 354 583 254 q 542 508 583 454 q 422 561 500 561 q 301 506 344 561 q 258 351 258 450 q 301 201 258 253 q 422 149 343 149 m 192 794 l 374 1081 l 500 1081 l 682 794 l 518 794 l 438 957 l 356 794 l 192 794 z "},"ấ":{"ha":875,"x_min":50,"x_max":843,"o":"m 790 704 l 790 0 l 583 0 l 583 104 q 493 19 551 50 q 361 -11 435 -11 q 199 33 269 -11 q 90 160 129 78 q 50 351 50 243 q 90 544 50 460 q 200 676 129 629 q 361 722 271 722 q 493 690 435 722 q 583 604 551 658 l 583 704 l 790 704 m 422 149 q 542 201 500 149 q 583 354 583 254 q 542 508 583 454 q 422 561 500 561 q 301 506 344 561 q 258 351 258 450 q 301 201 258 253 q 422 149 343 149 m 568 943 l 669 1140 l 843 1140 l 671 943 l 568 943 m 192 794 l 376 988 l 497 988 l 682 794 l 526 794 l 438 893 l 347 794 l 192 794 z "},"ậ":{"ha":875,"x_min":50,"x_max":790,"o":"m 790 704 l 790 0 l 583 0 l 583 104 q 493 19 551 50 q 361 -11 435 -11 q 199 33 269 -11 q 90 160 129 78 q 50 351 50 243 q 90 544 50 460 q 200 676 129 629 q 361 722 271 722 q 493 690 435 722 q 583 604 551 658 l 583 704 l 790 704 m 422 149 q 542 201 500 149 q 583 354 583 254 q 542 508 583 454 q 422 561 500 561 q 301 506 344 561 q 258 351 258 450 q 301 201 258 253 q 422 149 343 149 m 533 -94 l 533 -279 l 340 -279 l 340 -94 l 533 -94 m 192 794 l 374 1081 l 500 1081 l 682 794 l 518 794 l 438 957 l 356 794 l 192 794 z "},"ầ":{"ha":875,"x_min":50,"x_max":790,"o":"m 790 704 l 790 0 l 583 0 l 583 104 q 493 19 551 50 q 361 -11 435 -11 q 199 33 269 -11 q 90 160 129 78 q 50 351 50 243 q 90 544 50 460 q 200 676 129 629 q 361 722 271 722 q 493 690 435 722 q 583 604 551 658 l 583 704 l 790 704 m 422 149 q 542 201 500 149 q 583 354 583 254 q 542 508 583 454 q 422 561 500 561 q 301 506 344 561 q 258 351 258 450 q 301 201 258 253 q 422 149 343 149 m 457 1140 l 632 1140 l 731 943 l 628 943 l 457 1140 m 192 794 l 376 988 l 497 988 l 682 794 l 526 794 l 438 893 l 347 794 l 192 794 z "},"ẩ":{"ha":875,"x_min":50,"x_max":790,"o":"m 790 704 l 790 0 l 583 0 l 583 104 q 493 19 551 50 q 361 -11 435 -11 q 199 33 269 -11 q 90 160 129 78 q 50 351 50 243 q 90 544 50 460 q 200 676 129 629 q 361 722 271 722 q 493 690 435 722 q 583 604 551 658 l 583 704 l 790 704 m 422 149 q 542 201 500 149 q 583 354 583 254 q 542 508 583 454 q 422 561 500 561 q 301 506 344 561 q 258 351 258 450 q 301 201 258 253 q 422 149 343 149 m 671 944 l 567 944 l 567 972 q 585 1010 567 997 q 633 1035 603 1024 q 651 1042 643 1039 q 658 1050 658 1046 q 647 1063 658 1057 q 614 1069 636 1069 q 532 1053 579 1069 l 506 1124 q 639 1149 568 1149 q 747 1125 707 1149 q 788 1064 788 1101 q 770 1024 788 1038 q 719 997 753 1010 q 683 978 694 986 q 671 956 671 969 l 671 944 m 192 794 l 376 988 l 497 988 l 682 794 l 526 794 l 438 893 l 347 794 l 192 794 z "},"ẫ":{"ha":875,"x_min":50,"x_max":790,"o":"m 790 704 l 790 0 l 583 0 l 583 104 q 493 19 551 50 q 361 -11 435 -11 q 199 33 269 -11 q 90 160 129 78 q 50 351 50 243 q 90 544 50 460 q 200 676 129 629 q 361 722 271 722 q 493 690 435 722 q 583 604 551 658 l 583 704 l 790 704 m 422 149 q 542 201 500 149 q 583 354 583 254 q 542 508 583 454 q 422 561 500 561 q 301 506 344 561 q 258 351 258 450 q 301 201 258 253 q 422 149 343 149 m 193 1013 q 238 1117 193 1075 q 344 1160 282 1160 q 392 1153 369 1160 q 451 1135 414 1147 q 493 1120 472 1126 q 531 1114 514 1114 q 592 1156 586 1114 l 681 1156 q 636 1051 681 1093 q 529 1010 592 1010 q 422 1035 486 1010 q 391 1045 417 1036 q 343 1054 365 1054 q 282 1013 288 1054 l 193 1013 m 192 794 l 376 988 l 497 988 l 682 794 l 526 794 l 438 893 l 347 794 l 192 794 z "},"ȁ":{"ha":875,"x_min":50,"x_max":790,"o":"m 790 704 l 790 0 l 583 0 l 583 104 q 493 19 551 50 q 361 -11 435 -11 q 199 33 269 -11 q 90 160 129 78 q 50 351 50 243 q 90 544 50 460 q 200 676 129 629 q 361 722 271 722 q 493 690 435 722 q 583 604 551 658 l 583 704 l 790 704 m 422 149 q 542 201 500 149 q 583 354 583 254 q 542 508 583 454 q 422 561 500 561 q 301 506 344 561 q 258 351 258 450 q 301 201 258 253 q 422 149 343 149 m 186 1081 l 338 1081 l 385 794 l 294 794 l 186 1081 m 379 1081 l 531 1081 l 579 794 l 489 794 l 379 1081 z "},"ä":{"ha":875,"x_min":50,"x_max":790,"o":"m 790 704 l 790 0 l 583 0 l 583 104 q 493 19 551 50 q 361 -11 435 -11 q 199 33 269 -11 q 90 160 129 78 q 50 351 50 243 q 90 544 50 460 q 200 676 129 629 q 361 722 271 722 q 493 690 435 722 q 583 604 551 658 l 583 704 l 790 704 m 422 149 q 542 201 500 149 q 583 354 583 254 q 542 508 583 454 q 422 561 500 561 q 301 506 344 561 q 258 351 258 450 q 301 201 258 253 q 422 149 343 149 m 400 1028 l 400 844 l 207 844 l 207 1028 l 400 1028 m 667 1028 l 667 844 l 474 844 l 474 1028 l 667 1028 z "},"ȧ":{"ha":875,"x_min":50,"x_max":790,"o":"m 790 704 l 790 0 l 583 0 l 583 104 q 493 19 551 50 q 361 -11 435 -11 q 199 33 269 -11 q 90 160 129 78 q 50 351 50 243 q 90 544 50 460 q 200 676 129 629 q 361 722 271 722 q 493 690 435 722 q 583 604 551 658 l 583 704 l 790 704 m 422 149 q 542 201 500 149 q 583 354 583 254 q 542 508 583 454 q 422 561 500 561 q 301 506 344 561 q 258 351 258 450 q 301 201 258 253 q 422 149 343 149 m 549 1035 l 549 838 l 325 838 l 325 1035 l 549 1035 z "},"ạ":{"ha":875,"x_min":50,"x_max":790,"o":"m 790 704 l 790 0 l 583 0 l 583 104 q 493 19 551 50 q 361 -11 435 -11 q 199 33 269 -11 q 90 160 129 78 q 50 351 50 243 q 90 544 50 460 q 200 676 129 629 q 361 722 271 722 q 493 690 435 722 q 583 604 551 658 l 583 704 l 790 704 m 422 149 q 542 201 500 149 q 583 354 583 254 q 542 508 583 454 q 422 561 500 561 q 301 506 344 561 q 258 351 258 450 q 301 201 258 253 q 422 149 343 149 m 533 -94 l 533 -279 l 340 -279 l 340 -94 l 533 -94 z "},"à":{"ha":875,"x_min":50,"x_max":790,"o":"m 790 704 l 790 0 l 583 0 l 583 104 q 493 19 551 50 q 361 -11 435 -11 q 199 33 269 -11 q 90 160 129 78 q 50 351 50 243 q 90 544 50 460 q 200 676 129 629 q 361 722 271 722 q 493 690 435 722 q 583 604 551 658 l 583 704 l 790 704 m 422 149 q 542 201 500 149 q 583 354 583 254 q 542 508 583 454 q 422 561 500 561 q 301 506 344 561 q 258 351 258 450 q 301 201 258 253 q 422 149 343 149 m 158 1081 l 364 1081 l 501 794 l 372 794 l 158 1081 z "},"ả":{"ha":875,"x_min":50,"x_max":790,"o":"m 790 704 l 790 0 l 583 0 l 583 104 q 493 19 551 50 q 361 -11 435 -11 q 199 33 269 -11 q 90 160 129 78 q 50 351 50 243 q 90 544 50 460 q 200 676 129 629 q 361 722 271 722 q 493 690 435 722 q 583 604 551 658 l 583 704 l 790 704 m 422 149 q 542 201 500 149 q 583 354 583 254 q 542 508 583 454 q 422 561 500 561 q 301 506 344 561 q 258 351 258 450 q 301 201 258 253 q 422 149 343 149 m 492 794 l 386 794 l 386 829 q 400 878 386 858 q 438 917 414 897 q 460 939 453 929 q 468 960 468 949 q 421 992 468 992 q 351 979 388 992 l 324 1058 q 443 1085 382 1085 q 563 1054 519 1085 q 606 979 606 1024 q 588 925 606 946 q 539 882 571 904 q 503 852 515 865 q 492 822 492 839 l 492 794 z "},"ȃ":{"ha":875,"x_min":50,"x_max":790,"o":"m 790 704 l 790 0 l 583 0 l 583 104 q 493 19 551 50 q 361 -11 435 -11 q 199 33 269 -11 q 90 160 129 78 q 50 351 50 243 q 90 544 50 460 q 200 676 129 629 q 361 722 271 722 q 493 690 435 722 q 583 604 551 658 l 583 704 l 790 704 m 422 149 q 542 201 500 149 q 583 354 583 254 q 542 508 583 454 q 422 561 500 561 q 301 506 344 561 q 258 351 258 450 q 301 201 258 253 q 422 149 343 149 m 438 1063 q 600 1011 528 1063 q 696 861 672 960 l 600 821 q 438 932 538 932 q 274 821 336 932 l 178 861 q 274 1011 201 960 q 438 1063 346 1063 z "},"ā":{"ha":875,"x_min":50,"x_max":790,"o":"m 790 704 l 790 0 l 583 0 l 583 104 q 493 19 551 50 q 361 -11 435 -11 q 199 33 269 -11 q 90 160 129 78 q 50 351 50 243 q 90 544 50 460 q 200 676 129 629 q 361 722 271 722 q 493 690 435 722 q 583 604 551 658 l 583 704 l 790 704 m 422 149 q 542 201 500 149 q 583 354 583 254 q 542 508 583 454 q 422 561 500 561 q 301 506 344 561 q 258 351 258 450 q 301 201 258 253 q 422 149 343 149 m 218 1000 l 656 1000 l 656 869 l 218 869 l 218 1000 z "},"ą":{"ha":875,"x_min":50,"x_max":846,"o":"m 846 -253 q 703 -283 781 -283 q 573 -238 624 -283 q 522 -122 522 -193 q 583 8 522 -44 l 583 104 q 493 19 551 50 q 361 -11 435 -11 q 199 34 269 -11 q 89 161 128 79 q 50 351 50 243 q 90 544 50 460 q 200 675 129 628 q 361 722 271 722 q 493 690 435 722 q 583 604 551 658 l 583 704 l 790 704 l 790 0 l 778 0 q 690 -26 724 0 q 657 -94 657 -51 q 679 -152 657 -132 q 743 -172 701 -172 q 822 -153 782 -172 l 846 -253 m 422 149 q 542 201 500 149 q 583 354 583 254 q 542 508 583 454 q 422 561 500 561 q 301 506 344 561 q 258 351 258 450 q 301 201 258 253 q 422 149 343 149 z "},"å":{"ha":875,"x_min":50,"x_max":790,"o":"m 790 704 l 790 0 l 583 0 l 583 104 q 493 19 551 50 q 361 -11 435 -11 q 199 33 269 -11 q 90 160 129 78 q 50 351 50 243 q 90 544 50 460 q 200 676 129 629 q 361 722 271 722 q 493 690 435 722 q 583 604 551 658 l 583 704 l 790 704 m 422 149 q 542 201 500 149 q 583 354 583 254 q 542 508 583 454 q 422 561 500 561 q 301 506 344 561 q 258 351 258 450 q 301 201 258 253 q 422 149 343 149 m 438 788 q 328 831 372 788 q 283 939 283 875 q 328 1045 283 1001 q 438 1089 374 1089 q 546 1045 501 1089 q 590 939 590 1001 q 546 831 590 875 q 438 788 501 788 m 438 874 q 481 892 464 874 q 497 939 497 911 q 481 983 497 965 q 438 1001 464 1001 q 394 983 411 1001 q 376 939 376 965 q 394 892 376 911 q 438 874 411 874 z "},"ǻ":{"ha":875,"x_min":50,"x_max":790,"o":"m 438 789 q 327 834 372 789 q 282 944 282 879 q 327 1052 282 1008 q 438 1096 372 1096 q 501 1083 472 1096 l 601 1225 l 785 1217 l 579 1008 q 594 944 594 978 q 549 834 594 879 q 438 789 503 789 m 438 1008 q 393 990 411 1008 q 375 944 375 972 q 393 897 375 917 q 438 876 411 876 q 482 897 464 876 q 500 944 500 917 q 482 990 500 972 q 438 1008 464 1008 m 790 704 l 790 0 l 583 0 l 583 104 q 493 19 551 50 q 361 -11 435 -11 q 199 33 269 -11 q 90 160 129 78 q 50 351 50 243 q 90 544 50 460 q 200 676 129 629 q 361 722 271 722 q 493 690 435 722 q 583 604 551 658 l 583 704 l 790 704 m 422 149 q 542 201 500 149 q 583 354 583 254 q 542 508 583 454 q 422 561 500 561 q 301 506 344 561 q 258 351 258 450 q 301 201 258 253 q 422 149 343 149 z "},"ã":{"ha":875,"x_min":50,"x_max":790,"o":"m 790 704 l 790 0 l 583 0 l 583 104 q 493 19 551 50 q 361 -11 435 -11 q 199 33 269 -11 q 90 160 129 78 q 50 351 50 243 q 90 544 50 460 q 200 676 129 629 q 361 722 271 722 q 493 690 435 722 q 583 604 551 658 l 583 704 l 790 704 m 422 149 q 542 201 500 149 q 583 354 583 254 q 542 508 583 454 q 422 561 500 561 q 301 506 344 561 q 258 351 258 450 q 301 201 258 253 q 422 149 343 149 m 193 839 q 235 991 193 940 q 344 1042 278 1042 q 395 1031 371 1042 q 451 1001 419 1021 q 498 977 482 985 q 531 969 514 969 q 573 988 557 969 q 592 1038 589 1006 l 681 1038 q 638 886 681 938 q 529 835 596 835 q 478 845 503 835 q 422 875 454 856 q 376 899 392 892 q 343 907 360 907 q 301 889 317 907 q 282 839 285 871 l 193 839 z "},"æ":{"ha":1203,"x_min":57,"x_max":1154,"o":"m 1154 335 l 699 335 q 747 196 701 246 q 885 146 793 146 q 988 164 935 146 q 1088 217 1040 182 l 1142 75 q 1019 12 1093 35 q 871 -11 946 -11 q 697 25 771 -11 q 581 131 624 61 q 485 26 549 63 q 336 -11 422 -11 q 192 18 256 -11 q 93 99 129 47 q 57 219 57 151 q 147 387 57 335 q 447 439 238 439 l 499 439 l 499 444 q 472 536 499 508 q 383 564 444 564 q 262 545 325 564 q 142 492 199 526 l 86 635 q 232 697 144 672 q 394 722 319 722 q 624 629 556 722 q 725 699 667 675 q 853 722 783 722 q 1010 677 942 722 q 1117 551 1079 632 q 1154 364 1154 469 l 1154 335 m 847 575 q 706 439 732 575 l 975 439 q 935 540 968 506 q 847 575 903 575 m 364 135 q 463 178 428 135 q 499 290 499 222 l 499 338 l 458 338 q 306 310 353 338 q 260 228 260 283 q 289 160 260 186 q 364 135 318 135 z "},"ǽ":{"ha":1203,"x_min":57,"x_max":1154,"o":"m 1154 335 l 699 335 q 747 196 701 246 q 885 146 793 146 q 988 164 935 146 q 1088 217 1040 182 l 1142 75 q 1019 12 1093 35 q 871 -11 946 -11 q 697 25 771 -11 q 581 131 624 61 q 485 26 549 63 q 336 -11 422 -11 q 192 18 256 -11 q 93 99 129 47 q 57 219 57 151 q 147 387 57 335 q 447 439 238 439 l 499 439 l 499 444 q 472 536 499 508 q 383 564 444 564 q 262 545 325 564 q 142 492 199 526 l 86 635 q 232 697 144 672 q 394 722 319 722 q 624 629 556 722 q 725 699 667 675 q 853 722 783 722 q 1010 677 942 722 q 1117 551 1079 632 q 1154 364 1154 469 l 1154 335 m 847 575 q 706 439 732 575 l 975 439 q 935 540 968 506 q 847 575 903 575 m 364 135 q 463 178 428 135 q 499 290 499 222 l 499 338 l 458 338 q 306 310 353 338 q 260 228 260 283 q 289 160 260 186 q 364 135 318 135 m 533 794 l 671 1081 l 876 1081 l 663 794 l 533 794 z "},"b":{"ha":876,"x_min":85,"x_max":826,"o":"m 515 722 q 678 677 607 722 q 788 549 749 632 q 826 358 826 467 q 787 166 826 250 q 676 35 747 82 q 515 -11 606 -11 q 383 20 442 -11 q 293 106 324 51 l 293 0 l 85 0 l 85 1022 l 294 1022 l 294 606 q 384 691 325 660 q 515 722 443 722 m 456 149 q 575 203 533 149 q 617 358 617 257 q 575 508 617 456 q 456 561 533 561 q 335 508 378 561 q 293 356 293 454 q 335 202 293 256 q 456 149 378 149 z "},"c":{"ha":707,"x_min":50,"x_max":692,"o":"m 418 -11 q 148 86 246 -11 q 50 351 50 183 q 97 545 50 461 q 230 676 144 629 q 428 722 315 722 q 576 699 504 722 q 692 635 649 675 l 636 489 q 544 541 594 522 q 447 560 494 560 q 313 508 361 560 q 265 356 265 456 q 313 202 265 254 q 447 150 360 150 q 544 169 494 150 q 636 221 594 188 l 692 75 q 572 12 646 35 q 418 -11 499 -11 z "},"ć":{"ha":707,"x_min":50,"x_max":699,"o":"m 418 -11 q 148 86 246 -11 q 50 351 50 183 q 97 545 50 461 q 230 676 144 629 q 428 722 315 722 q 576 699 504 722 q 692 635 649 675 l 636 489 q 544 541 594 522 q 447 560 494 560 q 313 508 361 560 q 265 356 265 456 q 313 202 265 254 q 447 150 360 150 q 544 169 494 150 q 636 221 594 188 l 692 75 q 572 12 646 35 q 418 -11 499 -11 m 356 794 l 493 1081 l 699 1081 l 485 794 l 356 794 z "},"č":{"ha":707,"x_min":50,"x_max":692,"o":"m 418 -11 q 148 86 246 -11 q 50 351 50 183 q 97 545 50 461 q 230 676 144 629 q 428 722 315 722 q 576 699 504 722 q 692 635 649 675 l 636 489 q 544 541 594 522 q 447 560 494 560 q 313 508 361 560 q 265 356 265 456 q 313 202 265 254 q 447 150 360 150 q 544 169 494 150 q 636 221 594 188 l 692 75 q 572 12 646 35 q 418 -11 499 -11 m 665 1081 l 483 794 l 357 794 l 175 1081 l 339 1081 l 421 917 l 501 1081 l 665 1081 z "},"ç":{"ha":707,"x_min":50,"x_max":692,"o":"m 692 75 q 585 17 650 39 q 449 -10 521 -6 l 442 -57 q 460 -56 449 -56 q 545 -82 513 -56 q 578 -153 578 -108 q 528 -242 578 -208 q 388 -276 478 -276 q 322 -270 357 -276 q 257 -251 286 -264 l 274 -169 q 383 -189 338 -189 q 447 -153 447 -189 q 435 -133 447 -140 q 401 -125 424 -125 q 351 -135 383 -125 l 324 -106 l 336 -4 q 126 112 201 18 q 50 351 50 206 q 97 545 50 461 q 230 676 144 629 q 428 722 315 722 q 576 699 504 722 q 692 635 649 675 l 636 489 q 544 541 594 522 q 447 560 494 560 q 313 508 361 560 q 265 356 265 456 q 313 202 265 254 q 447 150 360 150 q 544 169 494 150 q 636 221 594 188 l 692 75 z "},"ḉ":{"ha":707,"x_min":50,"x_max":699,"o":"m 485 794 l 356 794 l 493 1081 l 699 1081 l 485 794 m 447 560 q 313 508 361 560 q 265 356 265 456 q 313 202 265 254 q 447 150 360 150 q 544 169 494 150 q 636 221 594 188 l 692 75 q 585 17 650 39 q 449 -10 521 -6 l 442 -57 q 460 -56 449 -56 q 545 -82 513 -56 q 578 -153 578 -108 q 528 -242 578 -208 q 388 -276 478 -276 q 322 -270 357 -276 q 257 -251 286 -264 l 274 -169 q 383 -189 338 -189 q 447 -153 447 -189 q 435 -133 447 -140 q 401 -125 424 -125 q 351 -135 383 -125 l 324 -106 l 336 -4 q 126 112 201 18 q 50 351 50 206 q 97 545 50 461 q 230 676 144 629 q 428 722 315 722 q 576 699 504 722 q 692 635 649 675 l 636 489 q 544 541 594 522 q 447 560 494 560 z "},"ĉ":{"ha":707,"x_min":50,"x_max":692,"o":"m 418 -11 q 148 86 246 -11 q 50 351 50 183 q 97 545 50 461 q 230 676 144 629 q 428 722 315 722 q 576 699 504 722 q 692 635 649 675 l 636 489 q 544 541 594 522 q 447 560 494 560 q 313 508 361 560 q 265 356 265 456 q 313 202 265 254 q 447 150 360 150 q 544 169 494 150 q 636 221 594 188 l 692 75 q 572 12 646 35 q 418 -11 499 -11 m 175 794 l 357 1081 l 483 1081 l 665 794 l 501 794 l 421 957 l 339 794 l 175 794 z "},"ċ":{"ha":707,"x_min":50,"x_max":692,"o":"m 418 -11 q 148 86 246 -11 q 50 351 50 183 q 97 545 50 461 q 230 676 144 629 q 428 722 315 722 q 576 699 504 722 q 692 635 649 675 l 636 489 q 544 541 594 522 q 447 560 494 560 q 313 508 361 560 q 265 356 265 456 q 313 202 265 254 q 447 150 360 150 q 544 169 494 150 q 636 221 594 188 l 692 75 q 572 12 646 35 q 418 -11 499 -11 m 532 1035 l 532 838 l 308 838 l 308 1035 l 532 1035 z "},"d":{"ha":875,"x_min":50,"x_max":790,"o":"m 790 1022 l 790 0 l 583 0 l 583 104 q 493 19 551 50 q 361 -11 435 -11 q 200 35 271 -11 q 90 166 129 82 q 50 358 50 250 q 90 549 50 467 q 199 677 129 632 q 361 722 269 722 q 490 692 432 722 q 581 610 549 663 l 581 1022 l 790 1022 m 422 149 q 542 202 500 149 q 583 356 583 256 q 541 508 583 454 q 422 561 499 561 q 301 508 344 561 q 258 358 258 456 q 301 203 258 258 q 422 149 344 149 z "},"ð":{"ha":850,"x_min":50,"x_max":800,"o":"m 672 806 q 767 626 735 724 q 800 425 800 528 q 699 102 800 215 q 413 -11 599 -11 q 224 31 306 -11 q 96 148 142 72 q 50 322 50 224 q 94 494 50 418 q 215 611 138 569 q 393 653 293 653 q 588 586 517 653 q 492 754 558 686 l 243 685 l 213 793 l 379 839 q 213 893 306 878 l 260 1039 q 585 896 450 1011 l 764 946 l 792 839 l 672 806 m 421 149 q 539 194 497 149 q 581 322 581 239 q 540 453 581 408 q 421 497 499 497 q 300 452 342 497 q 258 322 258 407 q 300 193 258 238 q 421 149 342 149 z "},"ď":{"ha":875,"x_min":50,"x_max":939,"o":"m 581 1022 l 790 1022 l 790 0 l 583 0 l 583 104 q 493 19 551 50 q 361 -11 435 -11 q 200 35 271 -11 q 90 166 129 82 q 50 358 50 250 q 90 549 50 467 q 199 677 129 632 q 361 722 269 722 q 490 692 432 722 q 581 610 549 663 l 581 1022 m 939 1022 l 901 744 l 829 744 l 829 1022 l 939 1022 m 422 149 q 542 202 500 149 q 583 356 583 256 q 541 508 583 454 q 422 561 499 561 q 301 508 344 561 q 258 358 258 456 q 301 203 258 258 q 422 149 344 149 z "},"đ":{"ha":875,"x_min":50,"x_max":914,"o":"m 914 778 l 790 778 l 790 0 l 583 0 l 583 104 q 493 19 551 50 q 361 -11 435 -11 q 200 35 271 -11 q 90 166 129 82 q 50 358 50 250 q 90 549 50 467 q 199 677 129 632 q 361 722 269 722 q 490 692 432 722 q 581 610 549 663 l 581 778 l 314 778 l 314 924 l 581 924 l 581 1022 l 790 1022 l 790 924 l 914 924 l 914 778 m 422 149 q 542 202 500 149 q 583 356 583 256 q 541 508 583 454 q 422 561 499 561 q 301 508 344 561 q 258 358 258 456 q 301 203 258 258 q 422 149 344 149 z "},"ḍ":{"ha":875,"x_min":50,"x_max":790,"o":"m 790 1022 l 790 0 l 583 0 l 583 104 q 493 19 551 50 q 361 -11 435 -11 q 200 35 271 -11 q 90 166 129 82 q 50 358 50 250 q 90 549 50 467 q 199 677 129 632 q 361 722 269 722 q 490 692 432 722 q 581 610 549 663 l 581 1022 l 790 1022 m 422 149 q 542 202 500 149 q 583 356 583 256 q 541 508 583 454 q 422 561 499 561 q 301 508 344 561 q 258 358 258 456 q 301 203 258 258 q 422 149 344 149 m 535 -94 l 535 -279 l 342 -279 l 342 -94 l 535 -94 z "},"ḏ":{"ha":875,"x_min":50,"x_max":790,"o":"m 790 1022 l 790 0 l 583 0 l 583 104 q 493 19 551 50 q 361 -11 435 -11 q 200 35 271 -11 q 90 166 129 82 q 50 358 50 250 q 90 549 50 467 q 199 677 129 632 q 361 722 269 722 q 490 692 432 722 q 581 610 549 663 l 581 1022 l 790 1022 m 422 149 q 542 202 500 149 q 583 356 583 256 q 541 508 583 454 q 422 561 499 561 q 301 508 344 561 q 258 358 258 456 q 301 203 258 258 q 422 149 344 149 m 219 -126 l 657 -126 l 657 -249 l 219 -249 l 219 -126 z "},"ǆ":{"ha":1611,"x_min":50,"x_max":1563,"o":"m 790 1022 l 790 0 l 583 0 l 583 104 q 493 19 551 50 q 361 -11 435 -11 q 200 35 271 -11 q 90 166 129 82 q 50 358 50 250 q 90 549 50 467 q 199 677 129 632 q 361 722 269 722 q 490 692 432 722 q 581 610 549 663 l 581 1022 l 790 1022 m 422 149 q 542 202 500 149 q 583 356 583 256 q 541 508 583 454 q 422 561 499 561 q 301 508 344 561 q 258 358 258 456 q 301 203 258 258 q 422 149 344 149 m 1563 157 l 1563 0 l 942 0 l 942 147 l 1297 547 l 947 547 l 947 704 l 1549 704 l 1549 563 l 1188 157 l 1563 157 m 1499 1081 l 1317 794 l 1190 794 l 1008 1081 l 1172 1081 l 1254 917 l 1335 1081 l 1499 1081 z "},"e":{"ha":764,"x_min":50,"x_max":717,"o":"m 717 335 l 253 335 q 304 191 258 236 q 440 146 350 146 q 549 164 494 146 q 649 217 603 182 l 704 75 q 580 12 654 35 q 431 -11 506 -11 q 151 87 253 -11 q 50 354 50 185 q 94 545 50 461 q 217 676 138 629 q 396 722 296 722 q 631 626 544 722 q 717 365 717 529 l 717 335 m 401 575 q 305 540 342 575 q 257 439 268 506 l 536 439 q 401 575 519 575 z "},"é":{"ha":764,"x_min":50,"x_max":717,"o":"m 717 335 l 253 335 q 304 191 258 236 q 440 146 350 146 q 549 164 494 146 q 649 217 603 182 l 704 75 q 580 12 654 35 q 431 -11 506 -11 q 151 87 253 -11 q 50 354 50 185 q 94 545 50 461 q 217 676 138 629 q 396 722 296 722 q 631 626 544 722 q 717 365 717 529 l 717 335 m 401 575 q 305 540 342 575 q 257 439 268 506 l 536 439 q 401 575 519 575 m 331 794 l 468 1081 l 674 1081 l 460 794 l 331 794 z "},"ĕ":{"ha":764,"x_min":50,"x_max":717,"o":"m 717 335 l 253 335 q 304 191 258 236 q 440 146 350 146 q 549 164 494 146 q 649 217 603 182 l 704 75 q 580 12 654 35 q 431 -11 506 -11 q 151 87 253 -11 q 50 354 50 185 q 94 545 50 461 q 217 676 138 629 q 396 722 296 722 q 631 626 544 722 q 717 365 717 529 l 717 335 m 401 575 q 305 540 342 575 q 257 439 268 506 l 536 439 q 401 575 519 575 m 396 825 q 232 876 304 825 q 136 1028 160 928 l 232 1069 q 396 957 293 957 q 558 1069 497 957 l 654 1028 q 559 877 631 929 q 396 825 488 825 z "},"ě":{"ha":764,"x_min":50,"x_max":717,"o":"m 717 335 l 253 335 q 304 191 258 236 q 440 146 350 146 q 549 164 494 146 q 649 217 603 182 l 704 75 q 580 12 654 35 q 431 -11 506 -11 q 151 87 253 -11 q 50 354 50 185 q 94 545 50 461 q 217 676 138 629 q 396 722 296 722 q 631 626 544 722 q 717 365 717 529 l 717 335 m 401 575 q 305 540 342 575 q 257 439 268 506 l 536 439 q 401 575 519 575 m 640 1081 l 458 794 l 332 794 l 150 1081 l 314 1081 l 396 917 l 476 1081 l 640 1081 z "},"ḝ":{"ha":764,"x_min":50,"x_max":717,"o":"m 396 825 q 232 876 304 825 q 136 1028 160 928 l 232 1069 q 396 957 293 957 q 558 1069 497 957 l 654 1028 q 559 877 631 929 q 396 825 488 825 m 717 335 l 253 335 q 304 191 258 236 q 440 146 350 146 q 549 164 494 146 q 649 217 603 182 l 704 75 q 597 18 660 40 q 465 -10 533 -4 l 458 -57 q 476 -56 465 -56 q 562 -82 529 -56 q 594 -153 594 -108 q 544 -242 594 -208 q 404 -276 494 -276 q 339 -270 375 -276 q 274 -251 303 -264 l 290 -169 q 400 -189 354 -189 q 464 -153 464 -189 q 452 -133 464 -140 q 418 -125 440 -125 q 368 -135 400 -125 l 340 -106 l 353 -6 q 130 110 210 15 q 50 354 50 206 q 94 545 50 461 q 217 676 138 629 q 396 722 296 722 q 631 626 544 722 q 717 365 717 529 l 717 335 m 401 575 q 305 540 342 575 q 257 439 268 506 l 536 439 q 401 575 519 575 z "},"ê":{"ha":764,"x_min":50,"x_max":717,"o":"m 717 335 l 253 335 q 304 191 258 236 q 440 146 350 146 q 549 164 494 146 q 649 217 603 182 l 704 75 q 580 12 654 35 q 431 -11 506 -11 q 151 87 253 -11 q 50 354 50 185 q 94 545 50 461 q 217 676 138 629 q 396 722 296 722 q 631 626 544 722 q 717 365 717 529 l 717 335 m 401 575 q 305 540 342 575 q 257 439 268 506 l 536 439 q 401 575 519 575 m 150 794 l 332 1081 l 458 1081 l 640 794 l 476 794 l 396 957 l 314 794 l 150 794 z "},"ế":{"ha":764,"x_min":50,"x_max":801,"o":"m 717 335 l 253 335 q 304 191 258 236 q 440 146 350 146 q 549 164 494 146 q 649 217 603 182 l 704 75 q 580 12 654 35 q 431 -11 506 -11 q 151 87 253 -11 q 50 354 50 185 q 94 545 50 461 q 217 676 138 629 q 396 722 296 722 q 631 626 544 722 q 717 365 717 529 l 717 335 m 401 575 q 305 540 342 575 q 257 439 268 506 l 536 439 q 401 575 519 575 m 526 943 l 628 1140 l 801 1140 l 629 943 l 526 943 m 150 794 l 335 988 l 456 988 l 640 794 l 485 794 l 396 893 l 306 794 l 150 794 z "},"ệ":{"ha":764,"x_min":50,"x_max":717,"o":"m 717 335 l 253 335 q 304 191 258 236 q 440 146 350 146 q 549 164 494 146 q 649 217 603 182 l 704 75 q 580 12 654 35 q 431 -11 506 -11 q 151 87 253 -11 q 50 354 50 185 q 94 545 50 461 q 217 676 138 629 q 396 722 296 722 q 631 626 544 722 q 717 365 717 529 l 717 335 m 401 575 q 305 540 342 575 q 257 439 268 506 l 536 439 q 401 575 519 575 m 521 -94 l 521 -279 l 328 -279 l 328 -94 l 521 -94 m 150 794 l 332 1081 l 458 1081 l 640 794 l 476 794 l 396 957 l 314 794 l 150 794 z "},"ề":{"ha":764,"x_min":50,"x_max":717,"o":"m 717 335 l 253 335 q 304 191 258 236 q 440 146 350 146 q 549 164 494 146 q 649 217 603 182 l 704 75 q 580 12 654 35 q 431 -11 506 -11 q 151 87 253 -11 q 50 354 50 185 q 94 545 50 461 q 217 676 138 629 q 396 722 296 722 q 631 626 544 722 q 717 365 717 529 l 717 335 m 401 575 q 305 540 342 575 q 257 439 268 506 l 536 439 q 401 575 519 575 m 415 1140 l 590 1140 l 689 943 l 586 943 l 415 1140 m 150 794 l 335 988 l 456 988 l 640 794 l 485 794 l 396 893 l 306 794 l 150 794 z "},"ể":{"ha":764,"x_min":50,"x_max":746,"o":"m 717 335 l 253 335 q 304 191 258 236 q 440 146 350 146 q 549 164 494 146 q 649 217 603 182 l 704 75 q 580 12 654 35 q 431 -11 506 -11 q 151 87 253 -11 q 50 354 50 185 q 94 545 50 461 q 217 676 138 629 q 396 722 296 722 q 631 626 544 722 q 717 365 717 529 l 717 335 m 401 575 q 305 540 342 575 q 257 439 268 506 l 536 439 q 401 575 519 575 m 629 944 l 525 944 l 525 972 q 543 1010 525 997 q 592 1035 561 1024 q 609 1042 601 1039 q 617 1050 617 1046 q 606 1063 617 1057 q 572 1069 594 1069 q 490 1053 538 1069 l 464 1124 q 597 1149 526 1149 q 706 1125 665 1149 q 746 1064 746 1101 q 728 1024 746 1038 q 678 997 711 1010 q 641 978 653 986 q 629 956 629 969 l 629 944 m 150 794 l 335 988 l 456 988 l 640 794 l 485 794 l 396 893 l 306 794 l 150 794 z "},"ễ":{"ha":764,"x_min":50,"x_max":717,"o":"m 717 335 l 253 335 q 304 191 258 236 q 440 146 350 146 q 549 164 494 146 q 649 217 603 182 l 704 75 q 580 12 654 35 q 431 -11 506 -11 q 151 87 253 -11 q 50 354 50 185 q 94 545 50 461 q 217 676 138 629 q 396 722 296 722 q 631 626 544 722 q 717 365 717 529 l 717 335 m 401 575 q 305 540 342 575 q 257 439 268 506 l 536 439 q 401 575 519 575 m 151 1013 q 196 1117 151 1075 q 303 1160 240 1160 q 350 1153 328 1160 q 410 1135 372 1147 q 451 1120 431 1126 q 489 1114 472 1114 q 550 1156 544 1114 l 639 1156 q 594 1051 639 1093 q 488 1010 550 1010 q 381 1035 444 1010 q 349 1045 375 1036 q 301 1054 324 1054 q 240 1013 246 1054 l 151 1013 m 150 794 l 335 988 l 456 988 l 640 794 l 485 794 l 396 893 l 306 794 l 150 794 z "},"ȅ":{"ha":764,"x_min":50,"x_max":717,"o":"m 717 335 l 253 335 q 304 191 258 236 q 440 146 350 146 q 549 164 494 146 q 649 217 603 182 l 704 75 q 580 12 654 35 q 431 -11 506 -11 q 151 87 253 -11 q 50 354 50 185 q 94 545 50 461 q 217 676 138 629 q 396 722 296 722 q 631 626 544 722 q 717 365 717 529 l 717 335 m 401 575 q 305 540 342 575 q 257 439 268 506 l 536 439 q 401 575 519 575 m 144 1081 l 296 1081 l 343 794 l 253 794 l 144 1081 m 338 1081 l 489 1081 l 538 794 l 447 794 l 338 1081 z "},"ë":{"ha":764,"x_min":50,"x_max":717,"o":"m 717 335 l 253 335 q 304 191 258 236 q 440 146 350 146 q 549 164 494 146 q 649 217 603 182 l 704 75 q 580 12 654 35 q 431 -11 506 -11 q 151 87 253 -11 q 50 354 50 185 q 94 545 50 461 q 217 676 138 629 q 396 722 296 722 q 631 626 544 722 q 717 365 717 529 l 717 335 m 401 575 q 305 540 342 575 q 257 439 268 506 l 536 439 q 401 575 519 575 m 358 1028 l 358 844 l 165 844 l 165 1028 l 358 1028 m 625 1028 l 625 844 l 432 844 l 432 1028 l 625 1028 z "},"ė":{"ha":764,"x_min":50,"x_max":717,"o":"m 717 335 l 253 335 q 304 191 258 236 q 440 146 350 146 q 549 164 494 146 q 649 217 603 182 l 704 75 q 580 12 654 35 q 431 -11 506 -11 q 151 87 253 -11 q 50 354 50 185 q 94 545 50 461 q 217 676 138 629 q 396 722 296 722 q 631 626 544 722 q 717 365 717 529 l 717 335 m 401 575 q 305 540 342 575 q 257 439 268 506 l 536 439 q 401 575 519 575 m 507 1035 l 507 838 l 283 838 l 283 1035 l 507 1035 z "},"ẹ":{"ha":764,"x_min":50,"x_max":717,"o":"m 717 335 l 253 335 q 304 191 258 236 q 440 146 350 146 q 549 164 494 146 q 649 217 603 182 l 704 75 q 580 12 654 35 q 431 -11 506 -11 q 151 87 253 -11 q 50 354 50 185 q 94 545 50 461 q 217 676 138 629 q 396 722 296 722 q 631 626 544 722 q 717 365 717 529 l 717 335 m 401 575 q 305 540 342 575 q 257 439 268 506 l 536 439 q 401 575 519 575 m 521 -94 l 521 -279 l 328 -279 l 328 -94 l 521 -94 z "},"è":{"ha":764,"x_min":50,"x_max":717,"o":"m 717 335 l 253 335 q 304 191 258 236 q 440 146 350 146 q 549 164 494 146 q 649 217 603 182 l 704 75 q 580 12 654 35 q 431 -11 506 -11 q 151 87 253 -11 q 50 354 50 185 q 94 545 50 461 q 217 676 138 629 q 396 722 296 722 q 631 626 544 722 q 717 365 717 529 l 717 335 m 401 575 q 305 540 342 575 q 257 439 268 506 l 536 439 q 401 575 519 575 m 117 1081 l 322 1081 l 460 794 l 331 794 l 117 1081 z "},"ẻ":{"ha":764,"x_min":50,"x_max":717,"o":"m 717 335 l 253 335 q 304 191 258 236 q 440 146 350 146 q 549 164 494 146 q 649 217 603 182 l 704 75 q 580 12 654 35 q 431 -11 506 -11 q 151 87 253 -11 q 50 354 50 185 q 94 545 50 461 q 217 676 138 629 q 396 722 296 722 q 631 626 544 722 q 717 365 717 529 l 717 335 m 401 575 q 305 540 342 575 q 257 439 268 506 l 536 439 q 401 575 519 575 m 450 794 l 344 794 l 344 829 q 358 878 344 858 q 396 917 372 897 q 419 939 411 929 q 426 960 426 949 q 379 992 426 992 q 310 979 346 992 l 282 1058 q 401 1085 340 1085 q 521 1054 478 1085 q 564 979 564 1024 q 547 925 564 946 q 497 882 529 904 q 462 852 474 865 q 450 822 450 839 l 450 794 z "},"ȇ":{"ha":764,"x_min":50,"x_max":717,"o":"m 717 335 l 253 335 q 304 191 258 236 q 440 146 350 146 q 549 164 494 146 q 649 217 603 182 l 704 75 q 580 12 654 35 q 431 -11 506 -11 q 151 87 253 -11 q 50 354 50 185 q 94 545 50 461 q 217 676 138 629 q 396 722 296 722 q 631 626 544 722 q 717 365 717 529 l 717 335 m 401 575 q 305 540 342 575 q 257 439 268 506 l 536 439 q 401 575 519 575 m 396 1063 q 558 1011 486 1063 q 654 861 631 960 l 558 821 q 396 932 496 932 q 232 821 294 932 l 136 861 q 232 1011 160 960 q 396 1063 304 1063 z "},"ē":{"ha":764,"x_min":50,"x_max":717,"o":"m 717 335 l 253 335 q 304 191 258 236 q 440 146 350 146 q 549 164 494 146 q 649 217 603 182 l 704 75 q 580 12 654 35 q 431 -11 506 -11 q 151 87 253 -11 q 50 354 50 185 q 94 545 50 461 q 217 676 138 629 q 396 722 296 722 q 631 626 544 722 q 717 365 717 529 l 717 335 m 401 575 q 305 540 342 575 q 257 439 268 506 l 536 439 q 401 575 519 575 m 176 1000 l 614 1000 l 614 869 l 176 869 l 176 1000 z "},"ḗ":{"ha":764,"x_min":50,"x_max":717,"o":"m 717 335 l 253 335 q 304 191 258 236 q 440 146 350 146 q 549 164 494 146 q 649 217 603 182 l 704 75 q 580 12 654 35 q 431 -11 506 -11 q 151 87 253 -11 q 50 354 50 185 q 94 545 50 461 q 217 676 138 629 q 396 722 296 722 q 631 626 544 722 q 717 365 717 529 l 717 335 m 401 575 q 305 540 342 575 q 257 439 268 506 l 536 439 q 401 575 519 575 m 176 1000 l 614 1000 l 614 869 l 176 869 l 176 1000 m 331 1063 l 468 1349 l 674 1349 l 460 1063 l 331 1063 z "},"ḕ":{"ha":764,"x_min":50,"x_max":717,"o":"m 717 335 l 253 335 q 304 191 258 236 q 440 146 350 146 q 549 164 494 146 q 649 217 603 182 l 704 75 q 580 12 654 35 q 431 -11 506 -11 q 151 87 253 -11 q 50 354 50 185 q 94 545 50 461 q 217 676 138 629 q 396 722 296 722 q 631 626 544 722 q 717 365 717 529 l 717 335 m 401 575 q 305 540 342 575 q 257 439 268 506 l 536 439 q 401 575 519 575 m 176 1000 l 614 1000 l 614 869 l 176 869 l 176 1000 m 117 1349 l 322 1349 l 460 1063 l 331 1063 l 117 1349 z "},"ę":{"ha":764,"x_min":50,"x_max":717,"o":"m 717 335 l 253 335 q 304 191 258 236 q 440 146 350 146 q 549 164 494 146 q 649 217 603 182 l 704 76 q 677 56 693 65 q 622 29 661 47 q 540 -28 564 0 q 515 -94 515 -57 q 538 -152 515 -132 q 600 -172 560 -172 q 679 -153 640 -172 l 703 -253 q 561 -283 635 -283 q 430 -239 481 -283 q 379 -125 379 -194 q 428 -11 379 -57 q 151 88 251 -10 q 50 354 50 186 q 94 545 50 461 q 217 676 138 629 q 396 722 296 722 q 631 626 544 722 q 717 365 717 529 l 717 335 m 401 575 q 306 540 343 575 q 257 439 269 506 l 536 439 q 401 575 519 575 z "},"ẽ":{"ha":764,"x_min":50,"x_max":717,"o":"m 717 335 l 253 335 q 304 191 258 236 q 440 146 350 146 q 549 164 494 146 q 649 217 603 182 l 704 75 q 580 12 654 35 q 431 -11 506 -11 q 151 87 253 -11 q 50 354 50 185 q 94 545 50 461 q 217 676 138 629 q 396 722 296 722 q 631 626 544 722 q 717 365 717 529 l 717 335 m 401 575 q 305 540 342 575 q 257 439 268 506 l 536 439 q 401 575 519 575 m 151 839 q 194 991 151 940 q 303 1042 236 1042 q 353 1031 329 1042 q 410 1001 378 1021 q 456 977 440 985 q 489 969 472 969 q 531 988 515 969 q 550 1038 547 1006 l 639 1038 q 597 886 639 938 q 488 835 554 835 q 437 845 461 835 q 381 875 413 856 q 334 899 350 892 q 301 907 318 907 q 259 889 275 907 q 240 839 243 871 l 151 839 z "},"ə":{"ha":764,"x_min":49,"x_max":714,"o":"m 349 722 q 541 677 458 722 q 669 549 624 632 q 714 356 714 467 q 672 164 714 247 q 553 35 629 81 q 379 -11 478 -11 q 137 83 225 -11 q 49 343 49 178 l 49 376 l 515 376 q 465 519 508 474 q 335 564 421 564 q 117 493 238 564 l 60 633 q 190 699 114 675 q 349 722 267 722 m 371 133 q 465 168 429 133 q 513 269 501 203 l 233 269 q 371 133 250 133 z "},"f":{"ha":535,"x_min":6,"x_max":522,"o":"m 454 857 q 376 830 406 857 q 347 743 347 803 l 347 704 l 494 704 l 494 547 l 347 547 l 347 0 l 138 0 l 138 547 l 6 547 l 6 704 l 138 704 l 138 749 q 206 956 138 882 q 403 1029 274 1029 q 522 1011 475 1029 l 522 847 q 454 857 482 857 z "},"g":{"ha":881,"x_min":50,"x_max":797,"o":"m 797 704 l 797 32 q 700 -224 797 -136 q 417 -311 603 -311 q 125 -246 249 -311 l 157 -90 q 410 -154 285 -154 q 544 -112 500 -154 q 589 17 589 -69 l 589 139 q 496 53 556 88 q 364 19 436 19 q 201 63 272 19 q 90 187 131 107 q 50 371 50 267 q 90 555 50 475 q 201 678 131 635 q 364 722 272 722 q 497 690 438 722 q 589 604 557 658 l 589 704 l 797 704 m 425 179 q 545 230 501 179 q 589 371 589 281 q 546 510 589 460 q 425 561 503 561 q 303 510 347 561 q 258 371 258 460 q 303 231 258 282 q 425 179 347 179 z "},"ğ":{"ha":881,"x_min":50,"x_max":797,"o":"m 797 704 l 797 32 q 700 -224 797 -136 q 417 -311 603 -311 q 125 -246 249 -311 l 157 -90 q 410 -154 285 -154 q 544 -112 500 -154 q 589 17 589 -69 l 589 139 q 496 53 556 88 q 364 19 436 19 q 201 63 272 19 q 90 187 131 107 q 50 371 50 267 q 90 555 50 475 q 201 678 131 635 q 364 722 272 722 q 497 690 438 722 q 589 604 557 658 l 589 704 l 797 704 m 425 179 q 545 230 501 179 q 589 371 589 281 q 546 510 589 460 q 425 561 503 561 q 303 510 347 561 q 258 371 258 460 q 303 231 258 282 q 425 179 347 179 m 442 825 q 278 876 350 825 q 182 1028 206 928 l 278 1069 q 442 957 339 957 q 604 1069 543 957 l 700 1028 q 605 877 676 929 q 442 825 533 825 z "},"ǧ":{"ha":881,"x_min":50,"x_max":797,"o":"m 797 704 l 797 32 q 700 -224 797 -136 q 417 -311 603 -311 q 125 -246 249 -311 l 157 -90 q 410 -154 285 -154 q 544 -112 500 -154 q 589 17 589 -69 l 589 139 q 496 53 556 88 q 364 19 436 19 q 201 63 272 19 q 90 187 131 107 q 50 371 50 267 q 90 555 50 475 q 201 678 131 635 q 364 722 272 722 q 497 690 438 722 q 589 604 557 658 l 589 704 l 797 704 m 425 179 q 545 230 501 179 q 589 371 589 281 q 546 510 589 460 q 425 561 503 561 q 303 510 347 561 q 258 371 258 460 q 303 231 258 282 q 425 179 347 179 m 686 1081 l 504 794 l 378 794 l 196 1081 l 360 1081 l 442 917 l 522 1081 l 686 1081 z "},"ĝ":{"ha":881,"x_min":50,"x_max":797,"o":"m 797 704 l 797 32 q 700 -224 797 -136 q 417 -311 603 -311 q 125 -246 249 -311 l 157 -90 q 410 -154 285 -154 q 544 -112 500 -154 q 589 17 589 -69 l 589 139 q 496 53 556 88 q 364 19 436 19 q 201 63 272 19 q 90 187 131 107 q 50 371 50 267 q 90 555 50 475 q 201 678 131 635 q 364 722 272 722 q 497 690 438 722 q 589 604 557 658 l 589 704 l 797 704 m 425 179 q 545 230 501 179 q 589 371 589 281 q 546 510 589 460 q 425 561 503 561 q 303 510 347 561 q 258 371 258 460 q 303 231 258 282 q 425 179 347 179 m 196 794 l 378 1081 l 504 1081 l 686 794 l 522 794 l 442 957 l 360 794 l 196 794 z "},"ģ":{"ha":881,"x_min":50,"x_max":797,"o":"m 797 704 l 797 32 q 700 -224 797 -136 q 417 -311 603 -311 q 125 -246 249 -311 l 157 -90 q 410 -154 285 -154 q 544 -112 500 -154 q 589 17 589 -69 l 589 139 q 496 53 556 88 q 364 19 436 19 q 201 63 272 19 q 90 187 131 107 q 50 371 50 267 q 90 555 50 475 q 201 678 131 635 q 364 722 272 722 q 497 690 438 722 q 589 604 557 658 l 589 704 l 797 704 m 425 179 q 545 230 501 179 q 589 371 589 281 q 546 510 589 460 q 425 561 503 561 q 303 510 347 561 q 258 371 258 460 q 303 231 258 282 q 425 179 347 179 m 544 993 l 544 835 l 336 835 l 336 924 q 355 1038 336 989 q 419 1128 374 1088 l 496 1076 q 447 993 457 1039 l 544 993 z "},"ġ":{"ha":881,"x_min":50,"x_max":797,"o":"m 797 704 l 797 32 q 700 -224 797 -136 q 417 -311 603 -311 q 125 -246 249 -311 l 157 -90 q 410 -154 285 -154 q 544 -112 500 -154 q 589 17 589 -69 l 589 139 q 496 53 556 88 q 364 19 436 19 q 201 63 272 19 q 90 187 131 107 q 50 371 50 267 q 90 555 50 475 q 201 678 131 635 q 364 722 272 722 q 497 690 438 722 q 589 604 557 658 l 589 704 l 797 704 m 425 179 q 545 230 501 179 q 589 371 589 281 q 546 510 589 460 q 425 561 503 561 q 303 510 347 561 q 258 371 258 460 q 303 231 258 282 q 425 179 347 179 m 553 1035 l 553 838 l 329 838 l 329 1035 l 553 1035 z "},"ḡ":{"ha":881,"x_min":50,"x_max":797,"o":"m 797 704 l 797 32 q 700 -224 797 -136 q 417 -311 603 -311 q 125 -246 249 -311 l 157 -90 q 410 -154 285 -154 q 544 -112 500 -154 q 589 17 589 -69 l 589 139 q 496 53 556 88 q 364 19 436 19 q 201 63 272 19 q 90 187 131 107 q 50 371 50 267 q 90 555 50 475 q 201 678 131 635 q 364 722 272 722 q 497 690 438 722 q 589 604 557 658 l 589 704 l 797 704 m 425 179 q 545 230 501 179 q 589 371 589 281 q 546 510 589 460 q 425 561 503 561 q 303 510 347 561 q 258 371 258 460 q 303 231 258 282 q 425 179 347 179 m 222 1000 l 660 1000 l 660 869 l 222 869 l 222 1000 z "},"h":{"ha":851,"x_min":85,"x_max":769,"o":"m 519 722 q 769 426 769 722 l 769 0 l 560 0 l 560 417 q 533 524 560 490 q 447 558 506 558 q 336 514 378 558 q 294 394 294 469 l 294 0 l 85 0 l 85 1022 l 294 1022 l 294 608 q 390 693 332 664 q 519 722 449 722 z "},"ħ":{"ha":851,"x_min":-37,"x_max":769,"o":"m 519 722 q 769 426 769 722 l 769 0 l 560 0 l 560 417 q 533 524 560 490 q 447 558 506 558 q 336 514 378 558 q 294 394 294 469 l 294 0 l 85 0 l 85 778 l -37 778 l -37 924 l 85 924 l 85 1022 l 294 1022 l 294 924 l 561 924 l 561 778 l 294 778 l 294 608 q 390 693 332 664 q 519 722 449 722 z "},"ḫ":{"ha":851,"x_min":85,"x_max":769,"o":"m 519 722 q 769 426 769 722 l 769 0 l 560 0 l 560 417 q 533 524 560 490 q 447 558 506 558 q 336 514 378 558 q 294 394 294 469 l 294 0 l 85 0 l 85 1022 l 294 1022 l 294 608 q 390 693 332 664 q 519 722 449 722 m 428 -318 q 264 -267 336 -318 q 168 -115 192 -215 l 264 -75 q 428 -186 325 -186 q 590 -75 529 -186 l 686 -115 q 591 -266 663 -214 q 428 -318 519 -318 z "},"ĥ":{"ha":851,"x_min":-53,"x_max":769,"o":"m 519 722 q 769 426 769 722 l 769 0 l 560 0 l 560 417 q 533 524 560 490 q 447 558 506 558 q 336 514 378 558 q 294 394 294 469 l 294 0 l 85 0 l 85 1022 l 294 1022 l 294 608 q 390 693 332 664 q 519 722 449 722 m -53 1107 l 132 1325 l 253 1325 l 438 1107 l 279 1107 l 193 1226 l 106 1107 l -53 1107 z "},"ḥ":{"ha":851,"x_min":85,"x_max":769,"o":"m 519 722 q 769 426 769 722 l 769 0 l 560 0 l 560 417 q 533 524 560 490 q 447 558 506 558 q 336 514 378 558 q 294 394 294 469 l 294 0 l 85 0 l 85 1022 l 294 1022 l 294 608 q 390 693 332 664 q 519 722 449 722 m 524 -94 l 524 -279 l 331 -279 l 331 -94 l 524 -94 z "},"i":{"ha":381,"x_min":78,"x_max":301,"o":"m 85 704 l 294 704 l 294 0 l 85 0 l 85 704 m 301 1035 l 301 838 l 78 838 l 78 1035 l 301 1035 z "},"ı":{"ha":381,"x_min":85,"x_max":294,"o":"m 85 704 l 294 704 l 294 0 l 85 0 l 85 704 z "},"í":{"ha":381,"x_min":85,"x_max":468,"o":"m 85 704 l 294 704 l 294 0 l 85 0 l 85 704 m 125 794 l 263 1081 l 468 1081 l 254 794 l 125 794 z "},"ĭ":{"ha":381,"x_min":-69,"x_max":449,"o":"m 85 704 l 294 704 l 294 0 l 85 0 l 85 704 m 190 825 q 26 876 99 825 q -69 1028 -46 928 l 26 1069 q 190 957 88 957 q 353 1069 292 957 l 449 1028 q 353 877 425 929 q 190 825 282 825 z "},"î":{"ha":381,"x_min":-56,"x_max":435,"o":"m 85 704 l 294 704 l 294 0 l 85 0 l 85 704 m -56 794 l 126 1081 l 253 1081 l 435 794 l 271 794 l 190 957 l 108 794 l -56 794 z "},"ȉ":{"ha":381,"x_min":-61,"x_max":332,"o":"m 85 704 l 294 704 l 294 0 l 85 0 l 85 704 m -61 1081 l 90 1081 l 138 794 l 47 794 l -61 1081 m 132 1081 l 283 1081 l 332 794 l 242 794 l 132 1081 z "},"ï":{"ha":381,"x_min":-40,"x_max":419,"o":"m 85 704 l 294 704 l 294 0 l 85 0 l 85 704 m 153 1028 l 153 844 l -40 844 l -40 1028 l 153 1028 m 419 1028 l 419 844 l 226 844 l 226 1028 l 419 1028 z "},"ḯ":{"ha":381,"x_min":-40,"x_max":468,"o":"m 85 704 l 294 704 l 294 0 l 85 0 l 85 704 m 153 1028 l 153 844 l -40 844 l -40 1028 l 153 1028 m 419 1028 l 419 844 l 226 844 l 226 1028 l 419 1028 m 125 1063 l 263 1349 l 468 1349 l 254 1063 l 125 1063 z "},"ị":{"ha":381,"x_min":78,"x_max":301,"o":"m 85 704 l 294 704 l 294 0 l 85 0 l 85 704 m 301 1035 l 301 838 l 78 838 l 78 1035 l 301 1035 m 285 -94 l 285 -279 l 92 -279 l 92 -94 l 285 -94 z "},"ì":{"ha":381,"x_min":-89,"x_max":294,"o":"m 85 704 l 294 704 l 294 0 l 85 0 l 85 704 m -89 1081 l 117 1081 l 254 794 l 125 794 l -89 1081 z "},"ỉ":{"ha":381,"x_min":76,"x_max":358,"o":"m 85 704 l 294 704 l 294 0 l 85 0 l 85 704 m 244 794 l 139 794 l 139 829 q 153 878 139 858 q 190 917 167 897 q 213 939 206 929 q 221 960 221 949 q 174 992 221 992 q 104 979 140 992 l 76 1058 q 196 1085 135 1085 q 315 1054 272 1085 q 358 979 358 1024 q 341 925 358 946 q 292 882 324 904 q 256 852 268 865 q 244 822 244 839 l 244 794 z "},"ȋ":{"ha":381,"x_min":-69,"x_max":449,"o":"m 85 704 l 294 704 l 294 0 l 85 0 l 85 704 m 190 1063 q 353 1011 281 1063 q 449 861 425 960 l 353 821 q 190 932 290 932 q 26 821 89 932 l -69 861 q 26 1011 -46 960 q 190 1063 99 1063 z "},"ī":{"ha":381,"x_min":-29,"x_max":408,"o":"m 85 704 l 294 704 l 294 0 l 85 0 l 85 704 m -29 1000 l 408 1000 l 408 869 l -29 869 l -29 1000 z "},"į":{"ha":381,"x_min":26,"x_max":349,"o":"m 303 842 l 78 842 l 78 1040 l 303 1040 l 303 842 m 349 -253 q 207 -283 281 -283 q 77 -239 128 -283 q 26 -122 26 -194 q 85 6 26 -47 l 85 704 l 294 704 l 294 0 l 282 0 q 194 -26 226 0 q 161 -94 161 -53 q 183 -152 161 -132 q 247 -172 206 -172 q 325 -153 286 -172 l 349 -253 z "},"ĩ":{"ha":381,"x_min":-54,"x_max":433,"o":"m 85 704 l 294 704 l 294 0 l 85 0 l 85 704 m -54 839 q -12 991 -54 940 q 97 1042 31 1042 q 148 1031 124 1042 q 204 1001 172 1021 q 251 977 235 985 q 283 969 267 969 q 326 988 310 969 q 344 1038 342 1006 l 433 1038 q 391 886 433 938 q 282 835 349 835 q 231 845 256 835 q 175 875 207 856 q 128 899 144 892 q 96 907 113 907 q 53 889 69 907 q 35 839 38 871 l -54 839 z "},"j":{"ha":381,"x_min":-90,"x_max":300,"o":"m -90 -129 q -22 -139 -50 -139 q 55 -111 25 -139 q 85 -25 85 -83 l 85 704 l 294 704 l 294 -31 q 226 -237 294 -164 q 29 -311 158 -311 q -90 -293 -43 -311 l -90 -129 m 300 1035 l 300 838 l 76 838 l 76 1035 l 300 1035 z "},"ȷ":{"ha":381,"x_min":-90,"x_max":294,"o":"m -90 -129 q -22 -139 -50 -139 q 55 -111 25 -139 q 85 -25 85 -83 l 85 704 l 294 704 l 294 -31 q 226 -237 294 -164 q 29 -311 158 -311 q -90 -293 -43 -311 l -90 -129 z "},"ĵ":{"ha":381,"x_min":-90,"x_max":433,"o":"m -90 -129 q -22 -139 -50 -139 q 55 -111 25 -139 q 85 -25 85 -83 l 85 704 l 294 704 l 294 -31 q 226 -237 294 -164 q 29 -311 158 -311 q -90 -293 -43 -311 l -90 -129 m -57 794 l 125 1081 l 251 1081 l 433 794 l 269 794 l 189 957 l 107 794 l -57 794 z "},"k":{"ha":796,"x_min":85,"x_max":828,"o":"m 571 0 l 294 315 l 294 0 l 85 0 l 85 1022 l 294 1022 l 294 401 l 558 703 l 810 703 l 511 365 l 828 0 l 571 0 z "},"ķ":{"ha":796,"x_min":85,"x_max":828,"o":"m 571 0 l 294 315 l 294 0 l 85 0 l 85 1022 l 294 1022 l 294 401 l 558 703 l 810 703 l 511 365 l 828 0 l 571 0 m 500 -93 l 500 -182 q 481 -296 500 -247 q 417 -386 463 -344 l 340 -333 q 389 -251 381 -296 l 292 -251 l 292 -93 l 500 -93 z "},"ĸ":{"ha":796,"x_min":85,"x_max":828,"o":"m 571 0 l 294 315 l 294 0 l 85 0 l 85 704 l 294 704 l 294 401 l 558 703 l 810 703 l 511 365 l 828 0 l 571 0 z "},"l":{"ha":381,"x_min":85,"x_max":294,"o":"m 85 1022 l 294 1022 l 294 0 l 85 0 l 85 1022 z "},"ĺ":{"ha":381,"x_min":85,"x_max":463,"o":"m 85 1022 l 294 1022 l 294 0 l 85 0 l 85 1022 m 125 1107 l 268 1325 l 463 1325 l 254 1107 l 125 1107 z "},"ľ":{"ha":381,"x_min":85,"x_max":443,"o":"m 85 1022 l 294 1022 l 294 0 l 85 0 l 85 1022 m 333 744 l 333 1022 l 443 1022 l 407 744 l 333 744 z "},"ļ":{"ha":381,"x_min":85,"x_max":294,"o":"m 85 1022 l 294 1022 l 294 0 l 85 0 l 85 1022 m 293 -93 l 293 -182 q 274 -296 293 -247 q 210 -386 256 -344 l 133 -333 q 182 -251 174 -296 l 85 -251 l 85 -93 l 293 -93 z "},"ŀ":{"ha":526,"x_min":85,"x_max":560,"o":"m 85 1022 l 294 1022 l 294 0 l 85 0 l 85 1022 m 560 594 l 560 399 l 336 399 l 336 594 l 560 594 z "},"ḷ":{"ha":381,"x_min":85,"x_max":294,"o":"m 85 1022 l 294 1022 l 294 0 l 85 0 l 85 1022 m 286 -94 l 286 -279 l 93 -279 l 93 -94 l 286 -94 z "},"ǉ":{"ha":761,"x_min":85,"x_max":681,"o":"m 85 1022 l 294 1022 l 294 0 l 85 0 l 85 1022 m 290 -129 q 358 -139 331 -139 q 435 -111 406 -139 q 465 -25 465 -83 l 465 704 l 675 704 l 675 -31 q 607 -237 675 -164 q 410 -311 539 -311 q 290 -293 338 -311 l 290 -129 m 681 1035 l 681 838 l 457 838 l 457 1035 l 681 1035 z "},"ḻ":{"ha":381,"x_min":-29,"x_max":408,"o":"m 85 1022 l 294 1022 l 294 0 l 85 0 l 85 1022 m -29 -126 l 408 -126 l 408 -249 l -29 -249 l -29 -126 z "},"ł":{"ha":497,"x_min":-22,"x_max":519,"o":"m 353 475 l 353 0 l 143 0 l 143 354 l 56 304 l -22 444 l 143 540 l 143 1022 l 353 1022 l 353 663 l 440 714 l 519 571 l 353 475 z "},"m":{"ha":1265,"x_min":74,"x_max":1185,"o":"m 946 722 q 1126 649 1067 722 q 1185 426 1185 576 l 1185 0 l 975 0 l 975 419 q 951 526 975 493 q 874 558 928 558 q 775 514 810 558 q 740 389 740 469 l 740 0 l 531 0 l 531 419 q 506 525 531 492 q 429 558 482 558 q 330 514 365 558 q 294 389 294 469 l 294 0 l 85 0 l 85 503 q 74 704 85 615 l 271 704 l 283 599 q 373 690 315 658 q 506 722 431 722 q 714 592 663 722 q 810 687 749 651 q 946 722 872 722 z "},"ṃ":{"ha":1265,"x_min":74,"x_max":1185,"o":"m 946 722 q 1126 649 1067 722 q 1185 426 1185 576 l 1185 0 l 975 0 l 975 419 q 951 526 975 493 q 874 558 928 558 q 775 514 810 558 q 740 389 740 469 l 740 0 l 531 0 l 531 419 q 506 525 531 492 q 429 558 482 558 q 330 514 365 558 q 294 389 294 469 l 294 0 l 85 0 l 85 503 q 74 704 85 615 l 271 704 l 283 599 q 373 690 315 658 q 506 722 431 722 q 714 592 663 722 q 810 687 749 651 q 946 722 872 722 m 732 -94 l 732 -279 l 539 -279 l 539 -94 l 732 -94 z "},"n":{"ha":851,"x_min":74,"x_max":769,"o":"m 519 722 q 769 426 769 722 l 769 0 l 560 0 l 560 417 q 533 524 560 490 q 447 558 506 558 q 336 514 378 558 q 294 394 294 469 l 294 0 l 85 0 l 85 503 q 74 704 85 615 l 271 704 l 285 593 q 383 689 322 656 q 519 722 443 722 z "},"ń":{"ha":851,"x_min":74,"x_max":769,"o":"m 519 722 q 769 426 769 722 l 769 0 l 560 0 l 560 417 q 533 524 560 490 q 447 558 506 558 q 336 514 378 558 q 294 394 294 469 l 294 0 l 85 0 l 85 503 q 74 704 85 615 l 271 704 l 285 593 q 383 689 322 656 q 519 722 443 722 m 363 794 l 500 1081 l 706 1081 l 492 794 l 363 794 z "},"ŉ":{"ha":851,"x_min":74,"x_max":769,"o":"m 311 1065 l 311 975 q 292 861 311 910 q 228 771 274 813 l 151 825 q 200 906 192 861 l 103 906 l 103 1065 l 311 1065 m 519 722 q 769 426 769 722 l 769 0 l 560 0 l 560 417 q 533 524 560 490 q 447 558 506 558 q 336 514 378 558 q 294 394 294 469 l 294 0 l 85 0 l 85 503 q 74 704 85 615 l 271 704 l 285 593 q 383 689 322 656 q 519 722 443 722 z "},"ň":{"ha":851,"x_min":74,"x_max":769,"o":"m 519 722 q 769 426 769 722 l 769 0 l 560 0 l 560 417 q 533 524 560 490 q 447 558 506 558 q 336 514 378 558 q 294 394 294 469 l 294 0 l 85 0 l 85 503 q 74 704 85 615 l 271 704 l 285 593 q 383 689 322 656 q 519 722 443 722 m 672 1081 l 490 794 l 364 794 l 182 1081 l 346 1081 l 428 917 l 508 1081 l 672 1081 z "},"ņ":{"ha":851,"x_min":74,"x_max":769,"o":"m 519 722 q 769 426 769 722 l 769 0 l 560 0 l 560 417 q 533 524 560 490 q 447 558 506 558 q 336 514 378 558 q 294 394 294 469 l 294 0 l 85 0 l 85 503 q 74 704 85 615 l 271 704 l 285 593 q 383 689 322 656 q 519 722 443 722 m 531 -93 l 531 -182 q 512 -296 531 -247 q 447 -386 493 -344 l 371 -333 q 419 -251 411 -296 l 322 -251 l 322 -93 l 531 -93 z "},"ṅ":{"ha":851,"x_min":74,"x_max":769,"o":"m 519 722 q 769 426 769 722 l 769 0 l 560 0 l 560 417 q 533 524 560 490 q 447 558 506 558 q 336 514 378 558 q 294 394 294 469 l 294 0 l 85 0 l 85 503 q 74 704 85 615 l 271 704 l 285 593 q 383 689 322 656 q 519 722 443 722 m 539 1035 l 539 838 l 315 838 l 315 1035 l 539 1035 z "},"ṇ":{"ha":851,"x_min":74,"x_max":769,"o":"m 519 722 q 769 426 769 722 l 769 0 l 560 0 l 560 417 q 533 524 560 490 q 447 558 506 558 q 336 514 378 558 q 294 394 294 469 l 294 0 l 85 0 l 85 503 q 74 704 85 615 l 271 704 l 285 593 q 383 689 322 656 q 519 722 443 722 m 524 -94 l 524 -279 l 331 -279 l 331 -94 l 524 -94 z "},"ŋ":{"ha":851,"x_min":74,"x_max":769,"o":"m 519 722 q 769 426 769 722 l 769 -1 q 703 -233 769 -156 q 506 -311 636 -311 q 385 -297 439 -311 l 385 -129 q 453 -139 424 -139 q 560 3 560 -139 l 560 417 q 533 524 560 490 q 447 558 506 558 q 336 514 378 558 q 294 394 294 469 l 294 0 l 85 0 l 85 503 q 74 704 85 615 l 271 704 l 285 593 q 383 689 322 656 q 519 722 443 722 z "},"ǌ":{"ha":1232,"x_min":74,"x_max":1151,"o":"m 519 722 q 769 426 769 722 l 769 0 l 560 0 l 560 417 q 533 524 560 490 q 447 558 506 558 q 336 514 378 558 q 294 394 294 469 l 294 0 l 85 0 l 85 503 q 74 704 85 615 l 271 704 l 285 593 q 383 689 322 656 q 519 722 443 722 m 761 -129 q 829 -139 801 -139 q 906 -111 876 -139 q 936 -25 936 -83 l 936 704 l 1146 704 l 1146 -31 q 1078 -237 1146 -164 q 881 -311 1010 -311 q 761 -293 808 -311 l 761 -129 m 1151 1035 l 1151 838 l 928 838 l 928 1035 l 1151 1035 z "},"ṉ":{"ha":851,"x_min":74,"x_max":769,"o":"m 519 722 q 769 426 769 722 l 769 0 l 560 0 l 560 417 q 533 524 560 490 q 447 558 506 558 q 336 514 378 558 q 294 394 294 469 l 294 0 l 85 0 l 85 503 q 74 704 85 615 l 271 704 l 285 593 q 383 689 322 656 q 519 722 443 722 m 208 -126 l 646 -126 l 646 -249 l 208 -249 l 208 -126 z "},"ñ":{"ha":851,"x_min":74,"x_max":769,"o":"m 519 722 q 769 426 769 722 l 769 0 l 560 0 l 560 417 q 533 524 560 490 q 447 558 506 558 q 336 514 378 558 q 294 394 294 469 l 294 0 l 85 0 l 85 503 q 74 704 85 615 l 271 704 l 285 593 q 383 689 322 656 q 519 722 443 722 m 183 839 q 226 991 183 940 q 335 1042 268 1042 q 385 1031 361 1042 q 442 1001 410 1021 q 488 977 472 985 q 521 969 504 969 q 563 988 547 969 q 582 1038 579 1006 l 671 1038 q 628 886 671 938 q 519 835 586 835 q 469 845 493 835 q 413 875 444 856 q 366 899 382 892 q 333 907 350 907 q 291 889 307 907 q 272 839 275 871 l 183 839 z "},"o":{"ha":839,"x_min":50,"x_max":789,"o":"m 421 -11 q 224 33 308 -11 q 95 161 140 78 q 50 356 50 244 q 95 550 50 467 q 224 678 140 633 q 421 722 308 722 q 615 678 532 722 q 744 550 699 633 q 789 356 789 467 q 744 161 789 244 q 615 33 699 78 q 421 -11 532 -11 m 421 149 q 540 200 499 149 q 581 356 581 251 q 540 510 581 458 q 421 563 499 563 q 300 510 342 563 q 258 356 258 458 q 421 149 258 149 z "},"ó":{"ha":839,"x_min":50,"x_max":789,"o":"m 421 -11 q 224 33 308 -11 q 95 161 140 78 q 50 356 50 244 q 95 550 50 467 q 224 678 140 633 q 421 722 308 722 q 615 678 532 722 q 744 550 699 633 q 789 356 789 467 q 744 161 789 244 q 615 33 699 78 q 421 -11 532 -11 m 421 149 q 540 200 499 149 q 581 356 581 251 q 540 510 581 458 q 421 563 499 563 q 300 510 342 563 q 258 356 258 458 q 421 149 258 149 m 356 794 l 493 1081 l 699 1081 l 485 794 l 356 794 z "},"ŏ":{"ha":839,"x_min":50,"x_max":789,"o":"m 421 -11 q 224 33 308 -11 q 95 161 140 78 q 50 356 50 244 q 95 550 50 467 q 224 678 140 633 q 421 722 308 722 q 615 678 532 722 q 744 550 699 633 q 789 356 789 467 q 744 161 789 244 q 615 33 699 78 q 421 -11 532 -11 m 421 149 q 540 200 499 149 q 581 356 581 251 q 540 510 581 458 q 421 563 499 563 q 300 510 342 563 q 258 356 258 458 q 421 149 258 149 m 421 825 q 257 876 329 825 q 161 1028 185 928 l 257 1069 q 421 957 318 957 q 583 1069 522 957 l 679 1028 q 584 877 656 929 q 421 825 513 825 z "},"ô":{"ha":839,"x_min":50,"x_max":789,"o":"m 421 -11 q 224 33 308 -11 q 95 161 140 78 q 50 356 50 244 q 95 550 50 467 q 224 678 140 633 q 421 722 308 722 q 615 678 532 722 q 744 550 699 633 q 789 356 789 467 q 744 161 789 244 q 615 33 699 78 q 421 -11 532 -11 m 421 149 q 540 200 499 149 q 581 356 581 251 q 540 510 581 458 q 421 563 499 563 q 300 510 342 563 q 258 356 258 458 q 421 149 258 149 m 175 794 l 357 1081 l 483 1081 l 665 794 l 501 794 l 421 957 l 339 794 l 175 794 z "},"ố":{"ha":839,"x_min":50,"x_max":826,"o":"m 421 -11 q 224 33 308 -11 q 95 161 140 78 q 50 356 50 244 q 95 550 50 467 q 224 678 140 633 q 421 722 308 722 q 615 678 532 722 q 744 550 699 633 q 789 356 789 467 q 744 161 789 244 q 615 33 699 78 q 421 -11 532 -11 m 421 149 q 540 200 499 149 q 581 356 581 251 q 540 510 581 458 q 421 563 499 563 q 300 510 342 563 q 258 356 258 458 q 421 149 258 149 m 551 943 l 653 1140 l 826 1140 l 654 943 l 551 943 m 175 794 l 360 988 l 481 988 l 665 794 l 510 794 l 421 893 l 331 794 l 175 794 z "},"ộ":{"ha":839,"x_min":50,"x_max":789,"o":"m 421 -11 q 224 33 308 -11 q 95 161 140 78 q 50 356 50 244 q 95 550 50 467 q 224 678 140 633 q 421 722 308 722 q 615 678 532 722 q 744 550 699 633 q 789 356 789 467 q 744 161 789 244 q 615 33 699 78 q 421 -11 532 -11 m 421 149 q 540 200 499 149 q 581 356 581 251 q 540 510 581 458 q 421 563 499 563 q 300 510 342 563 q 258 356 258 458 q 421 149 258 149 m 517 -94 l 517 -279 l 324 -279 l 324 -94 l 517 -94 m 175 794 l 357 1081 l 483 1081 l 665 794 l 501 794 l 421 957 l 339 794 l 175 794 z "},"ồ":{"ha":839,"x_min":50,"x_max":789,"o":"m 421 -11 q 224 33 308 -11 q 95 161 140 78 q 50 356 50 244 q 95 550 50 467 q 224 678 140 633 q 421 722 308 722 q 615 678 532 722 q 744 550 699 633 q 789 356 789 467 q 744 161 789 244 q 615 33 699 78 q 421 -11 532 -11 m 421 149 q 540 200 499 149 q 581 356 581 251 q 540 510 581 458 q 421 563 499 563 q 300 510 342 563 q 258 356 258 458 q 421 149 258 149 m 440 1140 l 615 1140 l 714 943 l 611 943 l 440 1140 m 175 794 l 360 988 l 481 988 l 665 794 l 510 794 l 421 893 l 331 794 l 175 794 z "},"ổ":{"ha":839,"x_min":50,"x_max":789,"o":"m 421 -11 q 224 33 308 -11 q 95 161 140 78 q 50 356 50 244 q 95 550 50 467 q 224 678 140 633 q 421 722 308 722 q 615 678 532 722 q 744 550 699 633 q 789 356 789 467 q 744 161 789 244 q 615 33 699 78 q 421 -11 532 -11 m 421 149 q 540 200 499 149 q 581 356 581 251 q 540 510 581 458 q 421 563 499 563 q 300 510 342 563 q 258 356 258 458 q 421 149 258 149 m 654 944 l 550 944 l 550 972 q 568 1010 550 997 q 617 1035 586 1024 q 634 1042 626 1039 q 642 1050 642 1046 q 631 1063 642 1057 q 597 1069 619 1069 q 515 1053 563 1069 l 489 1124 q 622 1149 551 1149 q 731 1125 690 1149 q 771 1064 771 1101 q 753 1024 771 1038 q 703 997 736 1010 q 666 978 678 986 q 654 956 654 969 l 654 944 m 175 794 l 360 988 l 481 988 l 665 794 l 510 794 l 421 893 l 331 794 l 175 794 z "},"ỗ":{"ha":839,"x_min":50,"x_max":789,"o":"m 421 -11 q 224 33 308 -11 q 95 161 140 78 q 50 356 50 244 q 95 550 50 467 q 224 678 140 633 q 421 722 308 722 q 615 678 532 722 q 744 550 699 633 q 789 356 789 467 q 744 161 789 244 q 615 33 699 78 q 421 -11 532 -11 m 421 149 q 540 200 499 149 q 581 356 581 251 q 540 510 581 458 q 421 563 499 563 q 300 510 342 563 q 258 356 258 458 q 421 149 258 149 m 176 1013 q 221 1117 176 1075 q 328 1160 265 1160 q 375 1153 353 1160 q 435 1135 397 1147 q 476 1120 456 1126 q 514 1114 497 1114 q 575 1156 569 1114 l 664 1156 q 619 1051 664 1093 q 513 1010 575 1010 q 406 1035 469 1010 q 374 1045 400 1036 q 326 1054 349 1054 q 265 1013 271 1054 l 176 1013 m 175 794 l 360 988 l 481 988 l 665 794 l 510 794 l 421 893 l 331 794 l 175 794 z "},"ȍ":{"ha":839,"x_min":50,"x_max":789,"o":"m 421 -11 q 224 33 308 -11 q 95 161 140 78 q 50 356 50 244 q 95 550 50 467 q 224 678 140 633 q 421 722 308 722 q 615 678 532 722 q 744 550 699 633 q 789 356 789 467 q 744 161 789 244 q 615 33 699 78 q 421 -11 532 -11 m 421 149 q 540 200 499 149 q 581 356 581 251 q 540 510 581 458 q 421 563 499 563 q 300 510 342 563 q 258 356 258 458 q 421 149 258 149 m 169 1081 l 321 1081 l 368 794 l 278 794 l 169 1081 m 363 1081 l 514 1081 l 563 794 l 472 794 l 363 1081 z "},"ö":{"ha":839,"x_min":50,"x_max":789,"o":"m 421 -11 q 224 33 308 -11 q 95 161 140 78 q 50 356 50 244 q 95 550 50 467 q 224 678 140 633 q 421 722 308 722 q 615 678 532 722 q 744 550 699 633 q 789 356 789 467 q 744 161 789 244 q 615 33 699 78 q 421 -11 532 -11 m 421 149 q 540 200 499 149 q 581 356 581 251 q 540 510 581 458 q 421 563 499 563 q 300 510 342 563 q 258 356 258 458 q 421 149 258 149 m 383 1028 l 383 844 l 190 844 l 190 1028 l 383 1028 m 650 1028 l 650 844 l 457 844 l 457 1028 l 650 1028 z "},"ȫ":{"ha":839,"x_min":50,"x_max":789,"o":"m 421 -11 q 224 33 308 -11 q 95 161 140 78 q 50 356 50 244 q 95 550 50 467 q 224 678 140 633 q 421 722 308 722 q 615 678 532 722 q 744 550 699 633 q 789 356 789 467 q 744 161 789 244 q 615 33 699 78 q 421 -11 532 -11 m 421 149 q 540 200 499 149 q 581 356 581 251 q 540 510 581 458 q 421 563 499 563 q 300 510 342 563 q 258 356 258 458 q 421 149 258 149 m 383 1028 l 383 844 l 190 844 l 190 1028 l 383 1028 m 650 1028 l 650 844 l 457 844 l 457 1028 l 650 1028 m 201 1268 l 639 1268 l 639 1138 l 201 1138 l 201 1268 z "},"ȱ":{"ha":839,"x_min":50,"x_max":789,"o":"m 421 -11 q 224 33 308 -11 q 95 161 140 78 q 50 356 50 244 q 95 550 50 467 q 224 678 140 633 q 421 722 308 722 q 615 678 532 722 q 744 550 699 633 q 789 356 789 467 q 744 161 789 244 q 615 33 699 78 q 421 -11 532 -11 m 421 149 q 540 200 499 149 q 581 356 581 251 q 540 510 581 458 q 421 563 499 563 q 300 510 342 563 q 258 356 258 458 q 421 149 258 149 m 532 1035 l 532 838 l 308 838 l 308 1035 l 532 1035 m 201 1268 l 639 1268 l 639 1138 l 201 1138 l 201 1268 z "},"ọ":{"ha":839,"x_min":50,"x_max":789,"o":"m 421 -11 q 224 33 308 -11 q 95 161 140 78 q 50 356 50 244 q 95 550 50 467 q 224 678 140 633 q 421 722 308 722 q 615 678 532 722 q 744 550 699 633 q 789 356 789 467 q 744 161 789 244 q 615 33 699 78 q 421 -11 532 -11 m 421 149 q 540 200 499 149 q 581 356 581 251 q 540 510 581 458 q 421 563 499 563 q 300 510 342 563 q 258 356 258 458 q 421 149 258 149 m 517 -94 l 517 -279 l 324 -279 l 324 -94 l 517 -94 z "},"ò":{"ha":839,"x_min":50,"x_max":789,"o":"m 421 -11 q 224 33 308 -11 q 95 161 140 78 q 50 356 50 244 q 95 550 50 467 q 224 678 140 633 q 421 722 308 722 q 615 678 532 722 q 744 550 699 633 q 789 356 789 467 q 744 161 789 244 q 615 33 699 78 q 421 -11 532 -11 m 421 149 q 540 200 499 149 q 581 356 581 251 q 540 510 581 458 q 421 563 499 563 q 300 510 342 563 q 258 356 258 458 q 421 149 258 149 m 142 1081 l 347 1081 l 485 794 l 356 794 l 142 1081 z "},"ỏ":{"ha":839,"x_min":50,"x_max":789,"o":"m 421 -11 q 224 33 308 -11 q 95 161 140 78 q 50 356 50 244 q 95 550 50 467 q 224 678 140 633 q 421 722 308 722 q 615 678 532 722 q 744 550 699 633 q 789 356 789 467 q 744 161 789 244 q 615 33 699 78 q 421 -11 532 -11 m 421 149 q 540 200 499 149 q 581 356 581 251 q 540 510 581 458 q 421 563 499 563 q 300 510 342 563 q 258 356 258 458 q 421 149 258 149 m 475 794 l 369 794 l 369 829 q 383 878 369 858 q 421 917 397 897 q 444 939 436 929 q 451 960 451 949 q 404 992 451 992 q 335 979 371 992 l 307 1058 q 426 1085 365 1085 q 546 1054 503 1085 q 589 979 589 1024 q 572 925 589 946 q 522 882 554 904 q 487 852 499 865 q 475 822 475 839 l 475 794 z "},"ơ":{"ha":839,"x_min":50,"x_max":822,"o":"m 822 831 q 786 700 822 756 q 688 621 750 644 q 763 505 738 574 q 789 354 789 436 q 744 160 789 243 q 615 33 699 78 q 421 -11 532 -11 q 224 33 308 -11 q 95 160 140 78 q 50 354 50 243 q 95 549 50 467 q 224 677 140 632 q 417 722 307 722 q 500 714 450 722 q 535 710 524 710 q 614 741 585 710 q 643 856 643 772 l 643 883 l 822 883 l 822 831 m 421 149 q 540 200 499 149 q 581 356 581 251 q 540 510 581 458 q 421 563 499 563 q 300 510 342 563 q 258 356 258 458 q 421 149 258 149 z "},"ớ":{"ha":839,"x_min":50,"x_max":822,"o":"m 822 831 q 786 700 822 756 q 688 621 750 644 q 763 505 738 574 q 789 354 789 436 q 744 160 789 243 q 615 33 699 78 q 421 -11 532 -11 q 224 33 308 -11 q 95 160 140 78 q 50 354 50 243 q 95 549 50 467 q 224 677 140 632 q 417 722 307 722 q 500 714 450 722 q 535 710 524 710 q 614 741 585 710 q 643 856 643 772 l 643 883 l 822 883 l 822 831 m 421 149 q 540 200 499 149 q 581 356 581 251 q 540 510 581 458 q 421 563 499 563 q 300 510 342 563 q 258 356 258 458 q 421 149 258 149 m 356 794 l 493 1081 l 699 1081 l 485 794 l 356 794 z "},"ợ":{"ha":839,"x_min":50,"x_max":822,"o":"m 822 831 q 786 700 822 756 q 688 621 750 644 q 763 505 738 574 q 789 354 789 436 q 744 160 789 243 q 615 33 699 78 q 421 -11 532 -11 q 224 33 308 -11 q 95 160 140 78 q 50 354 50 243 q 95 549 50 467 q 224 677 140 632 q 417 722 307 722 q 500 714 450 722 q 535 710 524 710 q 614 741 585 710 q 643 856 643 772 l 643 883 l 822 883 l 822 831 m 421 149 q 540 200 499 149 q 581 356 581 251 q 540 510 581 458 q 421 563 499 563 q 300 510 342 563 q 258 356 258 458 q 421 149 258 149 m 517 -94 l 517 -279 l 324 -279 l 324 -94 l 517 -94 z "},"ờ":{"ha":839,"x_min":50,"x_max":822,"o":"m 822 831 q 786 700 822 756 q 688 621 750 644 q 763 505 738 574 q 789 354 789 436 q 744 160 789 243 q 615 33 699 78 q 421 -11 532 -11 q 224 33 308 -11 q 95 160 140 78 q 50 354 50 243 q 95 549 50 467 q 224 677 140 632 q 417 722 307 722 q 500 714 450 722 q 535 710 524 710 q 614 741 585 710 q 643 856 643 772 l 643 883 l 822 883 l 822 831 m 421 149 q 540 200 499 149 q 581 356 581 251 q 540 510 581 458 q 421 563 499 563 q 300 510 342 563 q 258 356 258 458 q 421 149 258 149 m 142 1081 l 347 1081 l 485 794 l 356 794 l 142 1081 z "},"ở":{"ha":839,"x_min":50,"x_max":822,"o":"m 822 831 q 786 700 822 756 q 688 621 750 644 q 763 505 738 574 q 789 354 789 436 q 744 160 789 243 q 615 33 699 78 q 421 -11 532 -11 q 224 33 308 -11 q 95 160 140 78 q 50 354 50 243 q 95 549 50 467 q 224 677 140 632 q 417 722 307 722 q 500 714 450 722 q 535 710 524 710 q 614 741 585 710 q 643 856 643 772 l 643 883 l 822 883 l 822 831 m 421 149 q 540 200 499 149 q 581 356 581 251 q 540 510 581 458 q 421 563 499 563 q 300 510 342 563 q 258 356 258 458 q 421 149 258 149 m 475 794 l 369 794 l 369 829 q 383 878 369 858 q 421 917 397 897 q 444 939 436 929 q 451 960 451 949 q 404 992 451 992 q 335 979 371 992 l 307 1058 q 426 1085 365 1085 q 546 1054 503 1085 q 589 979 589 1024 q 572 925 589 946 q 522 882 554 904 q 487 852 499 865 q 475 822 475 839 l 475 794 z "},"ỡ":{"ha":839,"x_min":50,"x_max":822,"o":"m 822 831 q 786 700 822 756 q 688 621 750 644 q 763 505 738 574 q 789 354 789 436 q 744 160 789 243 q 615 33 699 78 q 421 -11 532 -11 q 224 33 308 -11 q 95 160 140 78 q 50 354 50 243 q 95 549 50 467 q 224 677 140 632 q 417 722 307 722 q 500 714 450 722 q 535 710 524 710 q 614 741 585 710 q 643 856 643 772 l 643 883 l 822 883 l 822 831 m 421 149 q 540 200 499 149 q 581 356 581 251 q 540 510 581 458 q 421 563 499 563 q 300 510 342 563 q 258 356 258 458 q 421 149 258 149 m 176 839 q 219 991 176 940 q 328 1042 261 1042 q 378 1031 354 1042 q 435 1001 403 1021 q 481 977 465 985 q 514 969 497 969 q 556 988 540 969 q 575 1038 572 1006 l 664 1038 q 622 886 664 938 q 513 835 579 835 q 462 845 486 835 q 406 875 438 856 q 359 899 375 892 q 326 907 343 907 q 284 889 300 907 q 265 839 268 871 l 176 839 z "},"ő":{"ha":839,"x_min":50,"x_max":789,"o":"m 421 -11 q 224 33 308 -11 q 95 161 140 78 q 50 356 50 244 q 95 550 50 467 q 224 678 140 633 q 421 722 308 722 q 615 678 532 722 q 744 550 699 633 q 789 356 789 467 q 744 161 789 244 q 615 33 699 78 q 421 -11 532 -11 m 421 149 q 540 200 499 149 q 581 356 581 251 q 540 510 581 458 q 421 563 499 563 q 300 510 342 563 q 258 356 258 458 q 421 149 258 149 m 278 794 l 326 1081 l 478 1081 l 368 794 l 278 794 m 472 794 l 519 1081 l 671 1081 l 563 794 l 472 794 z "},"ȏ":{"ha":839,"x_min":50,"x_max":789,"o":"m 421 -11 q 224 33 308 -11 q 95 161 140 78 q 50 356 50 244 q 95 550 50 467 q 224 678 140 633 q 421 722 308 722 q 615 678 532 722 q 744 550 699 633 q 789 356 789 467 q 744 161 789 244 q 615 33 699 78 q 421 -11 532 -11 m 421 149 q 540 200 499 149 q 581 356 581 251 q 540 510 581 458 q 421 563 499 563 q 300 510 342 563 q 258 356 258 458 q 421 149 258 149 m 421 1063 q 583 1011 511 1063 q 679 861 656 960 l 583 821 q 421 932 521 932 q 257 821 319 932 l 161 861 q 257 1011 185 960 q 421 1063 329 1063 z "},"ō":{"ha":839,"x_min":50,"x_max":789,"o":"m 421 -11 q 224 33 308 -11 q 95 161 140 78 q 50 356 50 244 q 95 550 50 467 q 224 678 140 633 q 421 722 308 722 q 615 678 532 722 q 744 550 699 633 q 789 356 789 467 q 744 161 789 244 q 615 33 699 78 q 421 -11 532 -11 m 421 149 q 540 200 499 149 q 581 356 581 251 q 540 510 581 458 q 421 563 499 563 q 300 510 342 563 q 258 356 258 458 q 421 149 258 149 m 201 1000 l 639 1000 l 639 869 l 201 869 l 201 1000 z "},"ṓ":{"ha":839,"x_min":50,"x_max":789,"o":"m 421 -11 q 224 33 308 -11 q 95 161 140 78 q 50 356 50 244 q 95 550 50 467 q 224 678 140 633 q 421 722 308 722 q 615 678 532 722 q 744 550 699 633 q 789 356 789 467 q 744 161 789 244 q 615 33 699 78 q 421 -11 532 -11 m 421 149 q 540 200 499 149 q 581 356 581 251 q 540 510 581 458 q 421 563 499 563 q 300 510 342 563 q 258 356 258 458 q 421 149 258 149 m 201 1000 l 639 1000 l 639 869 l 201 869 l 201 1000 m 356 1063 l 493 1349 l 699 1349 l 485 1063 l 356 1063 z "},"ṑ":{"ha":839,"x_min":50,"x_max":789,"o":"m 421 -11 q 224 33 308 -11 q 95 161 140 78 q 50 356 50 244 q 95 550 50 467 q 224 678 140 633 q 421 722 308 722 q 615 678 532 722 q 744 550 699 633 q 789 356 789 467 q 744 161 789 244 q 615 33 699 78 q 421 -11 532 -11 m 421 149 q 540 200 499 149 q 581 356 581 251 q 540 510 581 458 q 421 563 499 563 q 300 510 342 563 q 258 356 258 458 q 421 149 258 149 m 201 1000 l 639 1000 l 639 869 l 201 869 l 201 1000 m 142 1349 l 347 1349 l 485 1063 l 356 1063 l 142 1349 z "},"ǫ":{"ha":839,"x_min":50,"x_max":789,"o":"m 557 8 q 461 -94 461 -17 q 484 -152 461 -132 q 549 -172 507 -172 q 626 -153 588 -172 l 650 -253 q 508 -283 582 -283 q 377 -239 428 -283 q 326 -125 326 -194 q 376 -8 326 -57 q 137 103 224 7 q 50 356 50 200 q 95 550 50 467 q 224 678 140 633 q 421 722 308 722 q 615 678 532 722 q 744 550 699 633 q 789 356 789 467 q 727 132 789 225 q 557 8 665 39 m 421 149 q 540 200 499 149 q 581 356 581 251 q 540 510 581 458 q 421 563 499 563 q 300 510 342 563 q 258 356 258 458 q 421 149 258 149 z "},"ø":{"ha":839,"x_min":50,"x_max":789,"o":"m 658 650 q 755 526 721 601 q 789 356 789 451 q 744 161 789 244 q 615 33 699 78 q 421 -11 532 -11 q 285 8 350 -11 l 228 -89 l 129 -31 l 182 61 q 84 184 118 108 q 50 356 50 260 q 95 550 50 467 q 224 678 140 633 q 421 722 308 722 q 556 703 493 722 l 611 797 l 711 739 l 658 650 m 254 356 q 279 226 254 276 l 472 558 q 421 564 450 564 q 254 356 254 564 m 421 147 q 585 356 585 147 q 561 482 585 432 l 369 153 q 421 147 390 147 z "},"ǿ":{"ha":839,"x_min":50,"x_max":789,"o":"m 658 650 q 755 526 721 601 q 789 356 789 451 q 744 161 789 244 q 615 33 699 78 q 421 -11 532 -11 q 285 8 350 -11 l 228 -89 l 129 -31 l 182 61 q 84 184 118 108 q 50 356 50 260 q 95 550 50 467 q 224 678 140 633 q 421 722 308 722 q 556 703 493 722 l 611 797 l 711 739 l 658 650 m 254 356 q 279 226 254 276 l 472 558 q 421 564 450 564 q 254 356 254 564 m 421 147 q 585 356 585 147 q 561 482 585 432 l 369 153 q 421 147 390 147 m 356 794 l 493 1081 l 699 1081 l 485 794 l 356 794 z "},"õ":{"ha":839,"x_min":50,"x_max":789,"o":"m 421 -11 q 224 33 308 -11 q 95 161 140 78 q 50 356 50 244 q 95 550 50 467 q 224 678 140 633 q 421 722 308 722 q 615 678 532 722 q 744 550 699 633 q 789 356 789 467 q 744 161 789 244 q 615 33 699 78 q 421 -11 532 -11 m 421 149 q 540 200 499 149 q 581 356 581 251 q 540 510 581 458 q 421 563 499 563 q 300 510 342 563 q 258 356 258 458 q 421 149 258 149 m 176 839 q 219 991 176 940 q 328 1042 261 1042 q 378 1031 354 1042 q 435 1001 403 1021 q 481 977 465 985 q 514 969 497 969 q 556 988 540 969 q 575 1038 572 1006 l 664 1038 q 622 886 664 938 q 513 835 579 835 q 462 845 486 835 q 406 875 438 856 q 359 899 375 892 q 326 907 343 907 q 284 889 300 907 q 265 839 268 871 l 176 839 z "},"ṍ":{"ha":839,"x_min":50,"x_max":789,"o":"m 421 -11 q 224 33 308 -11 q 95 161 140 78 q 50 356 50 244 q 95 550 50 467 q 224 678 140 633 q 421 722 308 722 q 615 678 532 722 q 744 550 699 633 q 789 356 789 467 q 744 161 789 244 q 615 33 699 78 q 421 -11 532 -11 m 421 149 q 540 200 499 149 q 581 356 581 251 q 540 510 581 458 q 421 563 499 563 q 300 510 342 563 q 258 356 258 458 q 421 149 258 149 m 176 839 q 219 991 176 940 q 328 1042 261 1042 q 378 1031 354 1042 q 435 1001 403 1021 q 481 977 465 985 q 514 969 497 969 q 556 988 540 969 q 575 1038 572 1006 l 664 1038 q 622 886 664 938 q 513 835 579 835 q 462 845 486 835 q 406 875 438 856 q 359 899 375 892 q 326 907 343 907 q 284 889 300 907 q 265 839 268 871 l 176 839 m 356 1063 l 493 1349 l 699 1349 l 485 1063 l 356 1063 z "},"ṏ":{"ha":839,"x_min":50,"x_max":789,"o":"m 421 -11 q 224 33 308 -11 q 95 161 140 78 q 50 356 50 244 q 95 550 50 467 q 224 678 140 633 q 421 722 308 722 q 615 678 532 722 q 744 550 699 633 q 789 356 789 467 q 744 161 789 244 q 615 33 699 78 q 421 -11 532 -11 m 421 149 q 540 200 499 149 q 581 356 581 251 q 540 510 581 458 q 421 563 499 563 q 300 510 342 563 q 258 356 258 458 q 421 149 258 149 m 176 839 q 219 991 176 940 q 328 1042 261 1042 q 378 1031 354 1042 q 435 1001 403 1021 q 481 977 465 985 q 514 969 497 969 q 556 988 540 969 q 575 1038 572 1006 l 664 1038 q 622 886 664 938 q 513 835 579 835 q 462 845 486 835 q 406 875 438 856 q 359 899 375 892 q 326 907 343 907 q 284 889 300 907 q 265 839 268 871 l 176 839 m 383 1296 l 383 1113 l 190 1113 l 190 1296 l 383 1296 m 650 1296 l 650 1113 l 457 1113 l 457 1296 l 650 1296 z "},"ȭ":{"ha":839,"x_min":50,"x_max":789,"o":"m 421 -11 q 224 33 308 -11 q 95 161 140 78 q 50 356 50 244 q 95 550 50 467 q 224 678 140 633 q 421 722 308 722 q 615 678 532 722 q 744 550 699 633 q 789 356 789 467 q 744 161 789 244 q 615 33 699 78 q 421 -11 532 -11 m 421 149 q 540 200 499 149 q 581 356 581 251 q 540 510 581 458 q 421 563 499 563 q 300 510 342 563 q 258 356 258 458 q 421 149 258 149 m 176 839 q 219 991 176 940 q 328 1042 261 1042 q 378 1031 354 1042 q 435 1001 403 1021 q 481 977 465 985 q 514 969 497 969 q 556 988 540 969 q 575 1038 572 1006 l 664 1038 q 622 886 664 938 q 513 835 579 835 q 462 845 486 835 q 406 875 438 856 q 359 899 375 892 q 326 907 343 907 q 284 889 300 907 q 265 839 268 871 l 176 839 m 201 1268 l 639 1268 l 639 1138 l 201 1138 l 201 1268 z "},"œ":{"ha":1290,"x_min":50,"x_max":1242,"o":"m 1242 313 l 788 313 q 839 185 797 225 q 958 146 881 146 q 1174 217 1076 146 l 1231 75 q 1106 12 1181 35 q 957 -11 1032 -11 q 683 108 774 -11 q 571 19 639 50 q 415 -11 503 -11 q 222 34 304 -11 q 94 162 139 79 q 50 356 50 244 q 94 549 50 467 q 222 677 139 632 q 415 722 304 722 q 572 691 504 722 q 685 600 640 660 q 793 690 728 658 q 939 722 858 722 q 1097 677 1028 722 q 1203 551 1165 632 q 1242 365 1242 471 l 1242 313 m 935 575 q 833 535 871 575 q 788 418 796 494 l 1064 418 q 1026 535 1060 494 q 935 575 993 575 m 418 149 q 575 356 575 149 q 535 510 575 458 q 418 563 494 563 q 299 510 340 563 q 258 356 258 458 q 299 200 258 251 q 418 149 340 149 z "},"p":{"ha":876,"x_min":74,"x_max":826,"o":"m 515 722 q 676 676 606 722 q 787 544 747 629 q 826 351 826 460 q 788 160 826 243 q 678 33 749 78 q 515 -11 607 -11 q 383 19 442 -11 q 294 104 325 50 l 294 -300 l 85 -300 l 85 503 q 74 704 85 615 l 271 704 l 285 588 q 374 686 313 650 q 515 722 436 722 m 456 149 q 575 201 533 149 q 617 351 617 253 q 574 506 617 450 q 456 561 532 561 q 335 508 378 561 q 293 354 293 454 q 335 201 293 254 q 456 149 378 149 z "},"þ":{"ha":876,"x_min":85,"x_max":826,"o":"m 515 722 q 676 676 606 722 q 787 544 747 629 q 826 351 826 460 q 787 160 826 243 q 676 33 747 78 q 515 -11 606 -11 q 383 19 442 -11 q 294 104 325 50 l 294 -300 l 85 -300 l 85 1022 l 294 1022 l 294 606 q 384 691 325 660 q 515 722 443 722 m 456 149 q 575 201 533 149 q 617 351 617 253 q 574 506 617 450 q 456 561 532 561 q 335 508 378 561 q 293 354 293 454 q 335 201 293 254 q 456 149 378 149 z "},"q":{"ha":875,"x_min":50,"x_max":803,"o":"m 803 704 q 790 503 790 618 l 790 -300 l 581 -300 l 581 100 q 491 18 549 47 q 361 -11 433 -11 q 199 33 269 -11 q 90 160 129 78 q 50 351 50 243 q 90 544 50 460 q 200 676 129 629 q 361 722 271 722 q 502 686 440 722 q 592 589 564 650 l 606 704 l 803 704 m 422 149 q 542 201 500 149 q 583 354 583 254 q 542 508 583 454 q 422 561 500 561 q 301 506 344 561 q 258 351 258 450 q 301 201 258 253 q 422 149 343 149 z "},"r":{"ha":569,"x_min":74,"x_max":569,"o":"m 494 721 q 569 707 539 721 l 568 515 q 465 539 517 539 q 338 494 382 539 q 294 368 294 449 l 294 0 l 85 0 l 85 503 q 74 704 85 615 l 271 704 l 285 583 q 367 685 311 650 q 494 721 424 721 z "},"ŕ":{"ha":569,"x_min":74,"x_max":611,"o":"m 494 721 q 569 707 539 721 l 568 515 q 465 539 517 539 q 338 494 382 539 q 294 368 294 449 l 294 0 l 85 0 l 85 503 q 74 704 85 615 l 271 704 l 285 583 q 367 685 311 650 q 494 721 424 721 m 268 794 l 406 1081 l 611 1081 l 397 794 l 268 794 z "},"ř":{"ha":569,"x_min":74,"x_max":578,"o":"m 494 721 q 569 707 539 721 l 568 515 q 465 539 517 539 q 338 494 382 539 q 294 368 294 449 l 294 0 l 85 0 l 85 503 q 74 704 85 615 l 271 704 l 285 583 q 367 685 311 650 q 494 721 424 721 m 578 1081 l 396 794 l 269 794 l 88 1081 l 251 1081 l 333 917 l 414 1081 l 578 1081 z "},"ŗ":{"ha":569,"x_min":74,"x_max":569,"o":"m 494 721 q 569 707 539 721 l 568 515 q 465 539 517 539 q 338 494 382 539 q 294 368 294 449 l 294 0 l 85 0 l 85 503 q 74 704 85 615 l 271 704 l 285 583 q 367 685 311 650 q 494 721 424 721 m 293 -93 l 293 -182 q 274 -296 293 -247 q 210 -386 256 -344 l 133 -333 q 182 -251 174 -296 l 85 -251 l 85 -93 l 293 -93 z "},"ȑ":{"ha":569,"x_min":74,"x_max":569,"o":"m 494 721 q 569 707 539 721 l 568 515 q 465 539 517 539 q 338 494 382 539 q 294 368 294 449 l 294 0 l 85 0 l 85 503 q 74 704 85 615 l 271 704 l 285 583 q 367 685 311 650 q 494 721 424 721 m 82 1081 l 233 1081 l 281 794 l 190 794 l 82 1081 m 275 1081 l 426 1081 l 475 794 l 385 794 l 275 1081 z "},"ṛ":{"ha":569,"x_min":74,"x_max":569,"o":"m 494 721 q 569 707 539 721 l 568 515 q 465 539 517 539 q 338 494 382 539 q 294 368 294 449 l 294 0 l 85 0 l 85 503 q 74 704 85 615 l 271 704 l 285 583 q 367 685 311 650 q 494 721 424 721 m 286 -94 l 286 -279 l 93 -279 l 93 -94 l 286 -94 z "},"ȓ":{"ha":569,"x_min":74,"x_max":592,"o":"m 494 721 q 569 707 539 721 l 568 515 q 465 539 517 539 q 338 494 382 539 q 294 368 294 449 l 294 0 l 85 0 l 85 503 q 74 704 85 615 l 271 704 l 285 583 q 367 685 311 650 q 494 721 424 721 m 333 1063 q 496 1011 424 1063 q 592 861 568 960 l 496 821 q 333 932 433 932 q 169 821 232 932 l 74 861 q 169 1011 97 960 q 333 1063 242 1063 z "},"ṟ":{"ha":569,"x_min":-29,"x_max":569,"o":"m 494 721 q 569 707 539 721 l 568 515 q 465 539 517 539 q 338 494 382 539 q 294 368 294 449 l 294 0 l 85 0 l 85 503 q 74 704 85 615 l 271 704 l 285 583 q 367 685 311 650 q 494 721 424 721 m -29 -126 l 408 -126 l 408 -249 l -29 -249 l -29 -126 z "},"s":{"ha":699,"x_min":39,"x_max":656,"o":"m 354 -11 q 39 75 154 -11 l 94 221 q 218 159 150 181 q 357 138 286 138 q 440 154 411 138 q 469 203 469 171 q 449 244 469 229 q 375 271 428 260 l 260 297 q 110 368 158 319 q 63 497 63 417 q 101 614 63 563 q 207 694 139 665 q 364 722 275 722 q 511 699 439 722 q 640 635 583 676 l 582 494 q 472 551 528 532 q 363 571 415 571 q 282 553 311 571 q 253 503 253 535 q 270 465 253 479 q 332 440 288 450 l 450 414 q 607 339 558 389 q 656 206 656 289 q 575 47 656 106 q 354 -11 494 -11 z "},"ś":{"ha":699,"x_min":39,"x_max":656,"o":"m 354 -11 q 39 75 154 -11 l 94 221 q 218 159 150 181 q 357 138 286 138 q 440 154 411 138 q 469 203 469 171 q 449 244 469 229 q 375 271 428 260 l 260 297 q 110 368 158 319 q 63 497 63 417 q 101 614 63 563 q 207 694 139 665 q 364 722 275 722 q 511 699 439 722 q 640 635 583 676 l 582 494 q 472 551 528 532 q 363 571 415 571 q 282 553 311 571 q 253 503 253 535 q 270 465 253 479 q 332 440 288 450 l 450 414 q 607 339 558 389 q 656 206 656 289 q 575 47 656 106 q 354 -11 494 -11 m 297 794 l 435 1081 l 640 1081 l 426 794 l 297 794 z "},"ṥ":{"ha":699,"x_min":39,"x_max":660,"o":"m 354 -11 q 39 75 154 -11 l 94 221 q 218 159 150 181 q 357 138 286 138 q 440 154 411 138 q 469 203 469 171 q 449 244 469 229 q 375 271 428 260 l 260 297 q 110 368 158 319 q 63 497 63 417 q 101 614 63 563 q 207 694 139 665 q 364 722 275 722 q 511 699 439 722 q 640 635 583 676 l 582 494 q 472 551 528 532 q 363 571 415 571 q 282 553 311 571 q 253 503 253 535 q 270 465 253 479 q 332 440 288 450 l 450 414 q 607 339 558 389 q 656 206 656 289 q 575 47 656 106 q 354 -11 494 -11 m 317 781 l 454 1067 l 660 1067 l 446 781 l 317 781 m 324 1065 l 324 868 l 100 868 l 100 1065 l 324 1065 z "},"š":{"ha":699,"x_min":39,"x_max":656,"o":"m 354 -11 q 39 75 154 -11 l 94 221 q 218 159 150 181 q 357 138 286 138 q 440 154 411 138 q 469 203 469 171 q 449 244 469 229 q 375 271 428 260 l 260 297 q 110 368 158 319 q 63 497 63 417 q 101 614 63 563 q 207 694 139 665 q 364 722 275 722 q 511 699 439 722 q 640 635 583 676 l 582 494 q 472 551 528 532 q 363 571 415 571 q 282 553 311 571 q 253 503 253 535 q 270 465 253 479 q 332 440 288 450 l 450 414 q 607 339 558 389 q 656 206 656 289 q 575 47 656 106 q 354 -11 494 -11 m 607 1081 l 425 794 l 299 794 l 117 1081 l 281 1081 l 363 917 l 443 1081 l 607 1081 z "},"ṧ":{"ha":699,"x_min":39,"x_max":656,"o":"m 354 -11 q 39 75 154 -11 l 94 221 q 218 159 150 181 q 357 138 286 138 q 440 154 411 138 q 469 203 469 171 q 449 244 469 229 q 375 271 428 260 l 260 297 q 110 368 158 319 q 63 497 63 417 q 101 614 63 563 q 207 694 139 665 q 364 722 275 722 q 511 699 439 722 q 640 635 583 676 l 582 494 q 472 551 528 532 q 363 571 415 571 q 282 553 311 571 q 253 503 253 535 q 270 465 253 479 q 332 440 288 450 l 450 414 q 607 339 558 389 q 656 206 656 289 q 575 47 656 106 q 354 -11 494 -11 m 607 1081 l 425 794 l 299 794 l 117 1081 l 281 1081 l 363 917 l 443 1081 l 607 1081 m 474 1303 l 474 1106 l 250 1106 l 250 1303 l 474 1303 z "},"ş":{"ha":699,"x_min":39,"x_max":656,"o":"m 656 206 q 585 55 656 113 q 390 -10 514 -3 l 383 -57 q 401 -56 390 -56 q 487 -82 454 -56 q 519 -153 519 -108 q 469 -242 519 -208 q 329 -276 419 -276 q 264 -270 300 -276 q 199 -251 228 -264 l 215 -169 q 325 -189 279 -189 q 389 -153 389 -189 q 377 -133 389 -140 q 343 -125 365 -125 q 293 -135 325 -125 l 265 -106 l 278 -7 q 39 75 132 6 l 94 221 q 218 159 150 181 q 357 138 286 138 q 440 154 411 138 q 469 203 469 171 q 449 244 469 229 q 375 271 428 260 l 260 297 q 110 368 158 319 q 63 497 63 417 q 101 614 63 563 q 207 694 139 665 q 364 722 275 722 q 511 699 439 722 q 640 635 583 676 l 582 494 q 472 551 528 532 q 363 571 415 571 q 282 553 311 571 q 253 503 253 535 q 270 465 253 479 q 332 440 288 450 l 450 414 q 607 339 558 389 q 656 206 656 289 z "},"ŝ":{"ha":699,"x_min":39,"x_max":656,"o":"m 354 -11 q 39 75 154 -11 l 94 221 q 218 159 150 181 q 357 138 286 138 q 440 154 411 138 q 469 203 469 171 q 449 244 469 229 q 375 271 428 260 l 260 297 q 110 368 158 319 q 63 497 63 417 q 101 614 63 563 q 207 694 139 665 q 364 722 275 722 q 511 699 439 722 q 640 635 583 676 l 582 494 q 472 551 528 532 q 363 571 415 571 q 282 553 311 571 q 253 503 253 535 q 270 465 253 479 q 332 440 288 450 l 450 414 q 607 339 558 389 q 656 206 656 289 q 575 47 656 106 q 354 -11 494 -11 m 117 794 l 299 1081 l 425 1081 l 607 794 l 443 794 l 363 957 l 281 794 l 117 794 z "},"ș":{"ha":699,"x_min":39,"x_max":656,"o":"m 354 -11 q 39 75 154 -11 l 94 221 q 218 159 150 181 q 357 138 286 138 q 440 154 411 138 q 469 203 469 171 q 449 244 469 229 q 375 271 428 260 l 260 297 q 110 368 158 319 q 63 497 63 417 q 101 614 63 563 q 207 694 139 665 q 364 722 275 722 q 511 699 439 722 q 640 635 583 676 l 582 494 q 472 551 528 532 q 363 571 415 571 q 282 553 311 571 q 253 503 253 535 q 270 465 253 479 q 332 440 288 450 l 450 414 q 607 339 558 389 q 656 206 656 289 q 575 47 656 106 q 354 -11 494 -11 m 453 -93 l 453 -182 q 434 -296 453 -247 q 369 -386 415 -344 l 293 -333 q 342 -251 333 -296 l 244 -251 l 244 -93 l 453 -93 z "},"ṡ":{"ha":699,"x_min":39,"x_max":656,"o":"m 354 -11 q 39 75 154 -11 l 94 221 q 218 159 150 181 q 357 138 286 138 q 440 154 411 138 q 469 203 469 171 q 449 244 469 229 q 375 271 428 260 l 260 297 q 110 368 158 319 q 63 497 63 417 q 101 614 63 563 q 207 694 139 665 q 364 722 275 722 q 511 699 439 722 q 640 635 583 676 l 582 494 q 472 551 528 532 q 363 571 415 571 q 282 553 311 571 q 253 503 253 535 q 270 465 253 479 q 332 440 288 450 l 450 414 q 607 339 558 389 q 656 206 656 289 q 575 47 656 106 q 354 -11 494 -11 m 474 1035 l 474 838 l 250 838 l 250 1035 l 474 1035 z "},"ṣ":{"ha":699,"x_min":39,"x_max":656,"o":"m 354 -11 q 39 75 154 -11 l 94 221 q 218 159 150 181 q 357 138 286 138 q 440 154 411 138 q 469 203 469 171 q 449 244 469 229 q 375 271 428 260 l 260 297 q 110 368 158 319 q 63 497 63 417 q 101 614 63 563 q 207 694 139 665 q 364 722 275 722 q 511 699 439 722 q 640 635 583 676 l 582 494 q 472 551 528 532 q 363 571 415 571 q 282 553 311 571 q 253 503 253 535 q 270 465 253 479 q 332 440 288 450 l 450 414 q 607 339 558 389 q 656 206 656 289 q 575 47 656 106 q 354 -11 494 -11 m 446 -94 l 446 -279 l 253 -279 l 253 -94 l 446 -94 z "},"ṩ":{"ha":699,"x_min":39,"x_max":656,"o":"m 354 -11 q 39 75 154 -11 l 94 221 q 218 159 150 181 q 357 138 286 138 q 440 154 411 138 q 469 203 469 171 q 449 244 469 229 q 375 271 428 260 l 260 297 q 110 368 158 319 q 63 497 63 417 q 101 614 63 563 q 207 694 139 665 q 364 722 275 722 q 511 699 439 722 q 640 635 583 676 l 582 494 q 472 551 528 532 q 363 571 415 571 q 282 553 311 571 q 253 503 253 535 q 270 465 253 479 q 332 440 288 450 l 450 414 q 607 339 558 389 q 656 206 656 289 q 575 47 656 106 q 354 -11 494 -11 m 446 -94 l 446 -279 l 253 -279 l 253 -94 l 446 -94 m 474 1035 l 474 838 l 250 838 l 250 1035 l 474 1035 z "},"ß":{"ha":968,"x_min":85,"x_max":938,"o":"m 625 522 q 862 410 786 481 q 938 228 938 339 q 856 54 938 119 q 640 -11 775 -11 q 481 11 554 -11 q 358 75 408 33 l 415 225 q 642 143 518 143 q 720 169 694 143 q 746 238 746 196 q 672 342 746 296 q 428 431 599 389 l 428 585 q 577 660 535 618 q 619 764 619 703 q 482 882 619 882 q 342 830 390 882 q 294 672 294 778 l 294 0 l 85 0 l 85 642 q 187 935 85 835 q 482 1035 289 1035 q 727 966 638 1035 q 817 774 817 897 q 774 631 817 693 q 625 522 732 569 z "},"t":{"ha":550,"x_min":6,"x_max":528,"o":"m 349 547 l 349 274 q 379 188 349 215 q 458 161 410 161 q 528 171 489 161 l 528 8 q 407 -11 478 -11 q 208 63 276 -11 q 139 269 139 136 l 139 547 l 6 547 l 6 704 l 139 704 l 139 869 l 349 938 l 349 704 l 528 704 l 528 547 l 349 547 z "},"ŧ":{"ha":565,"x_min":13,"x_max":536,"o":"m 357 547 l 357 472 l 507 472 l 507 325 l 357 325 l 357 274 q 387 188 357 215 q 465 161 417 161 q 536 171 496 161 l 536 8 q 414 -11 486 -11 q 215 63 285 -11 q 146 269 146 136 l 146 325 l 42 325 l 42 472 l 146 472 l 146 547 l 13 547 l 13 704 l 146 704 l 146 869 l 357 938 l 357 704 l 536 704 l 536 547 l 357 547 z "},"ť":{"ha":550,"x_min":6,"x_max":564,"o":"m 521 746 l 406 746 l 406 992 l 564 992 l 521 746 m 349 704 l 528 704 l 528 547 l 349 547 l 349 274 q 379 188 349 215 q 458 161 410 161 q 528 171 489 161 l 528 8 q 407 -11 478 -11 q 208 63 276 -11 q 139 269 139 136 l 139 547 l 6 547 l 6 704 l 139 704 l 139 869 l 349 938 l 349 704 z "},"ţ":{"ha":550,"x_min":6,"x_max":528,"o":"m 349 547 l 349 274 q 379 188 349 215 q 458 161 410 161 q 528 171 489 161 l 528 8 q 407 -11 478 -11 l 388 -11 l 381 -57 q 399 -56 388 -56 q 484 -82 451 -56 q 517 -153 517 -108 q 467 -242 517 -208 q 326 -276 417 -276 q 260 -270 296 -276 q 196 -251 225 -264 l 213 -169 q 322 -189 276 -189 q 386 -153 386 -189 q 374 -133 386 -140 q 340 -125 363 -125 q 290 -135 322 -125 l 263 -106 l 278 14 q 174 109 210 44 q 139 269 139 174 l 139 547 l 6 547 l 6 704 l 139 704 l 139 869 l 349 938 l 349 704 l 528 704 l 528 547 l 349 547 z "},"ț":{"ha":550,"x_min":6,"x_max":528,"o":"m 349 547 l 349 274 q 379 188 349 215 q 458 161 410 161 q 528 171 489 161 l 528 8 q 407 -11 478 -11 q 208 63 276 -11 q 139 269 139 136 l 139 547 l 6 547 l 6 704 l 139 704 l 139 869 l 349 938 l 349 704 l 528 704 l 528 547 l 349 547 m 450 -93 l 450 -182 q 431 -296 450 -247 q 367 -386 413 -344 l 290 -333 q 339 -251 331 -296 l 242 -251 l 242 -93 l 450 -93 z "},"ẗ":{"ha":550,"x_min":6,"x_max":528,"o":"m 349 547 l 349 274 q 379 188 349 215 q 458 161 410 161 q 528 171 489 161 l 528 8 q 407 -11 478 -11 q 208 63 276 -11 q 139 269 139 136 l 139 547 l 6 547 l 6 704 l 139 704 l 139 869 l 349 938 l 349 704 l 528 704 l 528 547 l 349 547 m 207 1197 l 207 1014 l 14 1014 l 14 1197 l 207 1197 m 474 1197 l 474 1014 l 281 1014 l 281 1197 l 474 1197 z "},"ṭ":{"ha":550,"x_min":6,"x_max":528,"o":"m 349 547 l 349 274 q 379 188 349 215 q 458 161 410 161 q 528 171 489 161 l 528 8 q 407 -11 478 -11 q 208 63 276 -11 q 139 269 139 136 l 139 547 l 6 547 l 6 704 l 139 704 l 139 869 l 349 938 l 349 704 l 528 704 l 528 547 l 349 547 m 443 -94 l 443 -279 l 250 -279 l 250 -94 l 443 -94 z "},"ṯ":{"ha":550,"x_min":6,"x_max":565,"o":"m 349 547 l 349 274 q 379 188 349 215 q 458 161 410 161 q 528 171 489 161 l 528 8 q 407 -11 478 -11 q 208 63 276 -11 q 139 269 139 136 l 139 547 l 6 547 l 6 704 l 139 704 l 139 869 l 349 938 l 349 704 l 528 704 l 528 547 l 349 547 m 128 -126 l 565 -126 l 565 -249 l 128 -249 l 128 -126 z "},"u":{"ha":842,"x_min":81,"x_max":757,"o":"m 757 704 l 757 0 l 553 0 l 553 103 q 465 18 519 47 q 343 -11 411 -11 q 146 63 211 -11 q 81 285 81 136 l 81 704 l 290 704 l 290 281 q 400 153 290 153 q 506 197 465 153 q 546 314 546 242 l 546 704 l 757 704 z "},"ú":{"ha":842,"x_min":81,"x_max":757,"o":"m 757 704 l 757 0 l 553 0 l 553 103 q 465 18 519 47 q 343 -11 411 -11 q 146 63 211 -11 q 81 285 81 136 l 81 704 l 290 704 l 290 281 q 400 153 290 153 q 506 197 465 153 q 546 314 546 242 l 546 704 l 757 704 m 356 794 l 493 1081 l 699 1081 l 485 794 l 356 794 z "},"ŭ":{"ha":842,"x_min":81,"x_max":757,"o":"m 757 704 l 757 0 l 553 0 l 553 103 q 465 18 519 47 q 343 -11 411 -11 q 146 63 211 -11 q 81 285 81 136 l 81 704 l 290 704 l 290 281 q 400 153 290 153 q 506 197 465 153 q 546 314 546 242 l 546 704 l 757 704 m 421 825 q 257 876 329 825 q 161 1028 185 928 l 257 1069 q 421 957 318 957 q 583 1069 522 957 l 679 1028 q 584 877 656 929 q 421 825 513 825 z "},"û":{"ha":842,"x_min":81,"x_max":757,"o":"m 757 704 l 757 0 l 553 0 l 553 103 q 465 18 519 47 q 343 -11 411 -11 q 146 63 211 -11 q 81 285 81 136 l 81 704 l 290 704 l 290 281 q 400 153 290 153 q 506 197 465 153 q 546 314 546 242 l 546 704 l 757 704 m 175 794 l 357 1081 l 483 1081 l 665 794 l 501 794 l 421 957 l 339 794 l 175 794 z "},"ȕ":{"ha":842,"x_min":81,"x_max":757,"o":"m 757 704 l 757 0 l 553 0 l 553 103 q 465 18 519 47 q 343 -11 411 -11 q 146 63 211 -11 q 81 285 81 136 l 81 704 l 290 704 l 290 281 q 400 153 290 153 q 506 197 465 153 q 546 314 546 242 l 546 704 l 757 704 m 169 1081 l 321 1081 l 368 794 l 278 794 l 169 1081 m 363 1081 l 514 1081 l 563 794 l 472 794 l 363 1081 z "},"ü":{"ha":842,"x_min":81,"x_max":757,"o":"m 757 704 l 757 0 l 553 0 l 553 103 q 465 18 519 47 q 343 -11 411 -11 q 146 63 211 -11 q 81 285 81 136 l 81 704 l 290 704 l 290 281 q 400 153 290 153 q 506 197 465 153 q 546 314 546 242 l 546 704 l 757 704 m 383 1028 l 383 844 l 190 844 l 190 1028 l 383 1028 m 650 1028 l 650 844 l 457 844 l 457 1028 l 650 1028 z "},"ụ":{"ha":842,"x_min":81,"x_max":757,"o":"m 757 704 l 757 0 l 553 0 l 553 103 q 465 18 519 47 q 343 -11 411 -11 q 146 63 211 -11 q 81 285 81 136 l 81 704 l 290 704 l 290 281 q 400 153 290 153 q 506 197 465 153 q 546 314 546 242 l 546 704 l 757 704 m 517 -94 l 517 -279 l 324 -279 l 324 -94 l 517 -94 z "},"ù":{"ha":842,"x_min":81,"x_max":757,"o":"m 757 704 l 757 0 l 553 0 l 553 103 q 465 18 519 47 q 343 -11 411 -11 q 146 63 211 -11 q 81 285 81 136 l 81 704 l 290 704 l 290 281 q 400 153 290 153 q 506 197 465 153 q 546 314 546 242 l 546 704 l 757 704 m 142 1081 l 347 1081 l 485 794 l 356 794 l 142 1081 z "},"ủ":{"ha":842,"x_min":81,"x_max":757,"o":"m 757 704 l 757 0 l 553 0 l 553 103 q 465 18 519 47 q 343 -11 411 -11 q 146 63 211 -11 q 81 285 81 136 l 81 704 l 290 704 l 290 281 q 400 153 290 153 q 506 197 465 153 q 546 314 546 242 l 546 704 l 757 704 m 475 794 l 369 794 l 369 829 q 383 878 369 858 q 421 917 397 897 q 444 939 436 929 q 451 960 451 949 q 404 992 451 992 q 335 979 371 992 l 307 1058 q 426 1085 365 1085 q 546 1054 503 1085 q 589 979 589 1024 q 572 925 589 946 q 522 882 554 904 q 487 852 499 865 q 475 822 475 839 l 475 794 z "},"ư":{"ha":876,"x_min":81,"x_max":918,"o":"m 918 883 l 918 831 q 874 689 918 747 q 757 613 831 631 l 757 0 l 553 0 l 553 103 q 465 18 519 47 q 343 -11 411 -11 q 146 63 211 -11 q 81 285 81 136 l 81 704 l 290 704 l 290 281 q 400 153 290 153 q 506 197 465 153 q 546 314 546 242 l 546 704 l 606 704 q 708 738 678 704 q 738 856 738 772 l 738 883 l 918 883 z "},"ứ":{"ha":876,"x_min":81,"x_max":918,"o":"m 918 883 l 918 831 q 874 689 918 747 q 757 613 831 631 l 757 0 l 553 0 l 553 103 q 465 18 519 47 q 343 -11 411 -11 q 146 63 211 -11 q 81 285 81 136 l 81 704 l 290 704 l 290 281 q 400 153 290 153 q 506 197 465 153 q 546 314 546 242 l 546 704 l 606 704 q 708 738 678 704 q 738 856 738 772 l 738 883 l 918 883 m 356 794 l 493 1081 l 699 1081 l 485 794 l 356 794 z "},"ự":{"ha":876,"x_min":81,"x_max":918,"o":"m 918 883 l 918 831 q 874 689 918 747 q 757 613 831 631 l 757 0 l 553 0 l 553 103 q 465 18 519 47 q 343 -11 411 -11 q 146 63 211 -11 q 81 285 81 136 l 81 704 l 290 704 l 290 281 q 400 153 290 153 q 506 197 465 153 q 546 314 546 242 l 546 704 l 606 704 q 708 738 678 704 q 738 856 738 772 l 738 883 l 918 883 m 517 -94 l 517 -279 l 324 -279 l 324 -94 l 517 -94 z "},"ừ":{"ha":876,"x_min":81,"x_max":918,"o":"m 918 883 l 918 831 q 874 689 918 747 q 757 613 831 631 l 757 0 l 553 0 l 553 103 q 465 18 519 47 q 343 -11 411 -11 q 146 63 211 -11 q 81 285 81 136 l 81 704 l 290 704 l 290 281 q 400 153 290 153 q 506 197 465 153 q 546 314 546 242 l 546 704 l 606 704 q 708 738 678 704 q 738 856 738 772 l 738 883 l 918 883 m 142 1081 l 347 1081 l 485 794 l 356 794 l 142 1081 z "},"ử":{"ha":876,"x_min":81,"x_max":918,"o":"m 918 883 l 918 831 q 874 689 918 747 q 757 613 831 631 l 757 0 l 553 0 l 553 103 q 465 18 519 47 q 343 -11 411 -11 q 146 63 211 -11 q 81 285 81 136 l 81 704 l 290 704 l 290 281 q 400 153 290 153 q 506 197 465 153 q 546 314 546 242 l 546 704 l 606 704 q 708 738 678 704 q 738 856 738 772 l 738 883 l 918 883 m 475 794 l 369 794 l 369 829 q 383 878 369 858 q 421 917 397 897 q 444 939 436 929 q 451 960 451 949 q 404 992 451 992 q 335 979 371 992 l 307 1058 q 426 1085 365 1085 q 546 1054 503 1085 q 589 979 589 1024 q 572 925 589 946 q 522 882 554 904 q 487 852 499 865 q 475 822 475 839 l 475 794 z "},"ữ":{"ha":876,"x_min":81,"x_max":918,"o":"m 918 883 l 918 831 q 874 689 918 747 q 757 613 831 631 l 757 0 l 553 0 l 553 103 q 465 18 519 47 q 343 -11 411 -11 q 146 63 211 -11 q 81 285 81 136 l 81 704 l 290 704 l 290 281 q 400 153 290 153 q 506 197 465 153 q 546 314 546 242 l 546 704 l 606 704 q 708 738 678 704 q 738 856 738 772 l 738 883 l 918 883 m 176 839 q 219 991 176 940 q 328 1042 261 1042 q 378 1031 354 1042 q 435 1001 403 1021 q 481 977 465 985 q 514 969 497 969 q 556 988 540 969 q 575 1038 572 1006 l 664 1038 q 622 886 664 938 q 513 835 579 835 q 462 845 486 835 q 406 875 438 856 q 359 899 375 892 q 326 907 343 907 q 284 889 300 907 q 265 839 268 871 l 176 839 z "},"ű":{"ha":842,"x_min":81,"x_max":757,"o":"m 757 704 l 757 0 l 553 0 l 553 103 q 465 18 519 47 q 343 -11 411 -11 q 146 63 211 -11 q 81 285 81 136 l 81 704 l 290 704 l 290 281 q 400 153 290 153 q 506 197 465 153 q 546 314 546 242 l 546 704 l 757 704 m 278 794 l 326 1081 l 478 1081 l 368 794 l 278 794 m 472 794 l 519 1081 l 671 1081 l 563 794 l 472 794 z "},"ȗ":{"ha":842,"x_min":81,"x_max":757,"o":"m 757 704 l 757 0 l 553 0 l 553 103 q 465 18 519 47 q 343 -11 411 -11 q 146 63 211 -11 q 81 285 81 136 l 81 704 l 290 704 l 290 281 q 400 153 290 153 q 506 197 465 153 q 546 314 546 242 l 546 704 l 757 704 m 421 1063 q 583 1011 511 1063 q 679 861 656 960 l 583 821 q 421 932 521 932 q 257 821 319 932 l 161 861 q 257 1011 185 960 q 421 1063 329 1063 z "},"ū":{"ha":842,"x_min":81,"x_max":757,"o":"m 757 704 l 757 0 l 553 0 l 553 103 q 465 18 519 47 q 343 -11 411 -11 q 146 63 211 -11 q 81 285 81 136 l 81 704 l 290 704 l 290 281 q 400 153 290 153 q 506 197 465 153 q 546 314 546 242 l 546 704 l 757 704 m 201 1000 l 639 1000 l 639 869 l 201 869 l 201 1000 z "},"ṻ":{"ha":842,"x_min":81,"x_max":757,"o":"m 757 704 l 757 0 l 553 0 l 553 103 q 465 18 519 47 q 343 -11 411 -11 q 146 63 211 -11 q 81 285 81 136 l 81 704 l 290 704 l 290 281 q 400 153 290 153 q 506 197 465 153 q 546 314 546 242 l 546 704 l 757 704 m 201 1000 l 639 1000 l 639 869 l 201 869 l 201 1000 m 383 1296 l 383 1113 l 190 1113 l 190 1296 l 383 1296 m 650 1296 l 650 1113 l 457 1113 l 457 1296 l 650 1296 z "},"ų":{"ha":842,"x_min":81,"x_max":813,"o":"m 813 -253 q 671 -283 744 -283 q 539 -238 590 -283 q 488 -122 488 -193 q 553 11 488 -43 l 553 103 q 465 18 519 47 q 343 -11 411 -11 q 146 63 211 -11 q 81 285 81 136 l 81 704 l 290 704 l 290 281 q 400 153 290 153 q 506 197 465 153 q 546 314 546 242 l 546 704 l 757 704 l 757 0 l 743 0 q 657 -26 690 0 q 624 -94 624 -51 q 645 -152 624 -132 q 710 -172 667 -172 q 788 -153 750 -172 l 813 -253 z "},"ů":{"ha":842,"x_min":81,"x_max":757,"o":"m 757 704 l 757 0 l 553 0 l 553 103 q 465 18 519 47 q 343 -11 411 -11 q 146 63 211 -11 q 81 285 81 136 l 81 704 l 290 704 l 290 281 q 400 153 290 153 q 506 197 465 153 q 546 314 546 242 l 546 704 l 757 704 m 421 788 q 311 831 356 788 q 267 939 267 875 q 312 1045 267 1001 q 421 1089 357 1089 q 529 1045 485 1089 q 574 939 574 1001 q 529 831 574 875 q 421 788 485 788 m 421 874 q 464 892 447 874 q 481 939 481 911 q 464 983 481 965 q 421 1001 447 1001 q 377 983 394 1001 q 360 939 360 965 q 377 892 360 911 q 421 874 394 874 z "},"ũ":{"ha":842,"x_min":81,"x_max":757,"o":"m 757 704 l 757 0 l 553 0 l 553 103 q 465 18 519 47 q 343 -11 411 -11 q 146 63 211 -11 q 81 285 81 136 l 81 704 l 290 704 l 290 281 q 400 153 290 153 q 506 197 465 153 q 546 314 546 242 l 546 704 l 757 704 m 176 839 q 219 991 176 940 q 328 1042 261 1042 q 378 1031 354 1042 q 435 1001 403 1021 q 481 977 465 985 q 514 969 497 969 q 556 988 540 969 q 575 1038 572 1006 l 664 1038 q 622 886 664 938 q 513 835 579 835 q 462 845 486 835 q 406 875 438 856 q 359 899 375 892 q 326 907 343 907 q 284 889 300 907 q 265 839 268 871 l 176 839 z "},"ṹ":{"ha":842,"x_min":81,"x_max":757,"o":"m 757 704 l 757 0 l 553 0 l 553 103 q 465 18 519 47 q 343 -11 411 -11 q 146 63 211 -11 q 81 285 81 136 l 81 704 l 290 704 l 290 281 q 400 153 290 153 q 506 197 465 153 q 546 314 546 242 l 546 704 l 757 704 m 176 839 q 219 991 176 940 q 328 1042 261 1042 q 378 1031 354 1042 q 435 1001 403 1021 q 481 977 465 985 q 514 969 497 969 q 556 988 540 969 q 575 1038 572 1006 l 664 1038 q 622 886 664 938 q 513 835 579 835 q 462 845 486 835 q 406 875 438 856 q 359 899 375 892 q 326 907 343 907 q 284 889 300 907 q 265 839 268 871 l 176 839 m 356 1063 l 493 1349 l 699 1349 l 485 1063 l 356 1063 z "},"v":{"ha":764,"x_min":-14,"x_max":779,"o":"m 779 703 l 469 0 l 292 0 l -14 703 l 206 703 l 386 247 l 572 703 l 779 703 z "},"w":{"ha":1238,"x_min":0,"x_max":1236,"o":"m 1236 704 l 951 0 l 775 0 l 615 408 l 463 0 l 285 0 l 0 704 l 214 704 l 383 250 l 551 704 l 694 704 l 864 246 l 1033 704 l 1236 704 z "},"ẃ":{"ha":1238,"x_min":0,"x_max":1236,"o":"m 1236 704 l 951 0 l 775 0 l 615 408 l 463 0 l 285 0 l 0 704 l 214 704 l 383 250 l 551 704 l 694 704 l 864 246 l 1033 704 l 1236 704 m 553 794 l 690 1081 l 896 1081 l 682 794 l 553 794 z "},"ŵ":{"ha":1238,"x_min":0,"x_max":1236,"o":"m 1236 704 l 951 0 l 775 0 l 615 408 l 463 0 l 285 0 l 0 704 l 214 704 l 383 250 l 551 704 l 694 704 l 864 246 l 1033 704 l 1236 704 m 372 794 l 554 1081 l 681 1081 l 863 794 l 699 794 l 618 957 l 536 794 l 372 794 z "},"ẅ":{"ha":1238,"x_min":0,"x_max":1236,"o":"m 1236 704 l 951 0 l 775 0 l 615 408 l 463 0 l 285 0 l 0 704 l 214 704 l 383 250 l 551 704 l 694 704 l 864 246 l 1033 704 l 1236 704 m 581 1028 l 581 844 l 388 844 l 388 1028 l 581 1028 m 847 1028 l 847 844 l 654 844 l 654 1028 l 847 1028 z "},"ẁ":{"ha":1238,"x_min":0,"x_max":1236,"o":"m 1236 704 l 951 0 l 775 0 l 615 408 l 463 0 l 285 0 l 0 704 l 214 704 l 383 250 l 551 704 l 694 704 l 864 246 l 1033 704 l 1236 704 m 339 1081 l 544 1081 l 682 794 l 553 794 l 339 1081 z "},"x":{"ha":774,"x_min":-31,"x_max":804,"o":"m 804 0 l 557 0 l 386 215 l 215 0 l -31 0 l 267 363 l -12 704 l 235 704 l 386 508 l 538 704 l 786 704 l 507 363 l 804 0 z "},"y":{"ha":764,"x_min":-14,"x_max":779,"o":"m 779 704 l 454 -37 q 303 -235 394 -172 q 81 -317 213 -299 l 32 -156 q 178 -103 129 -135 q 256 -10 228 -71 l 276 36 l -14 704 l 206 704 l 386 247 l 572 704 l 779 704 z "},"ý":{"ha":764,"x_min":-14,"x_max":779,"o":"m 779 704 l 454 -37 q 303 -235 394 -172 q 81 -317 213 -299 l 32 -156 q 178 -103 129 -135 q 256 -10 228 -71 l 276 36 l -14 704 l 206 704 l 386 247 l 572 704 l 779 704 m 317 794 l 454 1081 l 660 1081 l 446 794 l 317 794 z "},"ŷ":{"ha":764,"x_min":-14,"x_max":779,"o":"m 779 704 l 454 -37 q 303 -235 394 -172 q 81 -317 213 -299 l 32 -156 q 178 -103 129 -135 q 256 -10 228 -71 l 276 36 l -14 704 l 206 704 l 386 247 l 572 704 l 779 704 m 136 794 l 318 1081 l 444 1081 l 626 794 l 463 794 l 382 957 l 300 794 l 136 794 z "},"ÿ":{"ha":764,"x_min":-14,"x_max":779,"o":"m 779 704 l 454 -37 q 303 -235 394 -172 q 81 -317 213 -299 l 32 -156 q 178 -103 129 -135 q 256 -10 228 -71 l 276 36 l -14 704 l 206 704 l 386 247 l 572 704 l 779 704 m 344 1028 l 344 844 l 151 844 l 151 1028 l 344 1028 m 611 1028 l 611 844 l 418 844 l 418 1028 l 611 1028 z "},"ẏ":{"ha":764,"x_min":-14,"x_max":779,"o":"m 779 704 l 454 -37 q 303 -235 394 -172 q 81 -317 213 -299 l 32 -156 q 178 -103 129 -135 q 256 -10 228 -71 l 276 36 l -14 704 l 206 704 l 386 247 l 572 704 l 779 704 m 493 1035 l 493 838 l 269 838 l 269 1035 l 493 1035 z "},"ỵ":{"ha":764,"x_min":-14,"x_max":779,"o":"m 779 704 l 454 -37 q 303 -235 394 -172 q 81 -317 213 -299 l 32 -156 q 178 -103 129 -135 q 256 -10 228 -71 l 276 36 l -14 704 l 206 704 l 386 247 l 572 704 l 779 704 m 699 -94 l 699 -279 l 506 -279 l 506 -94 l 699 -94 z "},"ỳ":{"ha":764,"x_min":-14,"x_max":779,"o":"m 779 704 l 454 -37 q 303 -235 394 -172 q 81 -317 213 -299 l 32 -156 q 178 -103 129 -135 q 256 -10 228 -71 l 276 36 l -14 704 l 206 704 l 386 247 l 572 704 l 779 704 m 103 1081 l 308 1081 l 446 794 l 317 794 l 103 1081 z "},"ỷ":{"ha":764,"x_min":-14,"x_max":779,"o":"m 779 704 l 454 -37 q 303 -235 394 -172 q 81 -317 213 -299 l 32 -156 q 178 -103 129 -135 q 256 -10 228 -71 l 276 36 l -14 704 l 206 704 l 386 247 l 572 704 l 779 704 m 436 794 l 331 794 l 331 829 q 344 878 331 858 q 382 917 358 897 q 405 939 397 929 q 413 960 413 949 q 365 992 413 992 q 296 979 332 992 l 268 1058 q 388 1085 326 1085 q 507 1054 464 1085 q 550 979 550 1024 q 533 925 550 946 q 483 882 515 904 q 448 852 460 865 q 436 822 436 839 l 436 794 z "},"ȳ":{"ha":764,"x_min":-14,"x_max":779,"o":"m 779 704 l 454 -37 q 303 -235 394 -172 q 81 -317 213 -299 l 32 -156 q 178 -103 129 -135 q 256 -10 228 -71 l 276 36 l -14 704 l 206 704 l 386 247 l 572 704 l 779 704 m 163 1000 l 600 1000 l 600 869 l 163 869 l 163 1000 z "},"ỹ":{"ha":764,"x_min":-14,"x_max":779,"o":"m 779 704 l 454 -37 q 303 -235 394 -172 q 81 -317 213 -299 l 32 -156 q 178 -103 129 -135 q 256 -10 228 -71 l 276 36 l -14 704 l 206 704 l 386 247 l 572 704 l 779 704 m 138 839 q 180 991 138 940 q 289 1042 222 1042 q 340 1031 315 1042 q 396 1001 364 1021 q 442 977 426 985 q 475 969 458 969 q 517 988 501 969 q 536 1038 533 1006 l 625 1038 q 583 886 625 938 q 474 835 540 835 q 423 845 447 835 q 367 875 399 856 q 320 899 336 892 q 288 907 304 907 q 245 889 261 907 q 226 839 229 871 l 138 839 z "}}}
